  0
SECTION
  2
HEADER
  9
$ACADVER
  1
AC1032
  9
$ACADMAINTVER
 90
        4
  9
$DWGCODEPAGE
  3
ANSI_932
  9
$LASTSAVEDBY
  1
root
  9
$REQUIREDVERSIONS
160
                 0
  9
$INSBASE
 10
0.0
 20
0.0
 30
0.0
  9
$EXTMIN
 10
-297.0
 20
-210.0000000000001
 30
-0.000000000000009
  9
$EXTMAX
 10
0.0000000000000568
 20
0.0000000000000568
 30
0.0000000000000093
  9
$LIMMIN
 10
0.0
 20
0.0
  9
$LIMMAX
 10
12.0
 20
9.0
  9
$ORTHOMODE
 70
     0
  9
$REGENMODE
 70
     1
  9
$FILLMODE
 70
     1
  9
$QTEXTMODE
 70
     0
  9
$MIRRTEXT
 70
     1
  9
$LTSCALE
 40
1.0
  9
$ATTMODE
 70
     1
  9
$TEXTSIZE
 40
0.2
  9
$TRACEWID
 40
0.05
  9
$TEXTSTYLE
  7
STANDARD
  9
$CLAYER
  8
0
  9
$CELTYPE
  6
BYBLOCK
  9
$CECOLOR
 62
   256
  9
$CELTSCALE
 40
1.0
  9
$DISPSILH
 70
     0
  9
$DIMSCALE
 40
1.0
  9
$DIMASZ
 40
0.18
  9
$DIMEXO
 40
0.0625
  9
$DIMDLI
 40
0.38
  9
$DIMRND
 40
0.0
  9
$DIMDLE
 40
0.0
  9
$DIMEXE
 40
0.18
  9
$DIMTP
 40
0.0
  9
$DIMTM
 40
0.0
  9
$DIMTXT
 40
0.18
  9
$DIMCEN
 40
0.09
  9
$DIMTSZ
 40
0.0
  9
$DIMTOL
 70
     0
  9
$DIMLIM
 70
     0
  9
$DIMTIH
 70
     1
  9
$DIMTOH
 70
     1
  9
$DIMSE1
 70
     0
  9
$DIMSE2
 70
     0
  9
$DIMTAD
 70
     0
  9
$DIMZIN
 70
     0
  9
$DIMBLK
  1

  9
$DIMASO
 70
     1
  9
$DIMSHO
 70
     1
  9
$DIMPOST
  1

  9
$DIMAPOST
  1

  9
$DIMALT
 70
     0
  9
$DIMALTD
 70
     2
  9
$DIMALTF
 40
25.4
  9
$DIMLFAC
 40
1.0
  9
$DIMTOFL
 70
     0
  9
$DIMTVP
 40
0.0
  9
$DIMTIX
 70
     0
  9
$DIMSOXD
 70
     0
  9
$DIMSAH
 70
     0
  9
$DIMBLK1
  1

  9
$DIMBLK2
  1

  9
$DIMSTYLE
  2
Standard
  9
$DIMCLRD
 70
     0
  9
$DIMCLRE
 70
     0
  9
$DIMCLRT
 70
     0
  9
$DIMTFAC
 40
1.0
  9
$DIMGAP
 40
0.09
  9
$DIMJUST
 70
     0
  9
$DIMSD1
 70
     0
  9
$DIMSD2
 70
     0
  9
$DIMTOLJ
 70
     1
  9
$DIMTZIN
 70
     0
  9
$DIMALTZ
 70
     0
  9
$DIMALTTZ
 70
     0
  9
$DIMUPT
 70
     0
  9
$DIMDEC
 70
     4
  9
$DIMTDEC
 70
     4
  9
$DIMALTU
 70
     2
  9
$DIMALTTD
 70
     2
  9
$DIMTXSTY
  7
STANDARD
  9
$DIMAUNIT
 70
     0
  9
$DIMADEC
 70
     0
  9
$DIMALTRND
 40
0.0
  9
$DIMAZIN
 70
     0
  9
$DIMDSEP
 70
    46
  9
$DIMATFIT
 70
     3
  9
$DIMFRAC
 70
     0
  9
$DIMLDRBLK
  1

  9
$DIMLUNIT
 70
     2
  9
$DIMLWD
 70
    -2
  9
$DIMLWE
 70
    -2
  9
$DIMTMOVE
 70
     2
  9
$DIMFXL
 40
1.0
  9
$DIMFXLON
 70
     0
  9
$DIMJOGANG
 40
0.7853981633974483
  9
$DIMTFILL
 70
     0
  9
$DIMTFILLCLR
 70
     0
  9
$DIMARCSYM
 70
     0
  9
$DIMLTYPE
  6

  9
$DIMLTEX1
  6

  9
$DIMLTEX2
  6

  9
$DIMTXTDIRECTION
 70
     0
  9
$LUNITS
 70
     2
  9
$LUPREC
 70
     4
  9
$SKETCHINC
 40
0.1
  9
$FILLETRAD
 40
0.5
  9
$AUNITS
 70
     0
  9
$AUPREC
 70
     0
  9
$MENU
  1
.
  9
$ELEVATION
 40
0.0
  9
$PELEVATION
 40
0.0
  9
$THICKNESS
 40
0.0
  9
$LIMCHECK
 70
     0
  9
$CHAMFERA
 40
0.0
  9
$CHAMFERB
 40
0.0
  9
$CHAMFERC
 40
0.0
  9
$CHAMFERD
 40
0.0
  9
$SKPOLY
 70
     0
  9
$TDCREATE
 40
0.0
  9
$TDUCREATE
 40
0.0
  9
$TDUPDATE
 40
2458864.692720857
  9
$TDUUPDATE
 40
2458864.317720857
  9
$TDINDWG
 40
0.0000000231
  9
$TDUSRTIMER
 40
0.0021853009
  9
$USRTIMER
 70
     1
  9
$ANGBASE
 50
0.0
  9
$ANGDIR
 70
     0
  9
$PDMODE
 70
     0
  9
$PDSIZE
 40
0.0
  9
$PLINEWID
 40
0.0
  9
$SPLFRAME
 70
     0
  9
$SPLINETYPE
 70
     6
  9
$SPLINESEGS
 70
     8
  9
$HANDSEED
  5
1005A
  9
$SURFTAB1
 70
     6
  9
$SURFTAB2
 70
     6
  9
$SURFTYPE
 70
     6
  9
$SURFU
 70
     6
  9
$SURFV
 70
     6
  9
$UCSBASE
  2

  9
$UCSNAME
  2

  9
$UCSORG
 10
0.0
 20
0.0
 30
0.0
  9
$UCSXDIR
 10
1.0
 20
0.0
 30
0.0
  9
$UCSYDIR
 10
0.0
 20
1.0
 30
0.0
  9
$UCSORTHOREF
  2

  9
$UCSORTHOVIEW
 70
     0
  9
$UCSORGTOP
 10
0.0
 20
0.0
 30
0.0
  9
$UCSORGBOTTOM
 10
0.0
 20
0.0
 30
0.0
  9
$UCSORGLEFT
 10
0.0
 20
0.0
 30
0.0
  9
$UCSORGRIGHT
 10
0.0
 20
0.0
 30
0.0
  9
$UCSORGFRONT
 10
0.0
 20
0.0
 30
0.0
  9
$UCSORGBACK
 10
0.0
 20
0.0
 30
0.0
  9
$PUCSBASE
  2

  9
$PUCSNAME
  2

  9
$PUCSORG
 10
0.0
 20
0.0
 30
0.0
  9
$PUCSXDIR
 10
1.0
 20
0.0
 30
0.0
  9
$PUCSYDIR
 10
0.0
 20
1.0
 30
0.0
  9
$PUCSORTHOREF
  2

  9
$PUCSORTHOVIEW
 70
     0
  9
$PUCSORGTOP
 10
0.0
 20
0.0
 30
0.0
  9
$PUCSORGBOTTOM
 10
0.0
 20
0.0
 30
0.0
  9
$PUCSORGLEFT
 10
0.0
 20
0.0
 30
0.0
  9
$PUCSORGRIGHT
 10
0.0
 20
0.0
 30
0.0
  9
$PUCSORGFRONT
 10
0.0
 20
0.0
 30
0.0
  9
$PUCSORGBACK
 10
0.0
 20
0.0
 30
0.0
  9
$USERI1
 70
     0
  9
$USERI2
 70
     0
  9
$USERI3
 70
     0
  9
$USERI4
 70
     0
  9
$USERI5
 70
     0
  9
$USERR1
 40
0.0
  9
$USERR2
 40
0.0
  9
$USERR3
 40
0.0
  9
$USERR4
 40
0.0
  9
$USERR5
 40
0.0
  9
$WORLDVIEW
 70
     1
  9
$SHADEDGE
 70
     3
  9
$SHADEDIF
 70
    70
  9
$TILEMODE
 70
     1
  9
$MAXACTVP
 70
    64
  9
$PINSBASE
 10
0.0
 20
0.0
 30
0.0
  9
$PLIMCHECK
 70
     0
  9
$PEXTMIN
 10
1.000000000000000E+20
 20
1.000000000000000E+20
 30
1.000000000000000E+20
  9
$PEXTMAX
 10
-1.000000000000000E+20
 20
-1.000000000000000E+20
 30
-1.000000000000000E+20
  9
$PLIMMIN
 10
0.0
 20
0.0
  9
$PLIMMAX
 10
0.0
 20
0.0
  9
$UNITMODE
 70
     0
  9
$VISRETAIN
 70
     1
  9
$PLINEGEN
 70
     0
  9
$PSLTSCALE
 70
     1
  9
$TREEDEPTH
 70
  3020
  9
$CMLSTYLE
  2
Standard
  9
$CMLJUST
 70
     0
  9
$CMLSCALE
 40
1.0
  9
$PROXYGRAPHICS
 70
     1
  9
$MEASUREMENT
 70
     0
  9
$CELWEIGHT
370
    -1
  9
$ENDCAPS
280
     0
  9
$JOINSTYLE
280
     0
  9
$LWDISPLAY
290
     0
  9
$INSUNITS
 70
     4
  9
$HYPERLINKBASE
  1

  9
$STYLESHEET
  1

  9
$XEDIT
290
     1
  9
$CEPSNTYPE
380
     0
  9
$PSTYLEMODE
290
     1
  9
$FINGERPRINTGUID
  2
{61af8004-c5d3-fe4d-9b36-b12fcf1d67a3}
  9
$VERSIONGUID
  2
{FAEB1C32-E019-11D5-929B-00C0DF256EC4}
  9
$EXTNAMES
290
     1
  9
$PSVPSCALE
 40
0.0
  9
$OLESTARTUP
290
     0
  9
$SORTENTS
280
   127
  9
$INDEXCTL
280
     0
  9
$HIDETEXT
280
     1
  9
$XCLIPFRAME
280
     2
  9
$HALOGAP
280
     0
  9
$OBSCOLOR
 70
   257
  9
$OBSLTYPE
280
     0
  9
$INTERSECTIONDISPLAY
280
     0
  9
$INTERSECTIONCOLOR
 70
   257
  9
$DIMASSOC
280
     2
  9
$PROJECTNAME
  1

  9
$CAMERADISPLAY
290
     0
  9
$LENSLENGTH
 40
50.0
  9
$CAMERAHEIGHT
 40
0.0
  9
$STEPSPERSEC
 40
2.0
  9
$STEPSIZE
 40
6.0
  9
$3DDWFPREC
 40
2.0
  9
$PSOLWIDTH
 40
0.25
  9
$PSOLHEIGHT
 40
4.0
  9
$LOFTANG1
 40
1.570796326794897
  9
$LOFTANG2
 40
1.570796326794897
  9
$LOFTMAG1
 40
0.0
  9
$LOFTMAG2
 40
0.0
  9
$LOFTPARAM
 70
     7
  9
$LOFTNORMALS
280
     1
  9
$LATITUDE
 40
37.795
  9
$LONGITUDE
 40
-122.394
  9
$NORTHDIRECTION
 40
0.0
  9
$TIMEZONE
 70
 -8000
  9
$LIGHTGLYPHDISPLAY
280
     1
  9
$TILEMODELIGHTSYNCH
280
     1
  9
$SOLIDHIST
280
     0
  9
$SHOWHIST
280
     1
  9
$DWFFRAME
280
     2
  9
$DGNFRAME
280
     2
  9
$REALWORLDSCALE
290
     1
  9
$INTERFERECOLOR
 62
   256
  9
$CSHADOW
280
     0
  9
$SHADOWPLANELOCATION
 40
0.0
  0
ENDSEC
  0
SECTION
  2
CLASSES
  0
CLASS
  1
ACDBDICTIONARYWDFLT
  2
AcDbDictionaryWithDefault
  3
ObjectDBX Classes
 90
        0
 91
        3
280
     0
281
     0
  0
CLASS
  1
SCALE
  2
AcDbScale
  3
ObjectDBX Classes
 90
     1153
 91
        3
280
     0
281
     0
  0
CLASS
  1
MATERIAL
  2
AcDbMaterial
  3
ObjectDBX Classes
 90
     1153
 91
        3
280
     0
281
     0
  0
CLASS
  1
VISUALSTYLE
  2
AcDbVisualStyle
  3
ObjectDBX Classes
 90
     4095
 91
        3
280
     0
281
     0
  0
CLASS
  1
TABLESTYLE
  2
AcDbTableStyle
  3
ObjectDBX Classes
 90
     4095
 91
        3
280
     0
281
     0
  0
CLASS
  1
MLEADERSTYLE
  2
AcDbMLeaderStyle
  3
ACDB_MLEADERSTYLE_CLASS
 90
     4095
 91
        3
280
     0
281
     0
  0
CLASS
  1
DICTIONARYVAR
  2
AcDbDictionaryVar
  3
ObjectDBX Classes
 90
        0
 91
        3
280
     0
281
     0
  0
CLASS
  1
CELLSTYLEMAP
  2
AcDbCellStyleMap
  3
ObjectDBX Classes
 90
     1152
 91
        3
280
     0
281
     0
  0
ENDSEC
  0
SECTION
  2
TABLES
  0
TABLE
  2
VPORT
  5
8
330
0
100
AcDbSymbolTable
 70
     1
  0
VPORT
  5
10001
330
8
100
AcDbSymbolTableRecord
100
AcDbViewportTableRecord
  2
*Active
 70
     0
 10
0.0
 20
0.0
 11
1.0
 21
1.0
 12
-56.10710980543183
 22
-134.9107861347858
 13
0.0
 23
0.0
 14
0.5
 24
0.5
 15
0.5
 25
0.5
 16
0.0
 26
0.0
 36
1.0
 17
0.0
 27
0.0
 37
0.0
 40
320.3673029449691
 41
1.969135802469136
 42
50.0
 43
0.0
 44
0.0
 50
0.0
 51
0.0
 71
    16
 72
   100
 73
     1
 74
     3
 75
     0
 76
     0
 77
     0
 78
     0
281
     0
 65
     1
110
0.0
120
0.0
130
0.0
111
1.0
121
0.0
131
0.0
112
0.0
122
1.0
132
0.0
 79
     0
146
0.0
 60
     3
 61
     5
292
     1
282
     1
141
0.0
142
0.0
 63
   250
  0
ENDTAB
  0
TABLE
  2
LTYPE
  5
5
330
0
100
AcDbSymbolTable
 70
     1
  0
LTYPE
  5
14
330
5
100
AcDbSymbolTableRecord
100
AcDbLinetypeTableRecord
  2
BYBLOCK
 70
     0
  3

 72
    65
 73
     0
 40
0.0
  0
LTYPE
  5
15
330
5
100
AcDbSymbolTableRecord
100
AcDbLinetypeTableRecord
  2
BYLAYER
 70
     0
  3

 72
    65
 73
     0
 40
0.0
  0
LTYPE
  5
FFFF
330
5
100
AcDbSymbolTableRecord
100
AcDbLinetypeTableRecord
  2
Continuous
 70
     0
  3
Solid line
 72
    65
 73
     0
 40
0.0
  0
ENDTAB
  0
TABLE
  2
LAYER
  5
2
330
0
100
AcDbSymbolTable
 70
     1
  0
LAYER
  5
50
330
2
100
AcDbSymbolTableRecord
100
AcDbLayerTableRecord
  2
0
 70
     0
 62
     7
  6
Continuous
370
    -3
390
10005
347
1002E
348
0
  0
ENDTAB
  0
TABLE
  2
STYLE
  5
3
330
0
100
AcDbSymbolTable
 70
     1
  0
STYLE
  5
11
330
3
100
AcDbSymbolTableRecord
100
AcDbTextStyleTableRecord
  2
STANDARD
 70
     0
 40
0.2
 41
1.0
 50
0.0
 71
     0
 42
0.2
  3

  4

  0
ENDTAB
  0
TABLE
  2
VIEW
  5
6
330
0
100
AcDbSymbolTable
 70
     0
  0
ENDTAB
  0
TABLE
  2
UCS
  5
7
330
0
100
AcDbSymbolTable
 70
     0
  0
ENDTAB
  0
TABLE
  2
APPID
  5
9
330
0
100
AcDbSymbolTable
 70
     1
  0
APPID
  5
12
330
9
100
AcDbSymbolTableRecord
100
AcDbRegAppTableRecord
  2
ACAD
 70
     0
  0
ENDTAB
  0
TABLE
  2
DIMSTYLE
  5
A
330
0
100
AcDbSymbolTable
 70
     1
100
AcDbDimStyleTable
  0
DIMSTYLE
105
10000
330
A
100
AcDbSymbolTableRecord
100
AcDbDimStyleTableRecord
  2
Standard
 70
     0
178
     0
340
11
  0
ENDTAB
  0
TABLE
  2
BLOCK_RECORD
  5
1
330
0
100
AcDbSymbolTable
 70
     0
  0
BLOCK_RECORD
  5
1F
330
1
100
AcDbSymbolTableRecord
100
AcDbBlockTableRecord
  2
*MODEL_SPACE
340
10029
 70
     0
280
     1
281
     0
  0
BLOCK_RECORD
  5
1B
330
1
100
AcDbSymbolTableRecord
100
AcDbBlockTableRecord
  2
*PAPER_SPACE
340
1002A
 70
     0
280
     1
281
     0
  0
ENDTAB
  0
ENDSEC
  0
SECTION
  2
BLOCKS
  0
BLOCK
  5
20
330
1F
100
AcDbEntity
  8
0
100
AcDbBlockBegin
  2
*MODEL_SPACE
 70
     0
 10
0.0
 20
0.0
 30
0.0
  3
*MODEL_SPACE
  1

  0
ENDBLK
  5
21
330
1F
100
AcDbEntity
  8
0
100
AcDbBlockEnd
  0
BLOCK
  5
1C
330
1B
100
AcDbEntity
 67
     1
  8
0
100
AcDbBlockBegin
  2
*PAPER_SPACE
 70
     0
 10
0.0
 20
0.0
 30
0.0
  3
*PAPER_SPACE
  1

  0
ENDBLK
  5
1D
330
1B
100
AcDbEntity
 67
     1
  8
0
100
AcDbBlockEnd
  0
ENDSEC
  0
SECTION
  2
ENTITIES
  0
LWPOLYLINE
  5
100
330
1F
100
AcDbEntity
  8
0
 62
     1
100
AcDbPolyline
 90
        4
 70
     1
 43
0.0
 10
-24.04999999999998
 20
-152.99375
 10
-8.999999999999982
 20
-152.99375
 10
-8.999999999999982
 20
-137.94375
 10
-24.04999999999998
 20
-137.94375
  0
ARC
  5
101
330
1F
100
AcDbEntity
  8
0
 62
     1
100
AcDbCircle
 10
-18.07038443213169
 20
-128.1436705532437
 30
0.0
 40
0.9999999999999729
100
AcDbArc
 50
224.999999999998
 51
315.0000000000014
  0
LWPOLYLINE
  5
102
330
1F
100
AcDbEntity
  8
0
 62
     1
100
AcDbPolyline
 90
       12
 70
     1
 43
0.0
 10
-28.05000000000002
 20
-162.51875
 10
-28.05000000000003
 20
-157.6810953330962
 42
0.5000000000474174
 10
-24.04999999999998
 20
-157.6810526664296
 10
-24.04999999999998
 20
-169.04375
 10
-24.04999999999998
 20
-172.04375
 10
-8.99999999999998
 20
-172.04375
 10
-8.999999999999982
 20
-156.99375
 10
-23.68579145080334
 20
-156.99375
 42
0.8548305343634455
 10
-28.05000000000003
 20
-154.6810526669038
 10
-28.05000000000004
 20
-147.46875
 10
-43.09999999999992
 20
-147.46875
 10
-43.09999999999996
 20
-162.51875
  0
LINE
  5
103
330
1F
100
AcDbEntity
  8
0
 62
     1
100
AcDbLine
 10
-17.36327765094516
 20
-128.8507773344302
 30
0.0
 11
-6.64281970867644
 21
-118.1303193921615
 31
0.0
  0
ARC
  5
104
330
1F
100
AcDbEntity
  8
0
 62
     1
100
AcDbCircle
 10
-27.04999999999998
 20
-127.41875
 30
0.0
 40
0.9999999999999876
100
AcDbArc
 50
0.0
 51
90.0000000000004
  0
LINE
  5
105
330
1F
100
AcDbEntity
  8
0
 62
     1
100
AcDbLine
 10
-7.999999999999993
 20
-135.94375
 30
0.0
 11
-26.04999999999999
 21
-135.94375
 31
0.0
  0
LINE
  5
106
330
1F
100
AcDbEntity
  8
0
 62
     1
100
AcDbLine
 10
-5.698119032890112
 20
-19.85202988967285
 30
-0.0000000000000021
 11
-26.2658111163335
 21
-5.910543083157203
 31
-0.0000000000000021
  0
LINE
  5
107
330
1F
100
AcDbEntity
  8
0
 62
     1
100
AcDbLine
 10
-5.259202579956579
 20
-73.14954250863414
 30
-0.0000000000000021
 11
-5.259202579956543
 21
-20.67978906552736
 31
-0.0000000000000021
  0
LINE
  5
108
330
1F
100
AcDbEntity
  8
0
 62
     1
100
AcDbLine
 10
-63.5653177556653
 20
-97.88636946038628
 30
0.0
 11
-46.35493080102773
 21
-104.8788788947296
 31
0.0
  0
ARC
  5
109
330
1F
100
AcDbEntity
  8
0
 62
     1
100
AcDbCircle
 10
-6.259202579956593
 20
-73.14954250863414
 30
-0.0000000000000021
 40
0.9999999999999787
100
AcDbArc
 50
-90.0
 51
0.0
  0
CIRCLE
  5
110
330
1F
100
AcDbEntity
  8
0
 62
     1
100
AcDbCircle
 10
-21.25920257995659
 20
-17.14954250863426
 30
-0.0000000000000021
 40
0.9999999999999964
  0
CIRCLE
  5
111
330
1F
100
AcDbEntity
  8
0
 62
     1
100
AcDbCircle
 10
-9.38290847222988
 20
-109.8473459335603
 30
0.0
 40
2.5
  0
ARC
  5
112
330
1F
100
AcDbEntity
  8
0
 62
     1
100
AcDbCircle
 10
-23.25920257995662
 20
-73.14954250863418
 30
-0.0000000000000021
 40
1.000000000000014
100
AcDbArc
 50
180.0
 51
270.0
  0
ARC
  5
113
330
1F
100
AcDbEntity
  8
0
 62
     1
100
AcDbCircle
 10
-6.259202579956487
 20
-20.67978906552736
 30
-0.0000000000000021
 40
0.9999999999999432
100
AcDbArc
 50
0.0
 51
55.86923459177817
  0
LINE
  5
114
330
1F
100
AcDbEntity
  8
0
 62
     1
100
AcDbLine
 10
-57.2206019290543
 20
-81.93497214437043
 30
0.0
 11
-61.11582855784719
 21
-96.47215583002128
 31
0.0
  0
LINE
  5
115
330
1F
100
AcDbEntity
  8
0
 62
     1
100
AcDbLine
 10
-30.3000000000008
 20
-91.14954250863376
 30
0.0
 11
-30.30000000000082
 21
-37.14954250863377
 31
0.0
  0
LINE
  5
116
330
1F
100
AcDbEntity
  8
0
 62
     1
100
AcDbLine
 10
-7.069448840266039
 20
-106.8960064865848
 30
0.0
 11
-5.349591782933993
 21
-113.2974577816927
 31
0.0
  0
LINE
  5
117
330
1F
100
AcDbEntity
  8
0
 62
     1
100
AcDbLine
 10
-27.79264702973492
 20
-6.997767799918941
 30
-0.0000000000000021
 11
-24.25920257995656
 21
-20.1495425086343
 31
-0.0000000000000021
  0
LINE
  5
118
330
1F
100
AcDbEntity
  8
0
 62
     1
100
AcDbLine
 10
-6.259202579956593
 20
-74.14954250863413
 30
-0.0000000000000021
 11
-23.25920257995662
 21
-74.14954250863416
 31
-0.0000000000000021
  0
LINE
  5
119
330
1F
100
AcDbEntity
  8
0
 62
     1
100
AcDbLine
 10
-24.25920257995664
 20
-73.14954250863418
 30
-0.0000000000000021
 11
-24.25920257995656
 21
-20.1495425086343
 31
-0.0000000000000021
  0
LINE
  5
120
330
1F
100
AcDbEntity
  8
0
 62
     1
100
AcDbLine
 10
-18.07038443213177
 20
-105.4455428771556
 30
0.0
 11
-12.55709370740132
 21
-110.9588336018861
 31
0.0
  0
CIRCLE
  5
121
330
1F
100
AcDbEntity
  8
0
 62
     1
100
AcDbCircle
 10
-8.259202579956586
 20
-23.1495425086342
 30
-0.0000000000000021
 40
0.999999999999998
  0
ARC
  5
122
330
1F
100
AcDbEntity
  8
0
 62
     1
100
AcDbCircle
 10
-26.82689466339987
 20
-6.738302259011713
 30
-0.0000000000000021
 40
0.9999999999999609
100
AcDbArc
 50
55.86923459177817
 51
195.0383516051906
  0
LINE
  5
123
330
1F
100
AcDbEntity
  8
0
 62
     1
100
AcDbLine
 10
-12.55709370740132
 20
-110.9588336018861
 30
0.0
 11
-7.523703635454533
 21
-115.9922236738329
 31
0.0
  0
LWPOLYLINE
  5
124
330
1F
100
AcDbEntity
  8
0
 62
     1
100
AcDbPolyline
 90
        4
 70
     1
 43
0.0
 10
-127.5500000000004
 20
-57.1052500000001
 10
-127.5500000000004
 20
-72.15525000000008
 10
-142.6000000000004
 20
-72.15525000000008
 10
-142.6000000000004
 20
-57.1052500000001
  0
LINE
  5
125
330
1F
100
AcDbEntity
  8
0
 62
     1
100
AcDbLine
 10
-144.6000000000003
 20
-37.05525000000007
 30
0.0
 11
-144.6000000000003
 21
-73.15525000000007
 31
0.0
  0
CIRCLE
  5
126
330
1F
100
AcDbEntity
  8
0
 62
     1
100
AcDbCircle
 10
-142.2170915277704
 20
-100.2516540664398
 30
0.0
 40
2.5
  0
LINE
  5
127
330
1F
100
AcDbEntity
  8
0
 62
     1
100
AcDbLine
 10
-122.8876585110112
 20
-94.0115000659871
 30
0.0
 11
-133.5296155678685
 21
-104.6534571228445
 31
0.0
  0
LINE
  5
128
330
1F
100
AcDbEntity
  8
0
 62
     1
100
AcDbLine
 10
-144.5305511597343
 20
-103.2029935134153
 30
0.0
 11
-146.2504082170663
 21
-96.80154221830745
 31
0.0
  0
LINE
  5
129
330
1F
100
AcDbEntity
  8
0
 62
     1
100
AcDbLine
 10
-133.5296155678689
 20
-83.36954300912973
 30
0.0
 11
-143.5429667289508
 21
-93.3828941702117
 31
0.0
  0
LINE
  5
130
330
1F
100
AcDbEntity
  8
0
 62
     1
100
AcDbLine
 10
-120.0592313862662
 20
-94.01150006598596
 30
0.0
 11
-132.8225087866821
 21
-81.24822266556987
 31
0.0
  0
LWPOLYLINE
  5
131
330
1F
100
AcDbEntity
  8
0
 62
     1
100
AcDbPolyline
 90
       12
 70
     1
 43
0.0
 10
-104.5000000000004
 20
-65.01150000000037
 10
-89.44999999999123
 20
-65.01150000000008
 10
-89.44999999999123
 20
-60.74899999999948
 10
-89.44999999999801
 20
-50.65303101520716
 42
0.5000005960094915
 10
-85.44999999999729
 20
-50.65781502470431
 10
-85.45000000000023
 20
-60.24899999999589
 10
-70.4000000000102
 20
-60.24899999999975
 10
-70.40000000000659
 20
-45.19900000000368
 10
-85.44999999999561
 20
-45.19900000000048
 10
-85.44999999999635
 20
-47.65303697529708
 42
0.8531118572198737
 10
-89.81468961636568
 20
-49.96149999999906
 10
-104.5000000000006
 20
-49.96149999999992
  0
LINE
  5
132
330
1F
100
AcDbEntity
  8
0
 62
     1
100
AcDbLine
 10
-139.042906292599
 20
-99.14016639811402
 30
0.0
 11
-144.0762963645458
 21
-94.10677632616718
 31
0.0
  0
LINE
  5
133
330
1F
100
AcDbEntity
  8
0
 62
     1
100
AcDbLine
 10
-134.2367223490552
 20
-81.24822266556984
 30
0.0
 11
-144.9571802913239
 21
-91.96868060783856
 31
0.0
  0
LINE
  5
134
330
1F
100
AcDbEntity
  8
0
 62
     1
100
AcDbLine
 10
-122.8876585110112
 20
-94.0115000659871
 30
0.0
 11
-133.5296155678689
 21
-83.36954300912973
 31
0.0
  0
LINE
  5
135
330
1F
100
AcDbEntity
  8
0
 62
     1
100
AcDbLine
 10
-87.45000000000033
 20
-9.861499999998937
 30
0.0
 11
-105.5000000000004
 21
-9.861500000000039
 31
0.0
  0
LWPOLYLINE
  5
136
330
1F
100
AcDbEntity
  8
0
 62
     1
100
AcDbPolyline
 90
        4
 70
     1
 43
0.0
 10
-104.5000000000006
 20
-45.9615
 10
-89.45000000000114
 20
-45.96149999999908
 10
-89.45000000001123
 20
-30.9114999999999
 10
-104.5000000000008
 20
-30.91149999999997
  0
LINE
  5
137
330
1F
100
AcDbEntity
  8
0
 62
     1
100
AcDbLine
 10
-128.5358018247011
 20
-111.4608544465167
 30
0.0
 11
-121.0108018247012
 21
-98.42717211956116
 31
0.0
  0
LWPOLYLINE
  5
138
330
1F
100
AcDbEntity
  8
0
 62
     1
100
AcDbPolyline
 90
       10
 70
     1
 43
0.0
 10
-51.8494999499903
 20
-54.72400000000009
 42
-0.7131884663741935
 10
-47.35000000000032
 20
-53.2740000000001
 10
-47.35000000000032
 20
-40.43650000000001
 10
-32.3000000000014
 20
-40.43649999999984
 10
-32.30000000000122
 20
-55.48649999999986
 10
-46.95368120860383
 20
-55.48650000000008
 42
-0.6162346249322795
 10
-51.35000000000019
 20
-56.27400000000024
 10
-51.35000000000008
 20
-69.77400000000009
 10
-66.39999999999941
 20
-69.77400000000023
 10
-66.40000000000013
 20
-54.72400000000009
  0
LWPOLYLINE
  5
139
330
1F
100
AcDbEntity
  8
0
 62
     1
100
AcDbPolyline
 90
        4
 70
     1
 43
0.0
 10
-86.65092984575918
 20
-131.5625000000002
 10
-71.60092984575914
 20
-131.5625000000002
 10
-71.60092984575914
 20
-116.5125000000002
 10
-86.65092984575915
 20
-116.5125000000002
  0
LWPOLYLINE
  5
140
330
1F
100
AcDbEntity
  8
0
 62
     1
100
AcDbPolyline
 90
       12
 70
     1
 43
0.0
 10
-66.15000000000306
 20
-159.4411849752958
 42
-0.5000005960094915
 10
-62.15000000000234
 20
-159.4459689847929
 10
-62.15000000000909
 20
-149.3500000000006
 10
-62.15000000000909
 20
-145.0875
 10
-47.09999999999995
 20
-145.0874999999997
 10
-47.09999999999979
 20
-160.1375000000002
 10
-61.78531038363464
 20
-160.137500000001
 42
-0.8531118572198716
 10
-66.15000000000398
 20
-162.445963024703
 10
-66.15000000000474
 20
-164.8999999999996
 10
-81.19999999999374
 20
-164.8999999999964
 10
-81.19999999999013
 20
-149.8500000000003
 10
-66.15000000000012
 20
-149.8500000000042
  0
LWPOLYLINE
  5
141
330
1F
100
AcDbEntity
  8
0
 62
     1
100
AcDbPolyline
 90
        4
 70
     1
 43
0.0
 10
-51.34999999999997
 20
-50.72400000000002
 10
-51.35000000000031
 20
-35.67400000000005
 10
-66.40000000000033
 20
-35.67400000000005
 10
-66.40000000000033
 20
-50.72400000000009
  0
LWPOLYLINE
  5
142
330
1F
100
AcDbEntity
  8
0
 62
     1
100
AcDbPolyline
 90
        4
 70
     1
 43
0.0
 10
-70.40000000000593
 20
-41.19900000000369
 10
-70.40000000000273
 20
-26.14900000000366
 10
-85.44999999999384
 20
-26.14900000000054
 10
-85.44999999999436
 20
-41.1990000000005
  0
ARC
  5
143
330
1F
100
AcDbEntity
  8
0
 62
     1
100
AcDbCircle
 10
-124.5500000000004
 20
-27.53025000000006
 30
0.0
 40
1.000000000000014
100
AcDbArc
 50
90.0
 51
180.0
  0
LWPOLYLINE
  5
144
330
1F
100
AcDbEntity
  8
0
 62
     1
100
AcDbPolyline
 90
       12
 70
     1
 43
0.0
 10
-123.5500000000003
 20
-55.41794733309628
 10
-123.5500000000003
 20
-62.63025000000012
 10
-108.5000000000004
 20
-62.63025000000012
 10
-108.5000000000004
 20
-47.58025000000005
 10
-123.5500000000003
 20
-47.58025000000009
 10
-123.5500000000003
 20
-52.41790466690384
 42
0.5000000000474181
 10
-127.5500000000004
 20
-52.41794733357045
 10
-127.5500000000004
 20
-41.05525000000006
 10
-127.5500000000004
 20
-38.05525000000009
 10
-142.6000000000004
 20
-38.05525000000009
 10
-142.6000000000004
 20
-53.10525000000011
 10
-127.914208549197
 20
-53.10525000000011
 42
0.8548305343634458
  0
LINE
  5
145
330
1F
100
AcDbEntity
  8
0
 62
     1
100
AcDbLine
 10
-85.4499999999937
 20
-14.93647279999122
 30
0.0
 11
-85.4499999999937
 21
-22.14900000000069
 31
0.0
  0
LINE
  5
146
330
1F
100
AcDbEntity
  8
0
 62
     1
100
AcDbLine
 10
-68.40000000000033
 20
-14.62400000000008
 30
0.0
 11
-68.40000000000033
 21
-6.09900000000005
 31
0.0
  0
LWPOLYLINE
  5
147
330
1F
100
AcDbEntity
  8
0
 62
     1
100
AcDbPolyline
 90
       12
 70
     1
 43
0.0
 10
-47.35000000000032
 20
-24.46142200000007
 42
-0.500000000000044
 10
-51.35000000000056
 20
-24.46142199999974
 10
-51.3500000000004
 20
-31.67400000000006
 10
-66.40000000000126
 20
-31.67400000000006
 10
-66.40000000000013
 20
-16.62400000000003
 10
-51.35000000000073
 20
-16.62400000000003
 10
-51.35000000000066
 20
-21.46142200000046
 42
-0.50000000000006
 10
-47.35000000000034
 20
-21.46142199999998
 10
-47.35000000000034
 20
-21.38650000000004
 10
-32.30000000000192
 20
-21.38650000000004
 10
-32.30000000000145
 20
-36.43649999999953
 10
-47.35000000000032
 20
-36.4365
  0
LINE
  5
148
330
1F
100
AcDbEntity
  8
0
 62
     1
100
AcDbLine
 10
-89.44999999939036
 20
-11.93647279918677
 30
0.0
 11
-89.44999999938727
 21
-11.86150000000074
 31
0.0
  0
LINE
  5
149
330
1F
100
AcDbEntity
  8
0
 62
     1
100
AcDbLine
 10
-87.45000000000033
 20
-9.861499999998937
 30
0.0
 11
-87.45000000000033
 21
-6.099000000000085
 31
0.0
  0
LINE
  5
150
330
1F
100
AcDbEntity
  8
0
 62
     1
100
AcDbLine
 10
-70.39999999999887
 20
-7.099000000000029
 30
0.0
 11
-85.44999999999374
 21
-7.099000000000064
 31
0.0
  0
LINE
  5
151
330
1F
100
AcDbEntity
  8
0
 62
     1
100
AcDbLine
 10
-69.40000000000032
 20
-5.099000000000071
 30
0.0
 11
-86.45000000000032
 21
-5.099000000000071
 31
0.0
  0
LINE
  5
152
330
1F
100
AcDbEntity
  8
0
 62
     1
100
AcDbLine
 10
-108.9165817565964
 20
-124.2688012268364
 30
0.0
 11
-105.069990484421
 21
-109.9131271631262
 31
0.0
  0
LINE
  5
153
330
1F
100
AcDbEntity
  8
0
 62
     1
100
AcDbLine
 10
-89.45000000001389
 20
-26.91150000000013
 30
0.0
 11
-104.5000000000006
 21
-26.91150000000013
 31
0.0
  0
LINE
  5
154
330
1F
100
AcDbEntity
  8
0
 62
     1
100
AcDbLine
 10
-42.68341824340389
 20
-85.83019877316366
 30
0.0
 11
-46.53000951557938
 21
-100.1858728368739
 31
0.0
  0
LWPOLYLINE
  5
155
330
1F
100
AcDbEntity
  8
0
 62
     1
100
AcDbPolyline
 90
        4
 70
     1
 43
0.0
 10
-47.35000000000032
 20
-59.48650000000006
 10
-47.35000000000032
 20
-74.53650000000054
 10
-32.30000000000103
 20
-74.53650000000012
 10
-32.30000000000118
 20
-59.48650000000006
  0
LINE
  5
156
330
1F
100
AcDbEntity
  8
0
 62
     1
100
AcDbLine
 10
-104.8977069483779
 20
-109.7647489710088
 30
0.0
 11
-90.48417144215314
 21
-113.6268441699788
 31
0.0
  0
LINE
  5
157
330
1F
100
AcDbEntity
  8
0
 62
     1
100
AcDbLine
 10
-26.04999999999999
 20
-135.94375
 30
0.0
 11
-26.04999999999999
 21
-127.41875
 31
0.0
  0
LINE
  5
158
330
1F
100
AcDbEntity
  8
0
 62
     1
100
AcDbLine
 10
-28.05000000000006
 20
-128.41875
 30
0.0
 11
-28.05000000000005
 21
-143.46875
 31
0.0
  0
LINE
  5
159
330
1F
100
AcDbEntity
  8
0
 62
     1
100
AcDbLine
 10
-43.09999999999992
 20
-143.46875
 30
0.0
 11
-43.09999999999988
 21
-130.9187499999998
 31
0.0
  0
LINE
  5
160
330
1F
100
AcDbEntity
  8
0
 62
     1
100
AcDbLine
 10
-106.5000000000003
 20
-26.53025000000005
 30
0.0
 11
-124.5500000000004
 21
-26.53025000000005
 31
0.0
  0
LWPOLYLINE
  5
161
330
1F
100
AcDbEntity
  8
0
 62
     1
100
AcDbPolyline
 90
        4
 70
     1
 43
0.0
 10
-108.5000000000004
 20
-43.58025000000011
 10
-123.5500000000003
 20
-43.58025000000011
 10
-123.5500000000004
 20
-28.53025000000008
 10
-108.5000000000004
 20
-28.53025000000008
  0
LINE
  5
162
330
1F
100
AcDbEntity
  8
0
 62
     1
100
AcDbLine
 10
-125.5500000000004
 20
-27.53025000000006
 30
0.0
 11
-125.5500000000004
 21
-36.05525000000006
 31
0.0
  0
LWPOLYLINE
  5
163
330
1F
100
AcDbEntity
  8
0
 62
     1
100
AcDbPolyline
 90
       10
 70
     1
 43
0.0
 10
-85.20000000000019
 20
-155.375
 10
-85.20000000000093
 20
-140.3249999999999
 10
-100.2500000000003
 20
-140.325
 10
-100.2500000000001
 20
-153.8249999999998
 42
0.6162346249322771
 10
-104.6463187913965
 20
-154.6125
 10
-119.2999999999991
 20
-154.6125000000002
 10
-119.2999999999989
 20
-169.6625000000003
 10
-104.25
 20
-169.6625000000001
 10
-104.25
 20
-156.825
 42
0.7131884663741913
 10
-99.75050005001002
 20
-155.375
  0
LINE
  5
164
330
1F
100
AcDbEntity
  8
0
 62
     1
100
AcDbLine
 10
-94.37939807094602
 20
-128.1640278556297
 30
0.0
 11
-108.9165817565964
 21
-124.2688012268364
 31
0.0
  0
LWPOLYLINE
  5
165
330
1F
100
AcDbEntity
  8
0
 62
     1
100
AcDbPolyline
 90
        4
 70
     1
 43
0.0
 10
-104.25
 20
-135.5624999999995
 10
-119.2999999999993
 20
-135.5625
 10
-119.2999999999991
 20
-150.6125
 10
-104.25
 20
-150.6125
  0
ARC
  5
166
330
1F
100
AcDbEntity
  8
0
 62
     1
100
AcDbCircle
 10
-144.8334444497778
 20
-134.7976827826513
 30
0.0
 40
1.000000000000014
100
AcDbArc
 50
90.0
 51
180.0
  0
LINE
  5
167
330
1F
100
AcDbEntity
  8
0
 62
     1
100
AcDbLine
 10
-144.8334444497778
 20
-133.7976827826512
 30
0.0
 11
-127.8334444497778
 21
-133.7976827826512
 31
0.0
  0
LWPOLYLINE
  5
168
330
1F
100
AcDbEntity
  8
0
 62
     1
100
AcDbPolyline
 90
       12
 70
     1
 43
0.0
 10
-104.25
 20
-188.7125
 10
-104.25
 20
-188.6375780000001
 42
0.50000000000006
 10
-100.2499999999997
 20
-188.6375779999996
 10
-100.2499999999996
 20
-193.475
 10
-85.20000000000019
 20
-193.475
 10
-85.19999999999908
 20
-178.425
 10
-100.2499999999999
 20
-178.425
 10
-100.2499999999998
 20
-185.6375780000003
 42
0.500000000000044
 10
-104.25
 20
-185.637578
 10
-104.25
 20
-173.6625000000001
 10
-119.2999999999989
 20
-173.6625000000005
 10
-119.2999999999984
 20
-188.7125
  0
LWPOLYLINE
  5
169
330
1F
100
AcDbEntity
  8
0
 62
     1
100
AcDbPolyline
 90
        4
 70
     1
 43
0.0
 10
-81.19999999999439
 20
-168.8999999999964
 10
-81.1999999999976
 20
-183.9499999999964
 10
-66.1500000000065
 20
-183.9499999999995
 10
-66.15000000000596
 20
-168.8999999999996
  0
ARC
  5
170
330
1F
100
AcDbEntity
  8
0
 62
     1
100
AcDbCircle
 10
-127.8334444497778
 20
-134.7976827826513
 30
0.0
 40
1.000000000000014
100
AcDbArc
 50
0.0
 51
90.0
  0
LWPOLYLINE
  5
171
330
1F
100
AcDbEntity
  8
0
 62
     1
100
AcDbPolyline
 90
        4
 70
     1
 43
0.0
 10
-100.2500000000004
 20
-159.3750000000001
 10
-85.19999999999999
 20
-159.375
 10
-85.19999999999999
 20
-174.425
 10
-100.25
 20
-174.425
  0
LINE
  5
172
330
1F
100
AcDbEntity
  8
0
 62
     1
100
AcDbLine
 10
-23.06419817529927
 20
-98.63814555348333
 30
0.0
 11
-30.58919817529915
 21
-111.6718278804389
 31
0.0
  0
LINE
  5
173
330
1F
100
AcDbEntity
  8
0
 62
     1
100
AcDbLine
 10
-30.3000000000008
 20
-91.14954250863376
 30
0.0
 11
-7.069448840266039
 21
-106.8960064865848
 31
0.0
  0
ARC
  5
174
330
1F
100
AcDbEntity
  8
0
 62
     1
100
AcDbCircle
 10
-105.5000000000003
 20
-10.86150000000002
 30
0.0
 40
0.9999999999999787
100
AcDbArc
 50
90.00000000000408
 51
180.0
  0
LINE
  5
175
330
1F
100
AcDbEntity
  8
0
 62
     1
100
AcDbLine
 10
-28.71234148898915
 20
-116.087499934013
 30
0.0
 11
-18.07038443213177
 21
-105.4455428771556
 31
0.0
  0
LINE
  5
176
330
1F
100
AcDbEntity
  8
0
 62
     1
100
AcDbLine
 10
-36.09788050225497
 20
-91.1131455534832
 30
0.0
 11
-23.06419817529927
 21
-98.63814555348333
 31
0.0
  0
ARC
  5
177
330
1F
100
AcDbEntity
  8
0
 62
     1
100
AcDbCircle
 10
-44.98638643065511
 20
-102.1523996665126
 30
0.0
 40
2.500000000000002
100
AcDbArc
 50
-0.6004832671403496
 51
128.1301023541533
  0
LINE
  5
178
330
1F
100
AcDbEntity
  8
0
 62
     1
100
AcDbLine
 10
-46.70229305162248
 20
-100.3342510289913
 30
0.0
 11
-61.11582855784719
 21
-96.47215583002128
 31
0.0
  0
LINE
  5
179
330
1F
100
AcDbEntity
  8
0
 62
     1
100
AcDbLine
 10
-30.19968470832697
 20
-114.600156714675
 30
0.0
 11
-30.12655505136219
 21
-114.6732863716398
 31
0.0
  0
LINE
  5
180
330
1F
100
AcDbEntity
  8
0
 62
     1
100
AcDbLine
 10
-30.58919817529915
 20
-111.6718278804389
 30
0.0
 11
-43.54246553850051
 21
-104.1932554814097
 31
0.0
  0
LINE
  5
181
330
1F
100
AcDbEntity
  8
0
 62
     1
100
AcDbLine
 10
-36.09788050225497
 20
-91.1131455534832
 30
0.0
 11
-42.4865237281436
 21
-102.178600212153
 31
0.0
  0
ARC
  5
182
330
1F
100
AcDbEntity
  8
0
 62
     1
100
AcDbCircle
 10
-44.98638643065511
 20
-102.1523996665126
 30
0.0
 40
2.500000000000018
100
AcDbArc
 50
133.3428661728792
 51
305.2796949318575
  0
LWPOLYLINE
  5
183
330
1F
100
AcDbEntity
  8
0
 62
     1
100
AcDbPolyline
 90
        4
 70
     1
 43
0.0
 10
-64.94907015424116
 20
-78.53649999999986
 10
-79.9990701542412
 20
-78.53649999999986
 10
-79.99907015424118
 20
-93.58649999999984
 10
-64.94907015424117
 20
-93.58649999999989
  0
LINE
  5
184
330
1F
100
AcDbEntity
  8
0
 62
     1
100
AcDbLine
 10
-69.60092984575914
 20
-114.5125000000002
 30
0.0
 11
-88.03468169937005
 21
-112.2126306076059
 31
0.0
  0
LINE
  5
185
330
1F
100
AcDbEntity
  8
0
 62
     1
100
AcDbLine
 10
-57.2206019290543
 20
-81.93497214437043
 30
0.0
 11
-42.68341824340389
 21
-85.83019877316366
 31
0.0
  0
LINE
  5
186
330
1F
100
AcDbEntity
  8
0
 62
     1
100
AcDbLine
 10
-81.9990701542412
 20
-95.58649999999987
 30
0.0
 11
-63.56531830063027
 21
-97.88636939239423
 31
0.0
  0
LINE
  5
187
330
1F
100
AcDbEntity
  8
0
 62
     1
100
AcDbLine
 10
-121.0108018247012
 20
-98.42717211956116
 30
0.0
 11
-108.0575344614998
 21
-105.9057445185904
 31
0.0
  0
LINE
  5
188
330
1F
100
AcDbEntity
  8
0
 62
     1
100
AcDbLine
 10
-133.5296155678685
 20
-104.6534571228445
 30
0.0
 11
-139.042906292599
 21
-99.14016639811402
 31
0.0
  0
ARC
  5
189
330
1F
100
AcDbEntity
  8
0
 62
     1
100
AcDbCircle
 10
-141.4216463853912
 20
-95.5042145137713
 30
0.0
 40
4.999999999999952
100
AcDbArc
 50
134.9999999999993
 51
195.038351605191
  0
LINE
  5
190
330
1F
100
AcDbEntity
  8
0
 62
     1
100
AcDbLine
 10
-105.2450686901767
 20
-105.2201213119922
 30
0.0
 11
-120.0592313862648
 21
-94.01150006598697
 31
0.0
  0
ARC
  5
191
330
1F
100
AcDbEntity
  8
0
 62
     1
100
AcDbCircle
 10
-141.4216463853912
 20
-95.5042145137713
 30
0.0
 40
2.999999999999944
100
AcDbArc
 50
135.0
 51
152.2371668248624
  0
LINE
  5
192
330
1F
100
AcDbEntity
  8
0
 62
     1
100
AcDbLine
 10
-31.30000000000027
 20
-19.38650000000008
 30
0.0
 11
-49.35000000000031
 21
-19.38650000000008
 31
0.0
  0
ARC
  5
193
330
1F
100
AcDbEntity
  8
0
 62
     1
100
AcDbCircle
 10
-50.35000000000026
 20
-15.62400000000006
 30
0.0
 40
0.9999999999999964
100
AcDbArc
 50
0.0
 51
90.0
  0
ARC
  5
194
330
1F
100
AcDbEntity
  8
0
 62
     1
100
AcDbCircle
 10
-31.30000000000027
 20
-20.38650000000002
 30
0.0
 40
0.9999999999999787
100
AcDbArc
 50
0.0
 51
90.0
  0
LINE
  5
195
330
1F
100
AcDbEntity
  8
0
 62
     1
100
AcDbLine
 10
-89.45000000001389
 20
-26.91150000000013
 30
0.0
 11
-89.44999999951527
 21
-14.9364728006468
 31
0.0
  0
LINE
  5
196
330
1F
100
AcDbEntity
  8
0
 62
     1
100
AcDbLine
 10
-50.35000000000026
 20
-14.62400000000008
 30
0.0
 11
-68.40000000000033
 21
-14.62400000000008
 31
0.0
  0
ARC
  5
197
330
1F
100
AcDbEntity
  8
0
 62
     1
100
AcDbCircle
 10
-82.2
 20
-204.0
 30
0.0
 40
0.9999999999999964
100
AcDbArc
 50
180.0
 51
270.0
  0
LINE
  5
198
330
1F
100
AcDbEntity
  8
0
 62
     1
100
AcDbLine
 10
-101.2500000000001
 20
-195.475
 30
0.0
 11
-83.2
 21
-195.475
 31
0.0
  0
ARC
  5
199
330
1F
100
AcDbEntity
  8
0
 62
     1
100
AcDbCircle
 10
-101.2500000000001
 20
-194.475
 30
0.0
 40
0.9999999999999964
100
AcDbArc
 50
180.0
 51
270.0
  0
LINE
  5
200
330
1F
100
AcDbEntity
  8
0
 62
     1
100
AcDbLine
 10
-83.2
 20
-195.475
 30
0.0
 11
-83.2
 21
-204.0
 31
0.0
  0
LINE
  5
201
330
1F
100
AcDbEntity
  8
0
 62
     1
100
AcDbLine
 10
-81.20000000000147
 20
-203.0000000000001
 30
0.0
 11
-81.19999999999841
 21
-187.9499999999964
 31
0.0
  0
LINE
  5
202
330
1F
100
AcDbEntity
  8
0
 62
     1
100
AcDbLine
 10
-102.25
 20
-190.7125
 30
0.0
 11
-102.2500000000001
 21
-194.475
 31
0.0
  0
CIRCLE
  5
203
330
1F
100
AcDbEntity
  8
0
 62
     1
100
AcDbCircle
 10
-142.8334444497778
 20
-184.7976827826512
 30
0.0
 40
0.999999999999998
  0
ARC
  5
204
330
1F
100
AcDbEntity
  8
0
 62
     1
100
AcDbCircle
 10
-120.3000000000001
 20
-189.7125
 30
0.0
 40
0.9999999999999787
100
AcDbArc
 50
180.0
 51
270.0
  0
LINE
  5
205
330
1F
100
AcDbEntity
  8
0
 62
     1
100
AcDbLine
 10
-145.3945279968442
 20
-188.0951954016126
 30
0.0
 11
-124.8268359134009
 21
-202.0366822081282
 31
0.0
  0
LINE
  5
206
330
1F
100
AcDbEntity
  8
0
 62
     1
100
AcDbLine
 10
-123.2999999999995
 20
-200.9494574913664
 30
0.0
 11
-126.8334444497778
 21
-187.7976827826511
 31
0.0
  0
CIRCLE
  5
207
330
1F
100
AcDbEntity
  8
0
 62
     1
100
AcDbCircle
 10
-129.8334444497778
 20
-190.7976827826512
 30
0.0
 40
0.9999999999999964
  0
ARC
  5
208
330
1F
100
AcDbEntity
  8
0
 62
     1
100
AcDbCircle
 10
-144.8334444497778
 20
-187.2674362257581
 30
0.0
 40
0.9999999999999432
100
AcDbArc
 50
180.0
 51
235.8692345917768
  0
ARC
  5
209
330
1F
100
AcDbEntity
  8
0
 62
     1
100
AcDbCircle
 10
-124.2657523663345
 20
-201.2089230322737
 30
0.0
 40
0.9999999999999903
100
AcDbArc
 50
-124.13076540822
 51
15.03835160519059
  0
LINE
  5
210
330
1F
100
AcDbEntity
  8
0
 62
     1
100
AcDbLine
 10
-121.3000000000006
 20
-172.9494574913663
 30
0.0
 11
-121.3
 21
-189.7125
 31
0.0
  0
LINE
  5
211
330
1F
100
AcDbEntity
  8
0
 62
     1
100
AcDbLine
 10
-120.3000000000001
 20
-190.7125
 30
0.0
 11
-102.25
 21
-190.7125
 31
0.0
  0
LINE
  5
212
330
1F
100
AcDbEntity
  8
0
 62
     1
100
AcDbLine
 10
-121.2999999999995
 20
-118.9494574913663
 30
0.0
 11
-121.2999999999995
 21
-172.9494574913663
 31
0.0
  0
LINE
  5
213
330
1F
100
AcDbEntity
  8
0
 62
     1
100
AcDbLine
 10
-145.8334444497777
 20
-134.7976827826513
 30
0.0
 11
-145.8334444497777
 21
-187.2674362257581
 31
0.0
  0
LINE
  5
214
330
1F
100
AcDbEntity
  8
0
 62
     1
100
AcDbLine
 10
-126.8334444497778
 20
-134.7976827826513
 30
0.0
 11
-126.8334444497778
 21
-187.7976827826512
 31
0.0
  0
LINE
  5
215
330
1F
100
AcDbEntity
  8
0
 62
     1
100
AcDbLine
 10
-82.2
 20
-205.0
 30
0.0
 11
-65.14999999999999
 21
-205.0
 31
0.0
  0
LINE
  5
216
330
1F
100
AcDbEntity
  8
0
 62
     1
100
AcDbLine
 10
-81.19999999999841
 20
-187.9499999999964
 30
0.0
 11
-66.15000000000664
 21
-187.9499999999994
 31
0.0
  0
LINE
  5
217
330
1F
100
AcDbEntity
  8
0
 62
     1
100
AcDbLine
 10
-81.20000000000147
 20
-203.0000000000001
 30
0.0
 11
-66.15000000000661
 21
-203.0
 31
0.0
  0
LINE
  5
218
330
1F
100
AcDbEntity
  8
0
 62
     1
100
AcDbLine
 10
-31.54076861373414
 20
-116.0874999340142
 30
0.0
 11
-18.77749121331824
 21
-128.8507773344302
 31
0.0
  0
LINE
  5
219
330
1F
100
AcDbEntity
  8
0
 62
     1
100
AcDbLine
 10
-115.5021194977454
 20
-118.9858544465169
 30
0.0
 11
-128.5358018247011
 21
-111.4608544465167
 31
0.0
  0
ARC
  5
220
330
1F
100
AcDbEntity
  8
0
 62
     1
100
AcDbCircle
 10
-10.17835361460912
 20
-114.5947854862288
 30
0.0
 40
2.999999999999944
100
AcDbArc
 50
315.0
 51
332.2371668248633
  0
LINE
  5
221
330
1F
100
AcDbEntity
  8
0
 62
     1
100
AcDbLine
 10
-28.71234148898915
 20
-116.087499934013
 30
0.0
 11
-18.07038443213148
 21
-126.7294569908704
 31
0.0
  0
LINE
  5
222
330
1F
100
AcDbEntity
  8
0
 62
     1
100
AcDbLine
 10
-121.2999999999995
 20
-118.9494574913663
 30
0.0
 11
-144.5305511597343
 21
-103.2029935134153
 31
0.0
  0
LINE
  5
223
330
1F
100
AcDbEntity
  8
0
 62
     1
100
AcDbLine
 10
-45.10000000000001
 20
-126.41875
 30
0.0
 11
-69.60092984575914
 21
-114.5125000000002
 31
0.0
  0
ARC
  5
224
330
1F
100
AcDbEntity
  8
0
 62
     1
100
AcDbCircle
 10
-10.17835361460912
 20
-114.5947854862288
 30
0.0
 40
4.999999999999927
100
AcDbArc
 50
-45.00000000000015
 51
15.03835160519101
  0
LINE
  5
225
330
1F
100
AcDbEntity
  8
0
 62
     1
100
AcDbLine
 10
-0.0000000000000089
 20
-210.0000000000001
 30
0.0
 11
0.0000000000000266
 21
-0.0000000000000711
 31
0.0
  0
LINE
  5
226
330
1F
100
AcDbEntity
  8
0
 62
     1
100
AcDbLine
 10
-94.37939807094602
 20
-128.1640278556297
 30
0.0
 11
-90.48417144215314
 21
-113.6268441699788
 31
0.0
  0
LINE
  5
227
330
1F
100
AcDbEntity
  8
0
 62
     1
100
AcDbLine
 10
-115.5021194977454
 20
-118.9858544465169
 30
0.0
 11
-109.1134762718567
 21
-107.9203997878471
 31
0.0
  0
LINE
  5
228
330
1F
100
AcDbEntity
  8
0
 62
     1
100
AcDbLine
 10
-46.35493130982368
 20
-104.8788786880079
 30
0.0
 11
-31.54076861373551
 21
-116.0874999340131
 31
0.0
  0
LINE
  5
229
330
1F
100
AcDbEntity
  8
0
 62
     1
100
AcDbLine
 10
-85.44999999999374
 20
-7.099000000000064
 30
0.0
 11
-85.4499999999937
 21
-11.93647280000887
 31
0.0
  0
LINE
  5
230
330
1F
100
AcDbEntity
  8
0
 62
     1
100
AcDbLine
 10
-70.39999999999887
 20
-7.099000000000029
 30
0.0
 11
-70.40000000000192
 21
-22.14900000000368
 31
0.0
  0
ARC
  5
231
330
1F
100
AcDbEntity
  8
0
 62
     1
100
AcDbCircle
 10
-69.40000000000032
 20
-6.09900000000005
 30
0.0
 40
0.9999999999999964
100
AcDbArc
 50
0.0
 51
90.0
  0
ARC
  5
232
330
1F
100
AcDbEntity
  8
0
 62
     1
100
AcDbCircle
 10
-87.45000000000033
 20
-13.43647280000004
 30
0.0
 40
2.500000000000014
100
AcDbArc
 50
36.86989764559097
 51
143.1301023308572
  0
LINE
  5
233
330
1F
100
AcDbEntity
  8
0
 62
     1
100
AcDbLine
 10
-70.40000000000192
 20
-22.14900000000368
 30
0.0
 11
-85.4499999999937
 21
-22.14900000000069
 31
0.0
  0
ARC
  5
234
330
1F
100
AcDbEntity
  8
0
 62
     1
100
AcDbCircle
 10
-46.1
 20
-199.2375000000001
 30
0.0
 40
0.9999999999999787
100
AcDbArc
 50
-89.99999999999594
 51
0.0
  0
LWPOLYLINE
  5
235
330
1F
100
AcDbEntity
  8
0
 62
     1
100
AcDbPolyline
 90
        4
 70
     1
 43
0.0
 10
-47.09999999999974
 20
-164.1375000000001
 10
-62.1499999999992
 20
-164.137500000001
 10
-62.14999999998912
 20
-179.1875000000002
 10
-47.09999999999957
 20
-179.1875000000001
  0
LINE
  5
236
330
1F
100
AcDbEntity
  8
0
 62
     1
100
AcDbLine
 10
-64.15
 20
-200.2375000000011
 30
0.0
 11
-64.15
 21
-204.0
 31
0.0
  0
LINE
  5
237
330
1F
100
AcDbEntity
  8
0
 62
     1
100
AcDbLine
 10
-66.15000000000661
 20
-203.0
 30
0.0
 11
-66.15000000000661
 21
-198.1625271999912
 31
0.0
  0
LINE
  5
238
330
1F
100
AcDbEntity
  8
0
 62
     1
100
AcDbLine
 10
-62.14999999998643
 20
-183.1874999999999
 30
0.0
 11
-62.15000000048504
 21
-195.1625271993533
 31
0.0
  0
ARC
  5
239
330
1F
100
AcDbEntity
  8
0
 62
     1
100
AcDbCircle
 10
-64.14999999999999
 20
-196.6625272
 30
0.0
 40
2.500000000000014
100
AcDbArc
 50
36.86989766437216
 51
143.1301023544093
  0
LINE
  5
240
330
1F
100
AcDbEntity
  8
0
 62
     1
100
AcDbLine
 10
-66.15000000000663
 20
-195.1625272000089
 30
0.0
 11
-66.15000000000664
 21
-187.9499999999994
 31
0.0
  0
LINE
  5
241
330
1F
100
AcDbEntity
  8
0
 62
     1
100
AcDbLine
 10
-62.15000000061308
 20
-198.2374999999993
 30
0.0
 11
-47.09999999999973
 21
-198.2374999999999
 31
0.0
  0
LINE
  5
242
330
1F
100
AcDbEntity
  8
0
 62
     1
100
AcDbLine
 10
-62.15000000060996
 20
-198.1625272008133
 30
0.0
 11
-62.15000000061308
 21
-198.2374999999993
 31
0.0
  0
ARC
  5
243
330
1F
100
AcDbEntity
  8
0
 62
     1
100
AcDbCircle
 10
-64.14999999999999
 20
-196.6625272
 30
0.0
 40
2.500000000000007
100
AcDbArc
 50
216.8698976455909
 51
323.130102330857
  0
LINE
  5
244
330
1F
100
AcDbEntity
  8
0
 62
     1
100
AcDbLine
 10
-64.15
 20
-200.2375000000011
 30
0.0
 11
-46.09999999999993
 21
-200.2375
 31
0.0
  0
LINE
  5
245
330
1F
100
AcDbEntity
  8
0
 62
     1
100
AcDbLine
 10
-47.09999999999973
 20
-198.2374999999999
 30
0.0
 11
-47.09999999999973
 21
-183.1874999999999
 31
0.0
  0
ARC
  5
246
330
1F
100
AcDbEntity
  8
0
 62
     1
100
AcDbCircle
 10
-65.14999999999999
 20
-204.0
 30
0.0
 40
1.000000000000014
100
AcDbArc
 50
-90.0
 51
0.0
  0
LINE
  5
247
330
1F
100
AcDbEntity
  8
0
 62
     1
100
AcDbLine
 10
-45.09999999999999
 20
-199.2375000000001
 30
0.0
 11
-45.09999999999999
 21
-183.56875
 31
0.0
  0
ARC
  5
248
330
1F
100
AcDbEntity
  8
0
 62
     1
100
AcDbCircle
 10
-45.10000000000001
 20
-129.41875
 30
0.0
 40
2.500000000000001
100
AcDbArc
 50
23.57817847820179
 51
323.1301023541608
  0
LINE
  5
249
330
1F
100
AcDbEntity
  8
0
 62
     1
100
AcDbLine
 10
-106.5000000000003
 20
-83.68025000000004
 30
0.0
 11
-81.9990701542412
 21
-95.58649999999987
 31
0.0
  0
LINE
  5
250
330
1F
100
AcDbEntity
  8
0
 62
     1
100
AcDbLine
 10
-89.44999999938727
 20
-11.86150000000074
 30
0.0
 11
-104.5000000000006
 21
-11.86150000000021
 31
0.0
  0
LINE
  5
251
330
1F
100
AcDbEntity
  8
0
 62
     1
100
AcDbLine
 10
-88.03468224433503
 20
-112.2126305396138
 30
0.0
 11
-105.2450691989726
 21
-105.2201211052705
 31
0.0
  0
LINE
  5
252
330
1F
100
AcDbEntity
  8
0
 62
     1
100
AcDbLine
 10
-28.05000000000005
 20
-143.46875
 30
0.0
 11
-43.09999999999992
 21
-143.46875
 31
0.0
  0
LINE
  5
253
330
1F
100
AcDbEntity
  8
0
 62
     1
100
AcDbLine
 10
-62.14999999998643
 20
-183.1874999999999
 30
0.0
 11
-47.09999999999973
 21
-183.1874999999999
 31
0.0
  0
LINE
  5
254
330
1F
100
AcDbEntity
  8
0
 62
     1
100
AcDbLine
 10
-49.35000000000031
 20
-19.38650000000008
 30
0.0
 11
-49.35000000000026
 21
-15.62400000000009
 31
0.0
  0
LINE
  5
255
330
1F
100
AcDbEntity
  8
0
 62
     1
100
AcDbLine
 10
-6.999999999999991
 20
-173.04375
 30
0.0
 11
-6.999999999999993
 21
-136.94375
 31
0.0
  0
LINE
  5
256
330
1F
100
AcDbEntity
  8
0
 62
     1
100
AcDbLine
 10
-30.29999999999977
 20
-37.14954250863377
 30
0.0
 11
-30.30000000000029
 21
-20.38650000000002
 31
0.0
  0
ARC
  5
257
330
1F
100
AcDbEntity
  8
0
 62
     1
100
AcDbCircle
 10
-45.10000000000001
 20
-129.41875
 30
0.0
 40
2.500000000000001
100
AcDbArc
 50
23.57817847820179
 51
76.08161800272896
  0
ARC
  5
258
330
1F
100
AcDbEntity
  8
0
 62
     1
100
AcDbCircle
 10
-86.45000000000032
 20
-6.099000000000085
 30
0.0
 40
1.000000000000014
100
AcDbArc
 50
90.0
 51
180.0
  0
ARC
  5
259
330
1F
100
AcDbEntity
  8
0
 62
     1
100
AcDbCircle
 10
-87.45000000000033
 20
-13.43647280000004
 30
0.0
 40
2.500000000000007
100
AcDbArc
 50
216.8698976643721
 51
323.1301023544091
  0
ARC
  5
260
330
1F
100
AcDbEntity
  8
0
 62
     1
100
AcDbCircle
 10
-27.04999999999994
 20
-182.56875
 30
0.0
 40
1.000000000000014
100
AcDbArc
 50
-90.00000000000082
 51
0.0
  0
LINE
  5
261
330
1F
100
AcDbEntity
  8
0
 62
     1
100
AcDbLine
 10
-26.04999999999996
 20
-182.56875
 30
0.0
 11
-26.04999999999998
 21
-174.04375
 31
0.0
  0
ARC
  5
262
330
1F
100
AcDbEntity
  8
0
 62
     1
100
AcDbCircle
 10
-7.999999999999981
 20
-173.04375
 30
0.0
 40
1.000000000000014
100
AcDbArc
 50
-90.00000000000045
 51
0.0
  0
LWPOLYLINE
  5
263
330
1F
100
AcDbEntity
  8
0
 62
     1
100
AcDbPolyline
 90
        4
 70
     1
 43
0.0
 10
-28.05000000000001
 20
-166.51875
 10
-28.04999999999996
 20
-181.56875
 10
-43.09999999999995
 20
-181.56875
 10
-43.09999999999997
 20
-166.51875
  0
LINE
  5
264
330
1F
100
AcDbEntity
  8
0
 62
     1
100
AcDbLine
 10
-26.04999999999998
 20
-174.04375
 30
0.0
 11
-7.999999999999989
 21
-174.04375
 31
0.0
  0
LINE
  5
265
330
1F
100
AcDbEntity
  8
0
 62
     1
100
AcDbLine
 10
-45.09999999999999
 20
-183.56875
 30
0.0
 11
-27.04999999999995
 21
-183.56875
 31
0.0
  0
ARC
  5
266
330
1F
100
AcDbEntity
  8
0
 62
     1
100
AcDbCircle
 10
-106.6136135693452
 20
-107.9466003334875
 30
0.0
 40
2.500000000000005
100
AcDbArc
 50
-46.65713382712063
 51
125.2796949318576
  0
ARC
  5
267
330
1F
100
AcDbEntity
  8
0
 62
     1
100
AcDbCircle
 10
-124.5500000000003
 20
-82.68025000000007
 30
0.0
 40
1.000000000000014
100
AcDbArc
 50
180.0
 51
270.0
  0
LINE
  5
268
330
1F
100
AcDbEntity
  8
0
 62
     1
100
AcDbLine
 10
-121.4003152916734
 20
-95.49884328532508
 30
0.0
 11
-121.4734449486381
 21
-95.4257136283603
 31
0.0
  0
ARC
  5
269
330
1F
100
AcDbEntity
  8
0
 62
     1
100
AcDbCircle
 10
-106.6136135693452
 20
-107.9466003334875
 30
0.0
 40
2.500000000000002
100
AcDbArc
 50
179.3995167328597
 51
308.1301023541533
  0
ARC
  5
270
330
1F
100
AcDbEntity
  8
0
 62
     1
100
AcDbCircle
 10
-133.5296155678686
 20
-81.95532944675637
 30
0.0
 40
0.9999999999999729
100
AcDbArc
 50
44.99999999999886
 51
135.0000000000012
  0
ARC
  5
271
330
1F
100
AcDbEntity
  8
0
 62
     1
100
AcDbCircle
 10
-143.6000000000003
 20
-73.15525000000007
 30
0.0
 40
1.000000000000014
100
AcDbArc
 50
180.0
 51
270.0
  0
LINE
  5
272
330
1F
100
AcDbEntity
  8
0
 62
     1
100
AcDbLine
 10
-125.5500000000004
 20
-74.15525000000008
 30
0.0
 11
-125.5500000000004
 21
-82.68025000000007
 31
0.0
  0
LINE
  5
273
330
1F
100
AcDbEntity
  8
0
 62
     1
100
AcDbLine
 10
-143.6000000000003
 20
-74.15525000000008
 30
0.0
 11
-125.5500000000004
 21
-74.15525000000008
 31
0.0
  0
ARC
  5
274
330
1F
100
AcDbEntity
  8
0
 62
     1
100
AcDbCircle
 10
-143.6000000000003
 20
-37.05525000000007
 30
0.0
 40
1.000000000000014
100
AcDbArc
 50
90.0
 51
180.0
  0
LINE
  5
275
330
1F
100
AcDbEntity
  8
0
 62
     1
100
AcDbLine
 10
-104.5000000000006
 20
-11.86150000000021
 30
0.0
 11
-104.5000000000006
 21
-26.91150000000013
 31
0.0
  0
LINE
  5
276
330
1F
100
AcDbEntity
  8
0
 62
     1
100
AcDbLine
 10
-106.5000000000003
 20
-10.86150000000002
 30
0.0
 11
-106.5000000000003
 21
-26.53025000000005
 31
0.0
  0
LINE
  5
277
330
1F
100
AcDbEntity
  8
0
 62
     1
100
AcDbLine
 10
-125.5500000000004
 20
-36.05525000000006
 30
0.0
 11
-143.6000000000003
 21
-36.05525000000006
 31
0.0
  0
LINE
  5
278
330
1F
100
AcDbEntity
  8
0
 62
     1
100
AcDbLine
 10
-123.5500000000003
 20
-81.68025000000006
 30
0.0
 11
-123.5500000000003
 21
-66.6302500000001
 31
0.0
  0
ARC
  5
279
330
1F
100
AcDbEntity
  8
0
 62
     1
100
AcDbCircle
 10
-106.5000000000003
 20
-80.68025000000004
 30
0.0
 40
2.499999999999984
100
AcDbArc
 50
203.5781784782024
 51
256.0816180027296
  0
LINE
  5
280
330
1F
100
AcDbEntity
  8
0
 62
     1
100
AcDbLine
 10
-108.5000000000004
 20
-66.63025000000003
 30
0.0
 11
-108.5000000000004
 21
-79.18025000000023
 31
0.0
  0
LINE
  5
281
330
1F
100
AcDbEntity
  8
0
 62
     1
100
AcDbLine
 10
-123.5500000000003
 20
-66.6302500000001
 30
0.0
 11
-108.5000000000004
 21
-66.63025000000003
 31
0.0
  0
LINE
  5
282
330
1F
100
AcDbEntity
  8
0
 62
     1
100
AcDbLine
 10
-123.5500000000003
 20
-81.68025000000006
 30
0.0
 11
-108.7912878474782
 21
-81.68025000000006
 31
0.0
  0
LINE
  5
283
330
1F
100
AcDbEntity
  8
0
 62
     1
100
AcDbLine
 10
-124.5500000000003
 20
-83.68025000000009
 30
0.0
 11
-106.5000000000003
 21
-83.68025000000004
 31
0.0
  0
ARC
  5
284
330
1F
100
AcDbEntity
  8
0
 62
     1
100
AcDbCircle
 10
-106.5000000000003
 20
-80.68025000000004
 30
0.0
 40
2.499999999999984
100
AcDbArc
 50
-156.4218215217976
 51
143.1301023541608
  0
LINE
  5
285
330
1F
100
AcDbEntity
  8
0
 62
     1
100
AcDbLine
 10
-18.07038443213148
 20
-126.7294569908704
 30
0.0
 11
-8.057033271049514
 21
-116.7161058297884
 31
0.0
  0
LINE
  5
286
330
1F
100
AcDbEntity
  8
0
 62
     1
100
AcDbLine
 10
-28.05000000000006
 20
-128.41875
 30
0.0
 11
-42.80871215252208
 21
-128.41875
 31
0.0
  0
LINE
  5
287
330
1F
100
AcDbEntity
  8
0
 62
     1
100
AcDbLine
 10
-27.04999999999999
 20
-126.41875
 30
0.0
 11
-45.10000000000001
 21
-126.41875
 31
0.0
  0
ARC
  5
288
330
1F
100
AcDbEntity
  8
0
 62
     1
100
AcDbCircle
 10
-7.999999999999988
 20
-136.94375
 30
0.0
 40
0.9999999999999942
100
AcDbArc
 50
0.0
 51
90.0000000000003
  0
LINE
  5
289
330
1F
100
AcDbEntity
  8
0
 62
     1
100
AcDbLine
 10
0.0
 20
0.0
 30
0.0
 11
-297.0
 21
0.0000000000000502
 31
0.0
  0
LINE
  5
290
330
1F
100
AcDbEntity
  8
0
 62
     1
100
AcDbLine
 10
-152.5
 20
-37.05525000000007
 30
0.0000000000000089
 11
-152.5
 21
-73.15525000000007
 31
0.0000000000000089
  0
LWPOLYLINE
  5
291
330
1F
100
AcDbEntity
  8
0
 62
     1
100
AcDbPolyline
 90
        4
 70
     1
 43
0.0
 10
-230.7
 20
-35.67400000000005
 10
-245.75
 20
-35.67400000000005
 10
-245.7500000000003
 20
-50.72400000000002
 10
-230.7
 20
-50.72400000000009
  0
LINE
  5
292
330
1F
100
AcDbEntity
  8
0
 62
     1
100
AcDbLine
 10
-290.3000000000004
 20
-74.1495425086338
 30
0.0
 11
-273.3000000000004
 21
-74.1495425086338
 31
-0.0000000000000021
  0
LINE
  5
293
330
1F
100
AcDbEntity
  8
0
 62
     1
100
AcDbLine
 10
-192.2022930516225
 20
-109.7647489710088
 30
0.0000000000000044
 11
-206.6158285578472
 21
-113.6268441699788
 31
0.0000000000000022
  0
LINE
  5
294
330
1F
100
AcDbEntity
  8
0
 62
     1
100
AcDbLine
 10
-227.7
 20
-5.099000000000071
 30
0.0
 11
-210.65
 21
-5.099000000000071
 31
0.0000000000000022
  0
LINE
  5
295
330
1F
100
AcDbEntity
  8
0
 62
     1
100
AcDbLine
 10
-190.6
 20
-10.86150000000002
 30
0.0000000000000044
 11
-190.6
 21
-26.53025000000005
 31
0.0000000000000044
  0
CIRCLE
  5
296
330
1F
100
AcDbEntity
  8
0
 62
     1
100
AcDbCircle
 10
153.8334444497778
 20
-184.7976827826512
 30
-0.0000000000000188
 40
0.999999999999998
210
1.224646799147353E-16
220
0.0
230
-1.0
  0
LWPOLYLINE
  5
297
330
1F
100
AcDbEntity
  8
0
 62
     1
100
AcDbPolyline
 90
       12
 70
     1
 43
0.0
 10
-226.6999999999937
 20
-45.19900000000368
 10
-211.6500000000047
 20
-45.19900000000048
 10
-211.650000000004
 20
-47.65303697529708
 42
-0.8531118572198737
 10
-207.2853103836346
 20
-49.96149999999906
 10
-192.5999999999998
 20
-49.96149999999992
 10
-192.5999999999999
 20
-65.01150000000037
 10
-207.6500000000091
 20
-65.01150000000008
 10
-207.6500000000091
 20
-60.74899999999948
 10
-207.6500000000023
 20
-50.65303101520716
 42
-0.5000005960094941
 10
-211.650000000003
 20
-50.65781502470431
 10
-211.6500000000001
 20
-60.24899999999589
 10
-226.6999999999901
 20
-60.24899999999975
  0
LINE
  5
298
330
1F
100
AcDbEntity
  8
0
 62
     1
100
AcDbLine
 10
-269.0500000000002
 20
-128.41875
 30
-0.0000000000000044
 11
-254.2912878474783
 21
-128.41875
 31
-0.0000000000000044
  0
ARC
  5
299
330
1F
100
AcDbEntity
  8
0
 62
     1
100
AcDbCircle
 10
252.0000000000003
 20
-129.41875
 30
-0.0000000000000063
 40
2.500000000000009
210
1.959434878635737E-17
220
4.489629325342476E-17
230
-1.0
100
AcDbArc
 50
23.5781784782016
 51
323.1301023541602
  0
LWPOLYLINE
  5
300
330
1F
100
AcDbEntity
  8
0
 62
     1
100
AcDbPolyline
 90
        4
 70
     1
 43
0.0
 10
-192.8500000000003
 20
-135.5624999999995
 10
-177.800000000001
 20
-135.5625
 10
-177.8000000000011
 20
-150.6125
 10
-192.8500000000003
 20
-150.6125
  0
LINE
  5
301
330
1F
100
AcDbEntity
  8
0
 62
     1
100
AcDbLine
 10
-290.8610835470668
 20
-19.85202988967242
 30
0.0000000000000001
 11
-270.2933914636235
 21
-5.910543083156812
 31
-0.0000000000000025
  0
LWPOLYLINE
  5
302
330
1F
100
AcDbEntity
  8
0
 62
     1
100
AcDbPolyline
 90
       12
 70
     1
 43
0.0
 10
-177.8000000000014
 20
-173.6625000000005
 10
-192.8500000000003
 20
-173.6625000000001
 10
-192.8500000000003
 20
-185.637578
 42
0.5000000000000425
 10
-196.8500000000005
 20
-185.6375780000003
 10
-196.8500000000004
 20
-178.425
 10
-211.9000000000013
 20
-178.425
 10
-211.9000000000001
 20
-193.475
 10
-196.8500000000007
 20
-193.475
 10
-196.8500000000006
 20
-188.6375779999996
 42
0.5000000000000586
 10
-192.8500000000003
 20
-188.6375780000001
 10
-192.8500000000003
 20
-188.7125
 10
-177.8000000000019
 20
-188.7125
  0
LWPOLYLINE
  5
303
330
1F
100
AcDbEntity
  8
0
 62
     1
100
AcDbPolyline
 90
       12
 70
     1
 43
0.0
 10
-173.55
 20
-55.41794733309628
 42
0.8548305343634458
 10
-169.1857914508034
 20
-53.10525000000011
 10
-154.4999999999999
 20
-53.10525000000011
 10
-154.4999999999999
 20
-38.05525000000009
 10
-169.55
 20
-38.05525000000009
 10
-169.55
 20
-41.05525000000006
 10
-169.55
 20
-52.41794733357045
 42
0.5000000000474181
 10
-173.55
 20
-52.41790466690384
 10
-173.55
 20
-47.58025000000009
 10
-188.5999999999999
 20
-47.58025000000005
 10
-188.5999999999999
 20
-62.63025000000012
 10
-173.55
 20
-62.63025000000012
  0
LINE
  5
304
330
1F
100
AcDbEntity
  8
0
 62
     1
100
AcDbLine
 10
-163.5703844321318
 20
-104.6534571228445
 30
0.0000000000000067
 11
-158.0570937074013
 21
-99.14016639811402
 31
0.0000000000000089
  0
LWPOLYLINE
  5
305
330
1F
100
AcDbEntity
  8
0
 62
     1
100
AcDbPolyline
 90
        4
 70
     1
 43
0.0
 10
-211.6500000000059
 20
-41.1990000000005
 10
-226.6999999999944
 20
-41.19900000000369
 10
-226.6999999999976
 20
-26.14900000000366
 10
-211.6500000000065
 20
-26.14900000000054
  0
ARC
  5
306
330
1F
100
AcDbEntity
  8
0
 62
     1
100
AcDbCircle
 10
286.9216463853912
 20
-114.5947854862288
 30
-0.000000000000214
 40
2.999999999999944
210
5.845964928519692E-16
220
4.621318129372339E-16
230
-1.0
100
AcDbArc
 50
315.0
 51
332.2371668248636
  0
ARC
  5
307
330
1F
100
AcDbEntity
  8
0
 62
     1
100
AcDbCircle
 10
231.9500000000003
 20
-204.0
 30
-0.0000000000000284
 40
1.000000000000014
210
1.224646799147353E-16
220
0.0
230
-1.0
100
AcDbArc
 50
-90.0
 51
0.0
  0
ARC
  5
308
330
1F
100
AcDbEntity
  8
0
 62
     1
100
AcDbCircle
 10
286.9216463853912
 20
-114.5947854862288
 30
-0.00000000000013
 40
4.99999999999994
210
3.752508316941265E-16
220
2.527861517793911E-16
230
-1.0
100
AcDbArc
 50
-44.99999999999991
 51
15.03835160519098
  0
LWPOLYLINE
  5
309
330
1F
100
AcDbEntity
  8
0
 62
     1
100
AcDbPolyline
 90
       10
 70
     1
 43
0.0
 10
-197.3494999499903
 20
-155.375
 10
-211.9000000000001
 20
-155.375
 10
-211.8999999999994
 20
-140.3249999999999
 10
-196.8500000000001
 20
-140.325
 10
-196.8500000000002
 20
-153.8249999999998
 42
-0.6162346249322785
 10
-192.4536812086038
 20
-154.6125
 10
-177.8000000000012
 20
-154.6125000000002
 10
-177.8000000000014
 20
-169.6625000000003
 10
-192.8500000000003
 20
-169.6625000000001
 10
-192.8500000000003
 20
-156.825
 42
-0.7131884663741881
  0
LWPOLYLINE
  5
310
330
1F
100
AcDbEntity
  8
0
 62
     1
100
AcDbPolyline
 90
       10
 70
     1
 43
0.0
 10
-264.7999999999991
 20
-55.48649999999986
 10
-264.7999999999989
 20
-40.43649999999984
 10
-249.75
 20
-40.43650000000001
 10
-249.75
 20
-53.2740000000001
 42
-0.7131884663741935
 10
-245.25050005001
 20
-54.72400000000009
 10
-230.7000000000002
 20
-54.72400000000009
 10
-230.7000000000009
 20
-69.77400000000023
 10
-245.7500000000002
 20
-69.77400000000009
 10
-245.7500000000001
 20
-56.27400000000024
 42
-0.6162346249322782
 10
-250.1463187913965
 20
-55.48650000000008
  0
LINE
  5
311
330
1F
100
AcDbEntity
  8
0
 62
     1
100
AcDbLine
 10
-266.8000000000005
 20
-37.14954250863377
 30
-0.0000000000000044
 11
-266.8
 21
-20.38650000000002
 31
-0.0000000000000044
  0
ARC
  5
312
330
1F
100
AcDbEntity
  8
0
 62
     1
100
AcDbCircle
 10
151.8334444497778
 20
-187.2674362257581
 30
0.0
 40
0.9999999999999432
210
0.0
220
0.0
230
-1.0
100
AcDbArc
 50
180.0
 51
235.8692345917782
  0
LINE
  5
313
330
1F
100
AcDbEntity
  8
0
 62
     1
100
AcDbLine
 10
-181.597880502255
 20
-118.9858544465169
 30
0.0000000000000044
 11
-187.9865237281436
 21
-107.9203997878471
 31
0.0000000000000044
  0
CIRCLE
  5
314
330
1F
100
AcDbEntity
  8
0
 62
     1
100
AcDbCircle
 10
275.3000000000004
 20
-17.14954250863386
 30
0.0000000000000356
 40
0.9999999999999964
210
-1.224646799147353E-16
220
1.499759782661858E-32
230
-1.0
  0
LINE
  5
315
330
1F
100
AcDbEntity
  8
0
 62
     1
100
AcDbLine
 10
-202.7206019290543
 20
-128.1640278556297
 30
0.0000000000000022
 11
-188.1834182434039
 21
-124.2688012268364
 31
0.0000000000000044
  0
ARC
  5
316
330
1F
100
AcDbEntity
  8
0
 62
     1
100
AcDbCircle
 10
265.8000000000001
 20
-20.38650000000002
 30
0.0000000000000044
 40
0.9999999999999787
210
0.0
220
0.0
230
-1.0
100
AcDbArc
 50
0.0
 51
90.0
  0
LINE
  5
317
330
1F
100
AcDbEntity
  8
0
 62
     1
100
AcDbLine
 10
-266.7999999999995
 20
-91.14954250863376
 30
-0.0000000000000044
 11
-266.7999999999995
 21
-37.14954250863377
 31
-0.0000000000000044
  0
LINE
  5
318
330
1F
100
AcDbEntity
  8
0
 62
     1
100
AcDbLine
 10
-268.7665555502221
 20
-6.997767799918586
 30
-0.0000000000000026
 11
-272.3000000000004
 21
-20.14954250863391
 31
-0.0000000000000022
  0
ARC
  5
319
330
1F
100
AcDbEntity
  8
0
 62
     1
100
AcDbCircle
 10
289.1000000000003
 20
-136.94375
 30
0.0000000000000089
 40
1.000000000000014
210
0.0
220
0.0
230
-1.0
100
AcDbArc
 50
0.0
 51
90.0
  0
LWPOLYLINE
  5
320
330
1F
100
AcDbEntity
  8
0
 62
     1
100
AcDbPolyline
 90
        4
 70
     1
 43
0.0
 10
-230.9499999999943
 20
-168.8999999999996
 10
-230.9499999999938
 20
-183.9499999999995
 10
-215.9000000000027
 20
-183.9499999999964
 10
-215.9000000000059
 20
-168.8999999999964
  0
LINE
  5
321
330
1F
100
AcDbEntity
  8
0
 62
     1
100
AcDbLine
 10
-188.5999999999999
 20
-66.63025000000003
 30
0.0000000000000044
 11
-188.5999999999999
 21
-79.18025000000023
 31
0.0000000000000044
  0
LINE
  5
322
330
1F
100
AcDbEntity
  8
0
 62
     1
100
AcDbLine
 10
-261.0021194977453
 20
-91.1131455534832
 30
-0.0000000000000044
 11
-254.6134762718567
 21
-102.178600212153
 31
-0.0000000000000044
  0
LWPOLYLINE
  5
323
330
1F
100
AcDbEntity
  8
0
 62
     1
100
AcDbPolyline
 90
       12
 70
     1
 43
0.0
 10
-264.7999999999984
 20
-21.38650000000004
 10
-264.7999999999989
 20
-36.43649999999953
 10
-249.75
 20
-36.4365
 10
-249.75
 20
-24.46142200000006
 42
0.5000000000000453
 10
-245.7499999999997
 20
-24.46142199999974
 10
-245.7499999999999
 20
-31.67400000000006
 10
-230.6999999999991
 20
-31.67400000000006
 10
-230.7000000000002
 20
-16.62400000000003
 10
-245.7499999999996
 20
-16.62400000000003
 10
-245.7499999999996
 20
-21.46142200000046
 42
0.5000000000000613
 10
-249.75
 20
-21.46142199999998
 10
-249.75
 20
-21.38650000000004
  0
LWPOLYLINE
  5
324
330
1F
100
AcDbEntity
  8
0
 62
     1
100
AcDbPolyline
 90
        4
 70
     1
 43
0.0
 10
-211.9000000000003
 20
-174.425
 10
-211.9000000000003
 20
-159.375
 10
-196.85
 20
-159.3750000000001
 10
-196.8500000000003
 20
-174.425
  0
LINE
  5
325
330
1F
100
AcDbEntity
  8
0
 62
     1
100
AcDbLine
 10
-250.3977069483778
 20
-100.3342510289913
 30
-0.0000000000000022
 11
-235.9841714421531
 21
-96.47215583002128
 31
-0.0000000000000022
  0
LINE
  5
326
330
1F
100
AcDbEntity
  8
0
 62
     1
100
AcDbLine
 10
-176.8000000000002
 20
-190.7125
 30
0.0000000000000067
 11
-194.8500000000003
 21
-190.7125
 31
0.0000000000000044
  0
LINE
  5
327
330
1F
100
AcDbEntity
  8
0
 62
     1
100
AcDbLine
 10
-274.035801824701
 20
-98.63814555348333
 30
-0.0000000000000067
 11
-266.5108018247012
 21
-111.6718278804389
 31
-0.0000000000000044
  0
CIRCLE
  5
328
330
1F
100
AcDbEntity
  8
0
 62
     1
100
AcDbCircle
 10
288.3000000000004
 20
-23.1495425086338
 30
0.0000000000000356
 40
0.999999999999998
210
-1.224646799147353E-16
220
1.499759782661858E-32
230
-1.0
  0
LINE
  5
329
330
1F
100
AcDbEntity
  8
0
 62
     1
100
AcDbLine
 10
-173.55
 20
-66.6302500000001
 30
0.0000000000000067
 11
-188.5999999999999
 21
-66.63025000000003
 31
0.0000000000000044
  0
LINE
  5
330
330
1F
100
AcDbEntity
  8
0
 62
     1
100
AcDbLine
 10
-234.9500000000139
 20
-183.1874999999999
 30
-0.0000000000000022
 11
-234.9499999995153
 21
-195.1625271993533
 31
-0.0000000000000022
  0
ARC
  5
331
330
1F
100
AcDbEntity
  8
0
 62
     1
100
AcDbCircle
 10
163.5703844321317
 20
-81.95532944675637
 30
-0.0000000000000217
 40
0.9999999999999729
210
6.123233995736457E-17
220
6.123233995736765E-17
230
-1.0
100
AcDbArc
 50
44.9999999999977
 51
135.0000000000012
  0
LINE
  5
332
330
1F
100
AcDbEntity
  8
0
 62
     1
100
AcDbLine
 10
-209.65
 20
-9.861499999998937
 30
0.0000000000000022
 11
-191.5999999999999
 21
-9.861500000000039
 31
0.0000000000000044
  0
ARC
  5
333
330
1F
100
AcDbEntity
  8
0
 62
     1
100
AcDbCircle
 10
191.6
 20
-10.86150000000002
 30
-0.0000000000000279
 40
0.9999999999999787
210
1.224646799147353E-16
220
-8.701638870060288E-30
230
-1.0
100
AcDbArc
 50
90.00000000000325
 51
180.0
  0
LWPOLYLINE
  5
334
330
1F
100
AcDbEntity
  8
0
 62
     1
100
AcDbPolyline
 90
        4
 70
     1
 43
0.0
 10
-173.55
 20
-43.58025000000011
 10
-173.55
 20
-28.53025000000008
 10
-188.5999999999999
 20
-28.53025000000008
 10
-188.5999999999999
 20
-43.58025000000011
  0
LINE
  5
335
330
1F
100
AcDbEntity
  8
0
 62
     1
100
AcDbLine
 10
-207.6499999999864
 20
-26.91150000000013
 30
0.0000000000000022
 11
-192.5999999999997
 21
-26.91150000000013
 31
0.0000000000000044
  0
CIRCLE
  5
336
330
1F
100
AcDbEntity
  8
0
 62
     1
100
AcDbCircle
 10
287.7170915277704
 20
-109.8473459335603
 30
-0.0000000000000286
 40
2.5
210
1.224646799147353E-16
220
0.0
230
-1.0
  0
LINE
  5
337
330
1F
100
AcDbEntity
  8
0
 62
     1
100
AcDbLine
 10
-234.9499999993904
 20
-198.1625272008133
 30
-0.0000000000000022
 11
-234.9499999993872
 21
-198.2374999999993
 31
-0.0000000000000022
  0
LINE
  5
338
330
1F
100
AcDbEntity
  8
0
 62
     1
100
AcDbLine
 10
-230.9499999999937
 20
-203.0
 30
0.0
 11
-230.9499999999937
 21
-198.1625271999912
 31
0.0
  0
LINE
  5
339
330
1F
100
AcDbEntity
  8
0
 62
     1
100
AcDbLine
 10
-207.6500000006099
 20
-11.93647279918677
 30
0.0000000000000022
 11
-207.6500000006131
 21
-11.86150000000074
 31
0.0000000000000022
  0
CIRCLE
  5
340
330
1F
100
AcDbEntity
  8
0
 62
     1
100
AcDbCircle
 10
166.8334444497778
 20
-190.7976827826512
 30
-0.0000000000000182
 40
0.9999999999999964
210
1.224646799147353E-16
220
0.0
230
-1.0
  0
LINE
  5
341
330
1F
100
AcDbEntity
  8
0
 62
     1
100
AcDbLine
 10
-250.7450686901767
 20
-104.8788786880079
 30
-0.0000000000000022
 11
-265.5592313862648
 21
-116.0874999340131
 31
-0.0000000000000044
  0
LINE
  5
342
330
1F
100
AcDbEntity
  8
0
 62
     1
100
AcDbLine
 10
-284.542906292599
 20
-110.9588336018861
 30
-0.0000000000000067
 11
-289.5762963645458
 21
-115.9922236738329
 31
-0.0000000000000089
  0
LINE
  5
343
330
1F
100
AcDbEntity
  8
0
 62
     1
100
AcDbLine
 10
-279.7367223490551
 20
-128.8507773344302
 30
-0.0000000000000067
 11
-290.4571802913239
 21
-118.1303193921615
 31
-0.0000000000000089
  0
LINE
  5
344
330
1F
100
AcDbEntity
  8
0
 62
     1
100
AcDbLine
 10
-268.3876585110112
 20
-116.087499934013
 30
-0.0000000000000044
 11
-279.0296155678686
 21
-105.4455428771556
 31
-0.0000000000000067
  0
LINE
  5
345
330
1F
100
AcDbEntity
  8
0
 62
     1
100
AcDbLine
 10
-279.0296155678689
 20
-126.7294569908704
 30
-0.0000000000000067
 11
-289.0429667289508
 21
-116.7161058297884
 31
-0.0000000000000089
  0
ARC
  5
346
330
1F
100
AcDbEntity
  8
0
 62
     1
100
AcDbCircle
 10
269.7323079165571
 20
-6.738302259011357
 30
0.0000000000000356
 40
0.9999999999999903
210
-1.224646799147340E-16
220
-1.774937036747277E-30
230
-1.0
100
AcDbArc
 50
55.86923459177797
 51
195.0383516051908
  0
LWPOLYLINE
  5
347
330
1F
100
AcDbEntity
  8
0
 62
     1
100
AcDbPolyline
 90
        4
 70
     1
 43
0.0
 10
-210.4490701542412
 20
-116.5125000000002
 10
-210.4490701542412
 20
-131.5625000000002
 10
-225.4990701542412
 20
-131.5625000000002
 10
-225.4990701542412
 20
-116.5125000000002
  0
LINE
  5
348
330
1F
100
AcDbEntity
  8
0
 62
     1
100
AcDbLine
 10
-169.8334444497779
 20
-134.7976827826513
 30
-0.0000000000000022
 11
-169.8334444497778
 21
-187.7976827826512
 31
-0.0000000000000022
  0
ARC
  5
349
330
1F
100
AcDbEntity
  8
0
 62
     1
100
AcDbCircle
 10
270.0500000000004
 20
-182.56875
 30
-0.0000000000000264
 40
1.000000000000014
210
1.224646799147353E-16
220
4.350819435029990E-30
230
-1.0
100
AcDbArc
 50
-90.00000000000325
 51
0.0
  0
LINE
  5
350
330
1F
100
AcDbEntity
  8
0
 62
     1
100
AcDbLine
 10
-153.5
 20
-74.15525000000008
 30
0.0000000000000089
 11
-171.55
 21
-74.15525000000008
 31
0.0000000000000067
  0
LINE
  5
351
330
1F
100
AcDbEntity
  8
0
 62
     1
100
AcDbLine
 10
-207.6500000006131
 20
-11.86150000000074
 30
0.0000000000000022
 11
-192.5999999999997
 21
-11.86150000000021
 31
0.0000000000000044
  0
ARC
  5
352
330
1F
100
AcDbEntity
  8
0
 62
     1
100
AcDbCircle
 10
209.65
 20
-13.43647280000004
 30
-0.0000000000000123
 40
2.500000000000007
210
4.408728480732287E-17
220
5.878304637016164E-17
230
-1.0
100
AcDbArc
 50
216.8698976643719
 51
323.1301023544088
  0
LWPOLYLINE
  5
353
330
1F
100
AcDbEntity
  8
0
 62
     1
100
AcDbPolyline
 90
        4
 70
     1
 43
0.0
 10
-192.5999999999997
 20
-45.9615
 10
-207.6499999999992
 20
-45.96149999999908
 10
-207.6499999999891
 20
-30.9114999999999
 10
-192.5999999999996
 20
-30.91149999999997
  0
LINE
  5
354
330
1F
100
AcDbEntity
  8
0
 62
     1
100
AcDbLine
 10
-171.55
 20
-36.05525000000006
 30
0.0000000000000067
 11
-153.5
 21
-36.05525000000006
 31
0.0000000000000089
  0
LINE
  5
355
330
1F
100
AcDbEntity
  8
0
 62
     1
100
AcDbLine
 10
-211.6500000000066
 20
-14.93647279999122
 30
0.0000000000000022
 11
-211.6500000000066
 21
-22.14900000000069
 31
0.0000000000000022
  0
LINE
  5
356
330
1F
100
AcDbEntity
  8
0
 62
     1
100
AcDbLine
 10
-232.9500000000003
 20
-200.2375000000011
 30
0.0
 11
-232.9500000000003
 21
-204.0
 31
0.0
  0
ARC
  5
357
330
1F
100
AcDbEntity
  8
0
 62
     1
100
AcDbCircle
 10
210.65
 20
-6.099000000000085
 30
-0.000000000000028
 40
1.000000000000014
210
1.224646799147353E-16
220
0.0
230
-1.0
100
AcDbArc
 50
90.0
 51
180.0
  0
LINE
  5
358
330
1F
100
AcDbEntity
  8
0
 62
     1
100
AcDbLine
 10
-234.9499999993872
 20
-198.2374999999993
 30
-0.0000000000000022
 11
-250.0000000000006
 21
-198.2374999999999
 31
-0.0000000000000022
  0
ARC
  5
359
330
1F
100
AcDbEntity
  8
0
 62
     1
100
AcDbCircle
 10
176.8000000000002
 20
-189.7125
 30
-0.0000000000000067
 40
0.9999999999999787
210
0.0
220
0.0
230
-1.0
100
AcDbArc
 50
180.0
 51
270.0
  0
LWPOLYLINE
  5
360
330
1F
100
AcDbEntity
  8
0
 62
     1
100
AcDbPolyline
 90
        4
 70
     1
 43
0.0
 10
-217.1009298457591
 20
-93.58649999999984
 10
-232.1509298457592
 20
-93.58649999999989
 10
-232.1509298457592
 20
-78.53649999999986
 10
-217.1009298457591
 20
-78.53649999999986
  0
ARC
  5
361
330
1F
100
AcDbEntity
  8
0
 62
     1
100
AcDbCircle
 10
252.1136135693452
 20
-102.1523996665126
 30
0.0000000000000046
 40
2.499999999999984
210
1.345090501968764E-20
220
-1.283386088031852E-18
230
-1.0
100
AcDbArc
 50
-0.6004832671403496
 51
128.1301023541532
  0
ARC
  5
362
330
1F
100
AcDbEntity
  8
0
 62
     1
100
AcDbCircle
 10
273.3000000000004
 20
-73.14954250863379
 30
0.0000000000000356
 40
1.000000000000014
210
-1.224646799147318E-16
220
1.499759782661858E-32
230
-1.0
100
AcDbArc
 50
180.0
 51
270.0
  0
LINE
  5
363
330
1F
100
AcDbEntity
  8
0
 62
     1
100
AcDbLine
 10
-239.879398070946
 20
-81.93497214437043
 30
-0.0000000000000022
 11
-254.4165817565964
 21
-85.83019877316366
 31
-0.0000000000000044
  0
LWPOLYLINE
  5
364
330
1F
100
AcDbEntity
  8
0
 62
     1
100
AcDbPolyline
 90
       12
 70
     1
 43
0.0
 10
-273.0500000000004
 20
-157.6810526664296
 42
0.5000000000474181
 10
-269.0500000000003
 20
-157.6810953330962
 10
-269.0500000000003
 20
-162.51875
 10
-254.0000000000003
 20
-162.51875
 10
-254.0000000000004
 20
-147.46875
 10
-269.0500000000002
 20
-147.46875
 10
-269.0500000000003
 20
-154.6810526669038
 42
0.854830534363446
 10
-273.414208549197
 20
-156.99375
 10
-288.1000000000003
 20
-156.99375
 10
-288.1000000000003
 20
-172.04375
 10
-273.0500000000004
 20
-172.04375
 10
-273.0500000000004
 20
-169.04375
  0
LINE
  5
365
330
1F
100
AcDbEntity
  8
0
 62
     1
100
AcDbLine
 10
-252.0000000000003
 20
-126.41875
 30
-0.0000000000000044
 11
-227.4990701542412
 21
-114.5125000000002
 31
0.0
  0
LINE
  5
366
330
1F
100
AcDbEntity
  8
0
 62
     1
100
AcDbLine
 10
-171.55
 20
-27.53025000000006
 30
0.0000000000000067
 11
-171.55
 21
-36.05525000000006
 31
0.0000000000000067
  0
ARC
  5
367
330
1F
100
AcDbEntity
  8
0
 62
     1
100
AcDbCircle
 10
172.55
 20
-27.53025000000006
 30
-0.0000000000000278
 40
1.000000000000014
210
1.224646799147353E-16
220
0.0
230
-1.0
100
AcDbArc
 50
90.0
 51
180.0
  0
LINE
  5
368
330
1F
100
AcDbEntity
  8
0
 62
     1
100
AcDbLine
 10
-181.597880502255
 20
-118.9858544465169
 30
0.0000000000000044
 11
-168.5641981752993
 21
-111.4608544465167
 31
0.0000000000000067
  0
LINE
  5
369
330
1F
100
AcDbEntity
  8
0
 62
     1
100
AcDbLine
 10
-290.0305511597343
 20
-106.8960064865848
 30
-0.0000000000000089
 11
-291.7504082170663
 21
-113.2974577816927
 31
-0.0000000000000089
  0
LINE
  5
370
330
1F
100
AcDbEntity
  8
0
 62
     1
100
AcDbLine
 10
-176.0891981752991
 20
-98.42717211956116
 30
0.0000000000000067
 11
-189.0424655385005
 21
-105.9057445185904
 31
0.0000000000000044
  0
ARC
  5
371
330
1F
100
AcDbEntity
  8
0
 62
     1
100
AcDbCircle
 10
270.0500000000003
 20
-127.41875
 30
0.0000000000000067
 40
1.000000000000014
210
0.0
220
0.0
230
-1.0
100
AcDbArc
 50
0.0
 51
90.0
  0
LINE
  5
372
330
1F
100
AcDbEntity
  8
0
 62
     1
100
AcDbLine
 10
-266.7999999999995
 20
-91.14954250863376
 30
-0.0000000000000044
 11
-290.0305511597343
 21
-106.8960064865848
 31
-0.0000000000000089
  0
LWPOLYLINE
  5
373
330
1F
100
AcDbEntity
  8
0
 62
     1
100
AcDbPolyline
 90
        4
 70
     1
 43
0.0
 10
-169.55
 20
-57.1052500000001
 10
-169.55
 20
-72.15525000000008
 10
-154.4999999999999
 20
-72.15525000000008
 10
-154.4999999999999
 20
-57.1052500000001
  0
LINE
  5
374
330
1F
100
AcDbEntity
  8
0
 62
     1
100
AcDbLine
 10
-254.4165817565964
 20
-85.83019877316366
 30
-0.0000000000000044
 11
-250.5699904844209
 21
-100.1858728368739
 31
-0.0000000000000022
  0
LWPOLYLINE
  5
375
330
1F
100
AcDbEntity
  8
0
 62
     1
100
AcDbPolyline
 90
        4
 70
     1
 43
0.0
 10
-269.0500000000003
 20
-166.51875
 10
-269.0500000000004
 20
-181.56875
 10
-254.0000000000003
 20
-181.56875
 10
-254.0000000000003
 20
-166.51875
  0
LINE
  5
376
330
1F
100
AcDbEntity
  8
0
 62
     1
100
AcDbLine
 10
-291.3000000000003
 20
-73.14954250863377
 30
0.0000000000000001
 11
-291.3000000000003
 21
-20.67978906552693
 31
0.0000000000000001
  0
LINE
  5
377
330
1F
100
AcDbEntity
  8
0
 62
     1
100
AcDbLine
 10
-271.0500000000003
 20
-174.04375
 30
-0.0000000000000067
 11
-289.1000000000003
 21
-174.04375
 31
-0.0000000000000089
  0
LINE
  5
378
330
1F
100
AcDbEntity
  8
0
 62
     1
100
AcDbLine
 10
-202.7206019290543
 20
-128.1640278556297
 30
0.0000000000000022
 11
-206.6158285578472
 21
-113.6268441699788
 31
0.0000000000000022
  0
LINE
  5
379
330
1F
100
AcDbEntity
  8
0
 62
     1
100
AcDbLine
 10
-215.1009298457591
 20
-95.58649999999987
 30
0.0000000000000022
 11
-233.53468169937
 21
-97.88636939239423
 31
0.0
  0
LINE
  5
380
330
1F
100
AcDbEntity
  8
0
 62
     1
100
AcDbLine
 10
-209.0653177556653
 20
-112.2126305396138
 30
0.0000000000000022
 11
-191.8549308010277
 21
-105.2201211052705
 31
0.0000000000000044
  0
LINE
  5
381
330
1F
100
AcDbEntity
  8
0
 62
     1
100
AcDbLine
 10
-175.8000000000008
 20
-118.9494574913663
 30
0.0000000000000067
 11
-175.8000000000008
 21
-172.9494574913663
 31
0.0000000000000067
  0
LWPOLYLINE
  5
382
330
1F
100
AcDbEntity
  8
0
 62
     1
100
AcDbPolyline
 90
       12
 70
     1
 43
0.0
 10
-250.0000000000005
 20
-160.1375000000002
 10
-235.3146896163657
 20
-160.137500000001
 42
0.8531118572198737
 10
-230.9499999999963
 20
-162.445963024703
 10
-230.9499999999956
 20
-164.8999999999996
 10
-215.9000000000066
 20
-164.8999999999964
 10
-215.9000000000102
 20
-149.8500000000003
 10
-230.9500000000002
 20
-149.8500000000042
 10
-230.9499999999973
 20
-159.4411849752958
 42
0.5000005960094915
 10
-234.949999999998
 20
-159.4459689847929
 10
-234.9499999999912
 20
-149.3500000000006
 10
-234.9499999999912
 20
-145.0875
 10
-250.0000000000003
 20
-145.0874999999997
  0
LINE
  5
383
330
1F
100
AcDbEntity
  8
0
 62
     1
100
AcDbLine
 10
-250.0000000000006
 20
-198.2374999999999
 30
-0.0000000000000022
 11
-250.0000000000006
 21
-183.1874999999999
 31
-0.0000000000000022
  0
LINE
  5
384
330
1F
100
AcDbEntity
  8
0
 62
     1
100
AcDbLine
 10
-226.7000000000014
 20
-7.099000000000029
 30
0.0
 11
-211.6500000000066
 21
-7.099000000000064
 31
0.0000000000000022
  0
LINE
  5
385
330
1F
100
AcDbEntity
  8
0
 62
     1
100
AcDbLine
 10
-190.6
 20
-83.68025000000004
 30
0.0000000000000044
 11
-215.1009298457591
 21
-95.58649999999987
 31
0.0000000000000022
  0
ARC
  5
386
330
1F
100
AcDbEntity
  8
0
 62
     1
100
AcDbCircle
 10
190.4863864306551
 20
-107.9466003334875
 30
-0.0000000000000043
 40
2.499999999999984
210
1.345090501972419E-20
220
-1.283386088033599E-18
230
-1.0
100
AcDbArc
 50
179.3995167328597
 51
308.1301023541533
  0
ARC
  5
387
330
1F
100
AcDbEntity
  8
0
 62
     1
100
AcDbCircle
 10
232.9500000000003
 20
-196.6625272
 30
-0.0000000000000218
 40
2.499999999999986
210
4.408728476878652E-17
220
5.878304635892189E-17
230
-1.0
100
AcDbArc
 50
216.8698976455913
 51
323.1301023308575
  0
LINE
  5
388
330
1F
100
AcDbEntity
  8
0
 62
     1
100
AcDbLine
 10
-215.9000000000019
 20
-187.9499999999964
 30
0.0
 11
-230.9499999999937
 21
-187.9499999999994
 31
0.0
  0
ARC
  5
389
330
1F
100
AcDbEntity
  8
0
 62
     1
100
AcDbCircle
 10
279.0296155678686
 20
-128.1436705532437
 30
-0.0000000000000183
 40
0.9999999999999729
210
6.123233995736457E-17
220
6.123233995736765E-17
230
-1.0
100
AcDbArc
 50
224.9999999999977
 51
315.0
  0
ARC
  5
390
330
1F
100
AcDbEntity
  8
0
 62
     1
100
AcDbCircle
 10
232.9500000000003
 20
-196.6625272
 30
-0.0000000000000825
 40
2.500000000000036
210
7.546300203950869E-16
220
-4.741240056796731E-16
230
-1.0
100
AcDbArc
 50
36.86989766437167
 51
143.1301023544091
  0
ARC
  5
391
330
1F
100
AcDbEntity
  8
0
 62
     1
100
AcDbCircle
 10
290.3000000000004
 20
-20.67978906552693
 30
0.0000000000000356
 40
0.9999999999999432
210
-1.224646799147405E-16
220
1.499759782661858E-32
230
-1.0
100
AcDbArc
 50
0.0
 51
55.86923459177682
  0
LINE
  5
392
330
1F
100
AcDbEntity
  8
0
 62
     1
100
AcDbLine
 10
-228.7
 20
-14.62400000000008
 30
0.0
 11
-228.7
 21
-6.09900000000005
 31
0.0
  0
LWPOLYLINE
  5
393
330
1F
100
AcDbEntity
  8
0
 62
     1
100
AcDbPolyline
 90
        4
 70
     1
 43
0.0
 10
-249.75
 20
-74.53650000000054
 10
-264.7999999999993
 20
-74.53650000000012
 10
-264.7999999999991
 20
-59.48650000000006
 10
-249.75
 20
-59.48650000000006
  0
LINE
  5
394
330
1F
100
AcDbEntity
  8
0
 62
     1
100
AcDbLine
 10
-266.5108018247012
 20
-111.6718278804389
 30
-0.0000000000000044
 11
-253.5575344614998
 21
-104.1932554814097
 31
-0.0000000000000044
  0
LINE
  5
395
330
1F
100
AcDbEntity
  8
0
 62
     1
100
AcDbLine
 10
-190.6
 20
-26.53025000000005
 30
0.0000000000000044
 11
-172.55
 21
-26.53025000000005
 31
0.0000000000000067
  0
LINE
  5
396
330
1F
100
AcDbEntity
  8
0
 62
     1
100
AcDbLine
 10
-271.0500000000003
 20
-135.94375
 30
-0.0000000000000067
 11
-271.0500000000003
 21
-127.41875
 31
-0.0000000000000067
  0
LINE
  5
397
330
1F
100
AcDbEntity
  8
0
 62
     1
100
AcDbLine
 10
-209.65
 20
-9.861499999998937
 30
0.0000000000000022
 11
-209.65
 21
-6.099000000000085
 31
0.0000000000000022
  0
LINE
  5
398
330
1F
100
AcDbEntity
  8
0
 62
     1
100
AcDbLine
 10
-233.534682244335
 20
-97.88636946038628
 30
0.0
 11
-250.7450691989726
 21
-104.8788788947296
 31
-0.0000000000000022
  0
ARC
  5
399
330
1F
100
AcDbEntity
  8
0
 62
     1
100
AcDbCircle
 10
252.0000000000003
 20
-129.41875
 30
-0.0000000000000063
 40
2.500000000000009
210
1.959434878635737E-17
220
4.489629325342476E-17
230
-1.0
100
AcDbArc
 50
23.5781784782016
 51
76.08161800272943
  0
LINE
  5
400
330
1F
100
AcDbEntity
  8
0
 62
     1
100
AcDbLine
 10
-163.5703844321314
 20
-83.36954300912973
 30
0.0000000000000067
 11
-153.5570332710495
 21
-93.3828941702117
 31
0.0000000000000089
  0
LINE
  5
401
330
1F
100
AcDbEntity
  8
0
 62
     1
100
AcDbLine
 10
-230.9499999999937
 20
-195.1625272000089
 30
0.0
 11
-230.9499999999937
 21
-187.9499999999994
 31
0.0
  0
LINE
  5
402
330
1F
100
AcDbEntity
  8
0
 62
     1
100
AcDbLine
 10
-194.8500000000003
 20
-190.7125
 30
0.0000000000000044
 11
-194.8500000000003
 21
-194.475
 31
0.0000000000000044
  0
LINE
  5
403
330
1F
100
AcDbEntity
  8
0
 62
     1
100
AcDbLine
 10
-191.8549313098237
 20
-105.2201213119922
 30
0.0000000000000044
 11
-177.0407686137355
 21
-94.01150006598697
 31
0.0000000000000067
  0
ARC
  5
404
330
1F
100
AcDbEntity
  8
0
 62
     1
100
AcDbCircle
 10
153.5
 20
-73.15525000000007
 30
-0.0000000000000089
 40
1.000000000000014
210
0.0
220
0.0
230
-1.0
100
AcDbArc
 50
180.0
 51
270.0
  0
LINE
  5
405
330
1F
100
AcDbEntity
  8
0
 62
     1
100
AcDbLine
 10
-195.8500000000002
 20
-195.475
 30
0.0000000000000044
 11
-213.9000000000003
 21
-195.475
 31
0.0000000000000022
  0
LINE
  5
406
330
1F
100
AcDbEntity
  8
0
 62
     1
100
AcDbLine
 10
-151.2723609027114
 20
-188.0951954016126
 30
0.0
 11
-171.8400529861547
 21
-202.0366822081282
 31
-0.0000000000000022
  0
LINE
  5
407
330
1F
100
AcDbEntity
  8
0
 62
     1
100
AcDbLine
 10
-213.9000000000003
 20
-195.475
 30
0.0000000000000022
 11
-213.9000000000003
 21
-204.0
 31
0.0000000000000022
  0
LINE
  5
408
330
1F
100
AcDbEntity
  8
0
 62
     1
100
AcDbLine
 10
-175.6996847083269
 20
-95.49884328532508
 30
0.0000000000000067
 11
-175.6265550513622
 21
-95.4257136283603
 31
0.0000000000000067
  0
LINE
  5
409
330
1F
100
AcDbEntity
  8
0
 62
     1
100
AcDbLine
 10
-265.5592313862662
 20
-116.0874999340142
 30
-0.0000000000000044
 11
-278.3225087866821
 21
-128.8507773344302
 31
-0.0000000000000067
  0
LINE
  5
410
330
1F
100
AcDbEntity
  8
0
 62
     1
100
AcDbLine
 10
-150.8334444497779
 20
-134.7976827826513
 30
0.0
 11
-150.8334444497779
 21
-187.2674362257581
 31
0.0
  0
LINE
  5
411
330
1F
100
AcDbEntity
  8
0
 62
     1
100
AcDbLine
 10
-226.6999999999984
 20
-22.14900000000368
 30
0.0
 11
-211.6500000000066
 21
-22.14900000000069
 31
0.0000000000000022
  0
LINE
  5
412
330
1F
100
AcDbEntity
  8
0
 62
     1
100
AcDbLine
 10
-227.4990701542412
 20
-114.5125000000002
 30
0.0
 11
-209.0653183006302
 21
-112.2126306076059
 31
0.0000000000000022
  0
ARC
  5
413
330
1F
100
AcDbEntity
  8
0
 62
     1
100
AcDbCircle
 10
190.6
 20
-80.68025000000004
 30
-0.0000000000000118
 40
2.499999999999952
210
1.959434878635899E-17
220
4.489629325342628E-17
230
-1.0
100
AcDbArc
 50
-156.4218215217973
 51
143.130102354161
  0
LINE
  5
414
330
1F
100
AcDbEntity
  8
0
 62
     1
100
AcDbLine
 10
-272.3000000000003
 20
-73.14954250863379
 30
-0.0000000000000022
 11
-272.3000000000004
 21
-20.14954250863387
 31
-0.0000000000000022
  0
ARC
  5
415
330
1F
100
AcDbEntity
  8
0
 62
     1
100
AcDbCircle
 10
209.65
 20
-13.43647280000004
 30
-0.0000000000000123
 40
2.500000000000014
210
4.408728476878545E-17
220
5.878304635892150E-17
230
-1.0
100
AcDbArc
 50
36.86989764559114
 51
143.1301023308574
  0
LINE
  5
416
330
1F
100
AcDbEntity
  8
0
 62
     1
100
AcDbLine
 10
-261.0021194977453
 20
-91.1131455534832
 30
-0.0000000000000044
 11
-274.035801824701
 21
-98.63814555348333
 31
-0.0000000000000067
  0
LINE
  5
417
330
1F
100
AcDbEntity
  8
0
 62
     1
100
AcDbLine
 10
-174.2123414889891
 20
-94.0115000659871
 30
0.0000000000000067
 11
-163.5703844321314
 21
-83.36954300912973
 31
0.0000000000000067
  0
LINE
  5
418
330
1F
100
AcDbEntity
  8
0
 62
     1
100
AcDbLine
 10
-174.2123414889891
 20
-94.0115000659871
 30
0.0000000000000067
 11
-163.5703844321318
 21
-104.6534571228445
 31
0.0000000000000067
  0
ARC
  5
419
330
1F
100
AcDbEntity
  8
0
 62
     1
100
AcDbCircle
 10
155.6783536146091
 20
-95.5042145137713
 30
-0.0000000000000126
 40
2.999999999999944
210
6.123233995736765E-17
220
-6.123233995736765E-17
230
-1.0
100
AcDbArc
 50
135.0
 51
152.2371668248626
  0
LWPOLYLINE
  5
420
330
1F
100
AcDbEntity
  8
0
 62
     1
100
AcDbPolyline
 90
        4
 70
     1
 43
0.0
 10
-273.0500000000003
 20
-137.94375
 10
-288.1000000000003
 20
-137.94375
 10
-288.1000000000003
 20
-152.99375
 10
-273.0500000000004
 20
-152.99375
  0
ARC
  5
421
330
1F
100
AcDbEntity
  8
0
 62
     1
100
AcDbCircle
 10
195.8500000000002
 20
-194.475
 30
-0.0000000000000044
 40
0.9999999999999787
210
1.545721572082299E-43
220
-4.350819435030144E-30
230
-1.0
100
AcDbArc
 50
180.0
 51
270.0
  0
LINE
  5
422
330
1F
100
AcDbEntity
  8
0
 62
     1
100
AcDbLine
 10
-171.55
 20
-74.15525000000008
 30
0.0000000000000067
 11
-171.55
 21
-82.68025000000007
 31
0.0000000000000067
  0
ARC
  5
423
330
1F
100
AcDbEntity
  8
0
 62
     1
100
AcDbCircle
 10
246.7500000000001
 20
-15.62400000000006
 30
0.0000000000000022
 40
1.000000000000014
210
1.545721572082189E-43
220
-4.350819435029990E-30
230
-1.0
100
AcDbArc
 50
0.0
 51
90.0
  0
LINE
  5
424
330
1F
100
AcDbEntity
  8
0
 62
     1
100
AcDbLine
 10
-215.8999999999988
 20
-203.0000000000001
 30
0.0
 11
-215.9000000000019
 21
-187.9499999999964
 31
0.0
  0
ARC
  5
425
330
1F
100
AcDbEntity
  8
0
 62
     1
100
AcDbCircle
 10
168.8334444497778
 20
-134.7976827826513
 30
0.0000000000000022
 40
1.000000000000014
210
0.0
220
0.0
230
-1.0
100
AcDbArc
 50
0.0
 51
90.0
  0
ARC
  5
426
330
1F
100
AcDbEntity
  8
0
 62
     1
100
AcDbCircle
 10
151.8334444497778
 20
-134.7976827826513
 30
-0.0000000000000186
 40
1.000000000000014
210
1.224646799147353E-16
220
0.0
230
-1.0
100
AcDbArc
 50
90.0
 51
180.0
  0
ARC
  5
427
330
1F
100
AcDbEntity
  8
0
 62
     1
100
AcDbCircle
 10
290.3000000000004
 20
-73.14954250863379
 30
0.0000000000000356
 40
1.000000000000014
210
-1.224646799147353E-16
220
0.0
230
-1.0
100
AcDbArc
 50
-90.0
 51
0.0
  0
LINE
  5
428
330
1F
100
AcDbEntity
  8
0
 62
     1
100
AcDbLine
 10
-246.7500000000001
 20
-14.62400000000008
 30
-0.0000000000000022
 11
-228.7
 21
-14.62400000000008
 31
0.0
  0
LINE
  5
429
330
1F
100
AcDbEntity
  8
0
 62
     1
100
AcDbLine
 10
-271.0500000000004
 20
-182.56875
 30
-0.0000000000000067
 11
-271.0500000000003
 21
-174.04375
 31
-0.0000000000000067
  0
ARC
  5
430
330
1F
100
AcDbEntity
  8
0
 62
     1
100
AcDbCircle
 10
289.1000000000003
 20
-173.04375
 30
-0.0000000000000265
 40
1.000000000000014
210
1.224646799147353E-16
220
0.0
230
-1.0
100
AcDbArc
 50
-90.0
 51
0.0
  0
ARC
  5
431
330
1F
100
AcDbEntity
  8
0
 62
     1
100
AcDbCircle
 10
172.4011365332211
 20
-201.2089230322737
 30
-0.0000000000000237
 40
0.9999999999999903
210
8.391099271683215E-17
220
5.687774754392334E-17
230
-1.0
100
AcDbArc
 50
-124.13076540822
 51
15.03835160519081
  0
LINE
  5
432
330
1F
100
AcDbEntity
  8
0
 62
     1
100
AcDbLine
 10
-215.8999999999988
 20
-203.0000000000001
 30
0.0
 11
-230.9499999999937
 21
-203.0
 31
0.0
  0
ARC
  5
433
330
1F
100
AcDbEntity
  8
0
 62
     1
100
AcDbCircle
 10
251.0000000000003
 20
-199.2375000000001
 30
-0.0000000000000285
 40
0.9999999999999787
210
1.224646799147353E-16
220
-8.701638870060288E-30
230
-1.0
100
AcDbArc
 50
-89.99999999999511
 51
0.0
  0
LINE
  5
434
330
1F
100
AcDbEntity
  8
0
 62
     1
100
AcDbLine
 10
-254.0000000000004
 20
-143.46875
 30
-0.0000000000000044
 11
-254.0000000000004
 21
-130.9187499999998
 31
-0.0000000000000044
  0
LINE
  5
435
330
1F
100
AcDbEntity
  8
0
 62
     1
100
AcDbLine
 10
-290.1000000000004
 20
-173.04375
 30
-0.0000000000000089
 11
-290.1000000000004
 21
-136.94375
 31
-0.0000000000000089
  0
LINE
  5
436
330
1F
100
AcDbEntity
  8
0
 62
     1
100
AcDbLine
 10
-252.0000000000003
 20
-199.2375000000001
 30
-0.0000000000000044
 11
-252.0000000000003
 21
-183.56875
 31
-0.0000000000000044
  0
LINE
  5
437
330
1F
100
AcDbEntity
  8
0
 62
     1
100
AcDbLine
 10
-214.9000000000003
 20
-205.0
 30
0.0000000000000022
 11
-231.9500000000003
 21
-205.0
 31
0.0
  0
LINE
  5
438
330
1F
100
AcDbEntity
  8
0
 62
     1
100
AcDbLine
 10
-252.0000000000003
 20
-183.56875
 30
-0.0000000000000044
 11
-270.0500000000004
 21
-183.56875
 31
-0.0000000000000067
  0
LINE
  5
439
330
1F
100
AcDbEntity
  8
0
 62
     1
100
AcDbLine
 10
-188.1834182434039
 20
-124.2688012268364
 30
0.0000000000000044
 11
-192.0300095155794
 21
-109.9131271631262
 31
0.0000000000000044
  0
LINE
  5
440
330
1F
100
AcDbEntity
  8
0
 62
     1
100
AcDbLine
 10
-269.0500000000002
 20
-143.46875
 30
-0.0000000000000044
 11
-254.0000000000004
 21
-143.46875
 31
-0.0000000000000044
  0
ARC
  5
441
330
1F
100
AcDbEntity
  8
0
 62
     1
100
AcDbCircle
 10
153.5
 20
-37.05525000000007
 30
-0.0000000000000277
 40
1.000000000000014
210
1.224646799147353E-16
220
0.0
230
-1.0
100
AcDbArc
 50
90.0
 51
180.0
  0
LINE
  5
442
330
1F
100
AcDbEntity
  8
0
 62
     1
100
AcDbLine
 10
-297.0
 20
-0.0000000000000355
 30
0.0
 11
-297.0
 21
-210.0
 31
0.0
  0
LINE
  5
443
330
1F
100
AcDbEntity
  8
0
 62
     1
100
AcDbLine
 10
-269.0500000000002
 20
-128.41875
 30
-0.0000000000000044
 11
-269.0500000000002
 21
-143.46875
 31
-0.0000000000000044
  0
LINE
  5
444
330
1F
100
AcDbEntity
  8
0
 62
     1
100
AcDbLine
 10
-232.9500000000003
 20
-200.2375000000011
 30
0.0
 11
-251.0000000000004
 21
-200.2375
 31
-0.0000000000000022
  0
LINE
  5
445
330
1F
100
AcDbEntity
  8
0
 62
     1
100
AcDbLine
 10
-175.7999999999998
 20
-172.9494574913663
 30
0.0000000000000067
 11
-175.8000000000003
 21
-189.7125
 31
0.0000000000000067
  0
LINE
  5
446
330
1F
100
AcDbEntity
  8
0
 62
     1
100
AcDbLine
 10
-234.9500000000139
 20
-183.1874999999999
 30
-0.0000000000000022
 11
-250.0000000000006
 21
-183.1874999999999
 31
-0.0000000000000022
  0
LINE
  5
447
330
1F
100
AcDbEntity
  8
0
 62
     1
100
AcDbLine
 10
-207.6499999999864
 20
-26.91150000000013
 30
0.0000000000000022
 11
-207.650000000485
 21
-14.9364728006468
 31
0.0000000000000022
  0
LINE
  5
448
330
1F
100
AcDbEntity
  8
0
 62
     1
100
AcDbLine
 10
-173.3668888995561
 20
-200.9494574913664
 30
-0.0000000000000022
 11
-169.8334444497778
 21
-187.7976827826511
 31
-0.0000000000000022
  0
LINE
  5
449
330
1F
100
AcDbEntity
  8
0
 62
     1
100
AcDbLine
 10
-211.6500000000066
 20
-7.099000000000064
 30
0.0000000000000022
 11
-211.6500000000066
 21
-11.93647280000887
 31
0.0000000000000022
  0
LINE
  5
450
330
1F
100
AcDbEntity
  8
0
 62
     1
100
AcDbLine
 10
-268.3876585110112
 20
-116.087499934013
 30
-0.0000000000000044
 11
-279.0296155678689
 21
-126.7294569908704
 31
-0.0000000000000067
  0
LWPOLYLINE
  5
451
330
1F
100
AcDbEntity
  8
0
 62
     1
100
AcDbPolyline
 90
        4
 70
     1
 43
0.0
 10
-250.0000000000006
 20
-164.1375000000001
 10
-234.9500000000011
 20
-164.137500000001
 10
-234.9500000000112
 20
-179.1875000000002
 10
-250.0000000000007
 20
-179.1875000000001
  0
LINE
  5
452
330
1F
100
AcDbEntity
  8
0
 62
     1
100
AcDbLine
 10
-297.0
 20
-210.0
 30
0.0
 11
-0.0000000000000089
 21
-210.0000000000001
 31
0.0
  0
LINE
  5
453
330
1F
100
AcDbEntity
  8
0
 62
     1
100
AcDbLine
 10
-158.0570937074013
 20
-99.14016639811402
 30
0.0000000000000089
 11
-153.0237036354545
 21
-94.10677632616718
 31
0.0000000000000089
  0
LINE
  5
454
330
1F
100
AcDbEntity
  8
0
 62
     1
100
AcDbLine
 10
-270.0500000000003
 20
-126.41875
 30
-0.0000000000000067
 11
-252.0000000000003
 21
-126.41875
 31
-0.0000000000000044
  0
ARC
  5
455
330
1F
100
AcDbEntity
  8
0
 62
     1
100
AcDbCircle
 10
155.6783536146091
 20
-95.5042145137713
 30
-0.0000000000000126
 40
4.999999999999952
210
6.123233995736861E-17
220
-6.123233995736769E-17
230
-1.0
100
AcDbArc
 50
134.9999999999995
 51
195.038351605191
  0
LINE
  5
456
330
1F
100
AcDbEntity
  8
0
 62
     1
100
AcDbLine
 10
-279.0296155678686
 20
-105.4455428771556
 30
-0.0000000000000067
 11
-284.542906292599
 21
-110.9588336018861
 31
-0.0000000000000067
  0
LINE
  5
457
330
1F
100
AcDbEntity
  8
0
 62
     1
100
AcDbLine
 10
-162.8632776509451
 20
-81.24822266556984
 30
0.0000000000000067
 11
-152.1428197086764
 21
-91.96868060783856
 31
0.0000000000000089
  0
LINE
  5
458
330
1F
100
AcDbEntity
  8
0
 62
     1
100
AcDbLine
 10
-226.7000000000014
 20
-7.099000000000029
 30
0.0
 11
-226.6999999999984
 21
-22.14900000000368
 31
0.0
  0
ARC
  5
459
330
1F
100
AcDbEntity
  8
0
 62
     1
100
AcDbCircle
 10
172.55
 20
-82.68025000000007
 30
-0.0000000000000067
 40
1.000000000000014
210
0.0
220
0.0
230
-1.0
100
AcDbArc
 50
180.0
 51
270.0
  0
ARC
  5
460
330
1F
100
AcDbEntity
  8
0
 62
     1
100
AcDbCircle
 10
214.9000000000003
 20
-204.0
 30
-0.0000000000000022
 40
1.000000000000014
210
0.0
220
0.0
230
-1.0
100
AcDbArc
 50
180.0
 51
270.0
  0
LINE
  5
461
330
1F
100
AcDbEntity
  8
0
 62
     1
100
AcDbLine
 10
-152.569448840266
 20
-103.2029935134153
 30
0.0000000000000089
 11
-150.849591782934
 21
-96.80154221830745
 31
0.0000000000000089
  0
LINE
  5
462
330
1F
100
AcDbEntity
  8
0
 62
     1
100
AcDbLine
 10
-289.1000000000003
 20
-135.94375
 30
-0.0000000000000089
 11
-271.0500000000003
 21
-135.94375
 31
-0.0000000000000067
  0
LINE
  5
463
330
1F
100
AcDbEntity
  8
0
 62
     1
100
AcDbLine
 10
-168.5641981752993
 20
-111.4608544465167
 30
0.0000000000000067
 11
-176.0891981752991
 21
-98.42717211956116
 31
0.0000000000000067
  0
LINE
  5
464
330
1F
100
AcDbEntity
  8
0
 62
     1
100
AcDbLine
 10
-173.55
 20
-81.68025000000006
 30
0.0000000000000067
 11
-173.55
 21
-66.6302500000001
 31
0.0000000000000067
  0
ARC
  5
465
330
1F
100
AcDbEntity
  8
0
 62
     1
100
AcDbCircle
 10
190.4863864306551
 20
-107.9466003334875
 30
-0.0000000000000102
 40
2.500000000000005
210
6.477234255901996E-17
220
-6.112992588115043E-17
230
-1.0
100
AcDbArc
 50
-46.65713382712063
 51
125.2796949318579
  0
CIRCLE
  5
466
330
1F
100
AcDbEntity
  8
0
 62
     1
100
AcDbCircle
 10
154.8829084722299
 20
-100.2516540664398
 30
-0.0000000000000278
 40
2.5
210
1.224646799147353E-16
220
0.0
230
-1.0
  0
LINE
  5
467
330
1F
100
AcDbEntity
  8
0
 62
     1
100
AcDbLine
 10
-172.55
 20
-83.68025000000009
 30
0.0000000000000067
 11
-190.6
 21
-83.68025000000004
 31
0.0000000000000044
  0
LINE
  5
468
330
1F
100
AcDbEntity
  8
0
 62
     1
100
AcDbLine
 10
-175.8000000000008
 20
-118.9494574913663
 30
0.0000000000000067
 11
-152.569448840266
 21
-103.2029935134153
 31
0.0000000000000089
  0
LINE
  5
469
330
1F
100
AcDbEntity
  8
0
 62
     1
100
AcDbLine
 10
-266.9003152916733
 20
-114.600156714675
 30
-0.0000000000000044
 11
-266.9734449486381
 21
-114.6732863716398
 31
-0.0000000000000044
  0
LINE
  5
470
330
1F
100
AcDbEntity
  8
0
 62
     1
100
AcDbLine
 10
-173.55
 20
-81.68025000000006
 30
0.0000000000000067
 11
-188.3087121525221
 21
-81.68025000000006
 31
0.0000000000000044
  0
LINE
  5
471
330
1F
100
AcDbEntity
  8
0
 62
     1
100
AcDbLine
 10
-247.75
 20
-19.38650000000008
 30
-0.0000000000000022
 11
-247.7500000000001
 21
-15.62400000000009
 31
-0.0000000000000022
  0
ARC
  5
472
330
1F
100
AcDbEntity
  8
0
 62
     1
100
AcDbCircle
 10
190.6
 20
-80.68025000000004
 30
-0.0000000000000118
 40
2.499999999999952
210
1.959434878635899E-17
220
4.489629325342628E-17
230
-1.0
100
AcDbArc
 50
203.5781784782026
 51
256.0816180027296
  0
LINE
  5
473
330
1F
100
AcDbEntity
  8
0
 62
     1
100
AcDbLine
 10
-151.8334444497778
 20
-133.7976827826512
 30
0.0
 11
-168.8334444497778
 21
-133.7976827826512
 31
-0.0000000000000022
  0
ARC
  5
474
330
1F
100
AcDbEntity
  8
0
 62
     1
100
AcDbCircle
 10
227.7
 20
-6.09900000000005
 30
0.0
 40
0.9999999999999787
210
0.0
220
0.0
230
-1.0
100
AcDbArc
 50
0.0
 51
90.0
  0
LINE
  5
475
330
1F
100
AcDbEntity
  8
0
 62
     1
100
AcDbLine
 10
-192.5999999999997
 20
-11.86150000000021
 30
0.0000000000000044
 11
-192.5999999999997
 21
-26.91150000000013
 31
0.0000000000000044
  0
LINE
  5
476
330
1F
100
AcDbEntity
  8
0
 62
     1
100
AcDbLine
 10
-177.0407686137341
 20
-94.01150006598596
 30
0.0000000000000067
 11
-164.2774912133182
 21
-81.24822266556987
 31
0.0000000000000067
  0
LINE
  5
477
330
1F
100
AcDbEntity
  8
0
 62
     1
100
AcDbLine
 10
-239.879398070946
 20
-81.93497214437043
 30
-0.0000000000000022
 11
-235.9841714421531
 21
-96.47215583002128
 31
-0.0000000000000022
  0
ARC
  5
478
330
1F
100
AcDbEntity
  8
0
 62
     1
100
AcDbCircle
 10
252.1136135693452
 20
-102.1523996665126
 30
-0.0000000000002253
 40
2.500000000000018
210
6.743848349445227E-16
220
5.848062275802706E-16
230
-1.0
100
AcDbArc
 50
133.3428661728792
 51
305.2796949318571
  0
LINE
  5
479
330
1F
100
AcDbEntity
  8
0
 62
     1
100
AcDbLine
 10
-265.8000000000001
 20
-19.38650000000008
 30
-0.0000000000000044
 11
-247.75
 21
-19.38650000000008
 31
-0.0000000000000022
  0
ENDSEC
  0
SECTION
  2
OBJECTS
  0
DICTIONARY
  5
C
330
0
100
AcDbDictionary
281
     1
  3
ACAD_DETAILVIEWSTYLE
350
10055
  3
ACAD_GROUP
350
D
  3
ACAD_LAYOUT
350
10028
  3
ACAD_MATERIAL
350
1002B
  3
ACAD_MLEADERSTYLE
350
1004A
  3
ACAD_MLINESTYLE
350
17
  3
ACAD_PLOTSETTINGS
350
10003
  3
ACAD_PLOTSTYLENAME
350
10004
  3
ACAD_SCALELIST
350
10006
  3
ACAD_SECTIONVIEWSTYLE
350
10056
  3
ACAD_TABLESTYLE
350
10048
  3
ACAD_VISUALSTYLE
350
1002F
  3
AcDbVariableDictionary
350
1004D
  3
ACDB_RECOMPOSE_DATA
350
10059
  3
APPDATA
350
1004C
  0
DICTIONARY
  5
10055
102
{ACAD_REACTORS
330
C
102
}
330
C
100
AcDbDictionary
281
     1
  0
DICTIONARY
  5
D
330
C
100
AcDbDictionary
281
     1
  0
DICTIONARY
  5
10028
102
{ACAD_REACTORS
330
C
102
}
330
C
100
AcDbDictionary
281
     1
  3
Model
350
10029
  3
 1
350
1002A
  0
DICTIONARY
  5
1002B
102
{ACAD_REACTORS
330
C
102
}
330
C
100
AcDbDictionary
281
     1
  3
ByBlock
350
1002D
  3
ByLayer
350
1002C
  3
Global
350
1002E
  0
DICTIONARY
  5
1004A
102
{ACAD_REACTORS
330
C
102
}
330
C
100
AcDbDictionary
281
     1
  3
Standard
350
1004B
  0
DICTIONARY
  5
17
330
C
100
AcDbDictionary
281
     1
  3
Standard
350
10002
  0
DICTIONARY
  5
10003
102
{ACAD_REACTORS
330
C
102
}
330
C
100
AcDbDictionary
281
     1
  0
ACDBDICTIONARYWDFLT
  5
10004
102
{ACAD_REACTORS
330
C
102
}
330
C
100
AcDbDictionary
281
     1
  3
Normal
350
10005
100
AcDbDictionaryWithDefault
340
10005
  0
DICTIONARY
  5
10006
102
{ACAD_REACTORS
330
C
102
}
330
C
100
AcDbDictionary
281
     1
  3
A0
350
10007
  3
A1
350
10008
  3
A2
350
10009
  3
A3
350
1000A
  3
A4
350
1000B
  3
A5
350
1000C
  3
A6
350
1000D
  3
A7
350
1000E
  3
A8
350
1000F
  3
A9
350
10010
  3
B0
350
10011
  3
B1
350
10012
  3
B2
350
10013
  3
B3
350
10014
  3
B4
350
10015
  3
B5
350
10016
  3
B6
350
10017
  3
B7
350
10018
  3
B8
350
10019
  3
B9
350
1001A
  3
C0
350
1001B
  3
C1
350
1001C
  3
C2
350
1001D
  3
C3
350
1001E
  3
C4
350
1001F
  3
C5
350
10020
  3
C6
350
10021
  3
C7
350
10022
  3
C8
350
10023
  3
C9
350
10024
  3
D0
350
10025
  3
D1
350
10026
  3
D2
350
10027
  0
DICTIONARY
  5
10056
102
{ACAD_REACTORS
330
C
102
}
330
C
100
AcDbDictionary
281
     1
  0
DICTIONARY
  5
10048
102
{ACAD_REACTORS
330
C
102
}
330
C
100
AcDbDictionary
281
     1
  3
Standard
350
10049
  0
DICTIONARY
  5
1002F
102
{ACAD_REACTORS
330
C
102
}
330
C
100
AcDbDictionary
281
     1
  3
2dWireframe
350
10034
  3
Basic
350
10037
  3
Brighten
350
1003B
  3
ColorChange
350
1003F
  3
Conceptual
350
10039
  3
Dim
350
1003A
  3
EdgeColorOff
350
10042
  3
Facepattern
350
1003E
  3
Flat
350
10030
  3
FlatWithEdges
350
10031
  3
Gouraud
350
10032
  3
GouraudWithEdges
350
10033
  3
Hidden
350
10036
  3
JitterOff
350
10040
  3
Linepattern
350
1003D
  3
OverhangOff
350
10041
  3
Realistic
350
10038
  3
Shaded
350
10047
  3
Shaded with edges
350
10046
  3
Shades of Gray
350
10043
  3
Sketchy
350
10044
  3
Thicken
350
1003C
  3
Wireframe
350
10035
  3
X-Ray
350
10045
  0
DICTIONARY
  5
1004D
102
{ACAD_REACTORS
330
C
102
}
330
C
100
AcDbDictionary
281
     1
  3
CANNOSCALE
350
1004E
  3
CMLEADERSTYLE
350
10053
  3
CTABLESTYLE
350
10052
  3
MSLTSCALE
350
10054
  0
XRECORD
  5
10059
102
{ACAD_REACTORS
330
C
102
}
330
C
100
AcDbXrecord
280
     1
 90
        1
330
10049
  0
DICTIONARY
  5
1004C
102
{ACAD_REACTORS
330
C
102
}
330
C
100
AcDbDictionary
281
     1
  0
LAYOUT
  5
10029
102
{ACAD_REACTORS
330
10028
102
}
330
10028
100
AcDbPlotSettings
  1

  2
none_device
  4
na-letter
  6

 40
6.35
 41
6.35
 42
6.35
 43
14.11111111111111
 44
215.9
 45
279.4
 46
0.0
 47
0.0
 48
0.0
 49
0.0
140
0.0
141
0.0
142
1.0
143
0.087385613954985
 70
  1712
 72
     1
 73
     0
 74
     0
  7

 75
     0
 76
     0
 77
     2
 78
   300
147
11.44353120314667
148
-1.551528164229591
149
0.0
100
AcDbLayout
  1
Model
 70
     1
 71
     0
 10
0.0
 20
0.0
 11
12.0
 21
9.0
 12
0.0
 22
0.0
 32
0.0
 14
-297.0
 24
-210.0000000000001
 34
-0.000000000000009
 15
0.0000000000000568
 25
0.0000000000000568
 35
0.0000000000000093
146
0.0
 13
0.0
 23
0.0
 33
0.0
 16
1.0
 26
0.0
 36
0.0
 17
0.0
 27
1.0
 37
0.0
 76
     0
330
1F
331
10001
  0
LAYOUT
  5
1002A
102
{ACAD_REACTORS
330
10028
102
}
330
10028
100
AcDbPlotSettings
  1

  2
none_device
  4

  6

 40
0.0
 41
0.0
 42
0.0
 43
0.0
 44
0.0
 45
0.0
 46
0.0
 47
0.0
 48
0.0
 49
0.0
140
0.0
141
0.0
142
1.0
143
1.0
 70
   688
 72
     0
 73
     0
 74
     5
  7

 75
    16
 76
     0
 77
     2
 78
   300
147
1.0
148
0.0
149
0.0
100
AcDbLayout
  1
 1
 70
     1
 71
     1
 10
0.0
 20
0.0
 11
0.0
 21
0.0
 12
0.0
 22
0.0
 32
0.0
 14
1.000000000000000E+20
 24
1.000000000000000E+20
 34
1.000000000000000E+20
 15
-1.000000000000000E+20
 25
-1.000000000000000E+20
 35
-1.000000000000000E+20
146
0.0
 13
0.0
 23
0.0
 33
0.0
 16
1.0
 26
0.0
 36
0.0
 17
0.0
 27
1.0
 37
0.0
 76
     0
330
1B
  0
MATERIAL
  5
1002D
102
{ACAD_REACTORS
330
1002B
102
}
330
1002B
100
AcDbMaterial
  1
ByBlock
 72
     1
 94
      127
  0
MATERIAL
  5
1002C
102
{ACAD_REACTORS
330
1002B
102
}
330
1002B
100
AcDbMaterial
  1
ByLayer
 72
     1
 94
      127
  0
MATERIAL
  5
1002E
102
{ACAD_REACTORS
330
1002B
102
}
330
1002B
100
AcDbMaterial
  1
Global
 72
     1
 94
      127
  0
MLEADERSTYLE
  5
1004B
102
{ACAD_REACTORS
330
1004A
102
}
330
1004A
100
AcDbMLeaderStyle
179
     2
170
     2
171
     1
172
     0
 90
        2
 40
0.0
 41
0.0
173
     1
 91
-1056964608
340
14
 92
       -2
290
     1
 42
0.09
291
     1
 43
0.36
  3
Standard
341
0
 44
0.18
300

342
11
174
     1
178
     1
175
     1
176
     0
 93
-1056964608
 45
0.18
292
     0
297
     0
 46
0.18
343
0
 94
-1056964608
 47
1.0
 49
1.0
140
1.0
293
     1
141
0.0
294
     1
177
     0
142
1.0
295
     0
296
     0
143
0.125
271
     0
272
     9
273
     9
298
     0
  0
MLINESTYLE
  5
10002
102
{ACAD_REACTORS
330
17
102
}
330
17
100
AcDbMlineStyle
  2
Standard
 70
     0
  3

 62
   256
 51
90.0
 52
90.0
 71
     2
 49
0.5
 62
   256
  6
BYLAYER
 49
-0.5
 62
   256
  6
BYLAYER
  0
ACDBPLACEHOLDER
  5
10005
102
{ACAD_REACTORS
330
10004
102
}
330
10004
  0
SCALE
  5
10007
102
{ACAD_REACTORS
330
10006
102
}
330
10006
100
AcDbScale
 70
     0
300
1:1
140
1.0
141
1.0
290
     1
  0
SCALE
  5
10008
102
{ACAD_REACTORS
330
10006
102
}
330
10006
100
AcDbScale
 70
     0
300
1:2
140
1.0
141
2.0
290
     0
  0
SCALE
  5
10009
102
{ACAD_REACTORS
330
10006
102
}
330
10006
100
AcDbScale
 70
     0
300
1:4
140
1.0
141
4.0
290
     0
  0
SCALE
  5
1000A
102
{ACAD_REACTORS
330
10006
102
}
330
10006
100
AcDbScale
 70
     0
300
1:5
140
1.0
141
5.0
290
     0
  0
SCALE
  5
1000B
102
{ACAD_REACTORS
330
10006
102
}
330
10006
100
AcDbScale
 70
     0
300
1:8
140
1.0
141
8.0
290
     0
  0
SCALE
  5
1000C
102
{ACAD_REACTORS
330
10006
102
}
330
10006
100
AcDbScale
 70
     0
300
1:10
140
1.0
141
10.0
290
     0
  0
SCALE
  5
1000D
102
{ACAD_REACTORS
330
10006
102
}
330
10006
100
AcDbScale
 70
     0
300
1:16
140
1.0
141
16.0
290
     0
  0
SCALE
  5
1000E
102
{ACAD_REACTORS
330
10006
102
}
330
10006
100
AcDbScale
 70
     0
300
1:20
140
1.0
141
20.0
290
     0
  0
SCALE
  5
1000F
102
{ACAD_REACTORS
330
10006
102
}
330
10006
100
AcDbScale
 70
     0
300
1:30
140
1.0
141
30.0
290
     0
  0
SCALE
  5
10010
102
{ACAD_REACTORS
330
10006
102
}
330
10006
100
AcDbScale
 70
     0
300
1:40
140
1.0
141
40.0
290
     0
  0
SCALE
  5
10011
102
{ACAD_REACTORS
330
10006
102
}
330
10006
100
AcDbScale
 70
     0
300
1:50
140
1.0
141
50.0
290
     0
  0
SCALE
  5
10012
102
{ACAD_REACTORS
330
10006
102
}
330
10006
100
AcDbScale
 70
     0
300
1:100
140
1.0
141
100.0
290
     0
  0
SCALE
  5
10013
102
{ACAD_REACTORS
330
10006
102
}
330
10006
100
AcDbScale
 70
     0
300
2:1
140
2.0
141
1.0
290
     0
  0
SCALE
  5
10014
102
{ACAD_REACTORS
330
10006
102
}
330
10006
100
AcDbScale
 70
     0
300
4:1
140
4.0
141
1.0
290
     0
  0
SCALE
  5
10015
102
{ACAD_REACTORS
330
10006
102
}
330
10006
100
AcDbScale
 70
     0
300
8:1
140
8.0
141
1.0
290
     0
  0
SCALE
  5
10016
102
{ACAD_REACTORS
330
10006
102
}
330
10006
100
AcDbScale
 70
     0
300
10:1
140
10.0
141
1.0
290
     0
  0
SCALE
  5
10017
102
{ACAD_REACTORS
330
10006
102
}
330
10006
100
AcDbScale
 70
     0
300
100:1
140
100.0
141
1.0
290
     0
  0
SCALE
  5
10018
102
{ACAD_REACTORS
330
10006
102
}
330
10006
100
AcDbScale
 70
     0
300
1/128" = 1'-0"
140
0.0078125
141
12.0
290
     0
  0
SCALE
  5
10019
102
{ACAD_REACTORS
330
10006
102
}
330
10006
100
AcDbScale
 70
     0
300
1/64" = 1'-0"
140
0.015625
141
12.0
290
     0
  0
SCALE
  5
1001A
102
{ACAD_REACTORS
330
10006
102
}
330
10006
100
AcDbScale
 70
     0
300
1/32" = 1'-0"
140
0.03125
141
12.0
290
     0
  0
SCALE
  5
1001B
102
{ACAD_REACTORS
330
10006
102
}
330
10006
100
AcDbScale
 70
     0
300
1/16" = 1'-0"
140
0.0625
141
12.0
290
     0
  0
SCALE
  5
1001C
102
{ACAD_REACTORS
330
10006
102
}
330
10006
100
AcDbScale
 70
     0
300
3/32" = 1'-0"
140
0.09375
141
12.0
290
     0
  0
SCALE
  5
1001D
102
{ACAD_REACTORS
330
10006
102
}
330
10006
100
AcDbScale
 70
     0
300
1/8" = 1'-0"
140
0.125
141
12.0
290
     0
  0
SCALE
  5
1001E
102
{ACAD_REACTORS
330
10006
102
}
330
10006
100
AcDbScale
 70
     0
300
3/16" = 1'-0"
140
0.1875
141
12.0
290
     0
  0
SCALE
  5
1001F
102
{ACAD_REACTORS
330
10006
102
}
330
10006
100
AcDbScale
 70
     0
300
1/4" = 1'-0"
140
0.25
141
12.0
290
     0
  0
SCALE
  5
10020
102
{ACAD_REACTORS
330
10006
102
}
330
10006
100
AcDbScale
 70
     0
300
3/8" = 1'-0"
140
0.375
141
12.0
290
     0
  0
SCALE
  5
10021
102
{ACAD_REACTORS
330
10006
102
}
330
10006
100
AcDbScale
 70
     0
300
1/2" = 1'-0"
140
0.5
141
12.0
290
     0
  0
SCALE
  5
10022
102
{ACAD_REACTORS
330
10006
102
}
330
10006
100
AcDbScale
 70
     0
300
3/4" = 1'-0"
140
0.75
141
12.0
290
     0
  0
SCALE
  5
10023
102
{ACAD_REACTORS
330
10006
102
}
330
10006
100
AcDbScale
 70
     0
300
1" = 1'-0"
140
1.0
141
12.0
290
     0
  0
SCALE
  5
10024
102
{ACAD_REACTORS
330
10006
102
}
330
10006
100
AcDbScale
 70
     0
300
1-1/2" = 1'-0"
140
1.5
141
12.0
290
     0
  0
SCALE
  5
10025
102
{ACAD_REACTORS
330
10006
102
}
330
10006
100
AcDbScale
 70
     0
300
3" = 1'-0"
140
3.0
141
12.0
290
     0
  0
SCALE
  5
10026
102
{ACAD_REACTORS
330
10006
102
}
330
10006
100
AcDbScale
 70
     0
300
6" = 1'-0"
140
6.0
141
12.0
290
     0
  0
SCALE
  5
10027
102
{ACAD_REACTORS
330
10006
102
}
330
10006
100
AcDbScale
 70
     0
300
1'-0" = 1'-0"
140
12.0
141
12.0
290
     0
  0
TABLESTYLE
  5
10049
102
{ACAD_REACTORS
330
10048
102
}
102
{ACAD_XDICTIONARY
360
10057
102
}
330
10048
100
AcDbTableStyle
  3
Standard
 70
     0
 71
     0
 40
0.06
 41
0.06
280
     0
281
     0
  7
STANDARD
140
0.18
170
     2
 62
     0
 63
   257
283
     0
 90
        4
 91
        0
  1

274
    -2
284
     1
 64
     0
275
    -2
285
     1
 65
     0
276
    -2
286
     1
 66
     0
277
    -2
287
     1
 67
     0
278
    -2
288
     1
 68
     0
279
    -2
289
     1
 69
     0
  7
STANDARD
140
0.25
170
     5
 62
     0
 63
   257
283
     0
 90
        4
 91
        0
  1

274
    -2
284
     1
 64
     0
275
    -2
285
     1
 65
     0
276
    -2
286
     1
 66
     0
277
    -2
287
     1
 67
     0
278
    -2
288
     1
 68
     0
279
    -2
289
     1
 69
     0
  7
STANDARD
140
0.18
170
     5
 62
     0
 63
   257
283
     0
 90
        4
 91
        0
  1

274
    -2
284
     1
 64
     0
275
    -2
285
     1
 65
     0
276
    -2
286
     1
 66
     0
277
    -2
287
     1
 67
     0
278
    -2
288
     1
 68
     0
279
    -2
289
     1
 69
     0
  0
VISUALSTYLE
  5
10034
102
{ACAD_REACTORS
330
1002F
102
}
330
1002F
100
AcDbVisualStyle
  2
2dWireframe
 70
     4
177
     3
291
     0
 70
    58
 90
        0
176
     1
 90
        2
176
     1
 90
        0
176
     1
 90
        0
176
     1
 40
0.6
176
     1
 40
30.0
176
     1
 62
     7
420
 16777215
176
     1
 90
        1
176
     1
 90
        4
176
     1
 62
     7
176
     1
 62
   257
176
     1
 90
        1
176
     1
 90
        1
176
     1
 40
1.0
176
     1
 90
        0
176
     1
 62
   257
176
     1
 40
1.0
176
     1
 90
        1
176
     1
 90
        6
176
     1
 90
        2
176
     1
 62
     7
176
     1
 90
        5
176
     1
 90
        0
176
     1
 90
        0
176
     1
290
     0
176
     1
 90
        1
176
     1
 40
0.0
176
     1
 90
        0
176
     1
290
     1
176
     1
290
     1
176
     1
290
     0
176
     1
290
     0
176
     1
290
     0
176
     1
290
     0
176
     1
290
     0
176
     1
290
     0
176
     1
290
     0
176
     1
 90
       50
176
     1
 40
0.0
176
     1
 40
1.0
176
     1
 90
        0
176
     1
 62
   178
420
        0
176
     1
 90
       50
176
     1
 90
        3
176
     1
 62
     5
420
      255
176
     1
290
     0
176
     1
 90
       50
176
     1
 90
       50
176
     1
 90
       50
176
     1
290
     0
176
     1
 90
       50
176
     1
 62
   256
176
     0
 40
1.0
176
     0
 90
        2
176
     1
  1
strokes_ogs.tif
176
     1
290
     0
176
     1
 40
1.0
176
     1
 40
1.0
176
     1
  0
VISUALSTYLE
  5
10037
102
{ACAD_REACTORS
330
1002F
102
}
330
1002F
100
AcDbVisualStyle
  2
Basic
 70
     7
177
     3
291
     1
 70
    58
 90
        1
176
     1
 90
        0
176
     1
 90
        1
176
     1
 90
        0
176
     1
 40
0.6
176
     1
 40
30.0
176
     1
 62
     7
420
 16777215
176
     1
 90
        0
176
     1
 90
        4
176
     1
 62
     7
176
     1
 62
   257
176
     1
 90
        1
176
     1
 90
        1
176
     1
 40
1.0
176
     1
 90
        8
176
     1
 62
     7
176
     1
 40
1.0
176
     1
 90
        1
176
     1
 90
        6
176
     1
 90
        2
176
     1
 62
     7
176
     1
 90
        5
176
     1
 90
        0
176
     1
 90
        0
176
     1
290
     0
176
     1
 90
        1
176
     1
 40
0.0
176
     1
 90
        0
176
     1
290
     0
176
     1
290
     1
176
     1
290
     1
176
     1
290
     0
176
     1
290
     0
176
     1
290
     0
176
     1
290
     0
176
     1
290
     0
176
     1
290
     0
176
     1
 90
       50
176
     1
 40
0.0
176
     1
 40
1.0
176
     1
 90
        0
176
     1
 62
   178
420
        0
176
     1
 90
       50
176
     1
 90
        3
176
     1
 62
     5
420
      255
176
     1
290
     0
176
     1
 90
       50
176
     1
 90
       50
176
     1
 90
       50
176
     1
290
     0
176
     1
 90
       50
176
     1
 62
   256
176
     0
 40
1.0
176
     0
 90
        2
176
     1
  1
strokes_ogs.tif
176
     1
290
     0
176
     1
 40
1.0
176
     1
 40
1.0
176
     1
  0
VISUALSTYLE
  5
1003B
102
{ACAD_REACTORS
330
1002F
102
}
330
1002F
100
AcDbVisualStyle
  2
Brighten
 70
    12
177
     3
291
     1
 70
    58
 90
        2
176
     1
 90
        2
176
     1
 90
        0
176
     1
 90
        0
176
     1
 40
0.6
176
     1
 40
30.0
176
     1
 62
     7
420
 16777215
176
     1
 90
        1
176
     1
 90
        4
176
     1
 62
     7
176
     1
 62
   257
176
     1
 90
        1
176
     1
 90
        1
176
     1
 40
1.0
176
     1
 90
        8
176
     1
 62
     7
176
     1
 40
1.0
176
     1
 90
        1
176
     1
 90
        6
176
     1
 90
        2
176
     1
 62
     7
176
     1
 90
        5
176
     1
 90
        0
176
     1
 90
        0
176
     1
290
     0
176
     1
 90
        1
176
     1
 40
50.0
176
     1
 90
        0
176
     1
290
     0
176
     1
290
     1
176
     1
290
     1
176
     1
290
     0
176
     1
290
     0
176
     1
290
     0
176
     1
290
     0
176
     1
290
     0
176
     1
290
     0
176
     1
 90
       50
176
     1
 40
0.0
176
     1
 40
1.0
176
     1
 90
        0
176
     1
 62
   178
420
        0
176
     1
 90
       50
176
     1
 90
        3
176
     1
 62
     5
420
      255
176
     1
290
     0
176
     1
 90
       50
176
     1
 90
       50
176
     1
 90
       50
176
     1
290
     0
176
     1
 90
       50
176
     1
 62
   256
176
     0
 40
1.0
176
     0
 90
        2
176
     1
  1
strokes_ogs.tif
176
     1
290
     0
176
     1
 40
1.0
176
     1
 40
1.0
176
     1
  0
VISUALSTYLE
  5
1003F
102
{ACAD_REACTORS
330
1002F
102
}
330
1002F
100
AcDbVisualStyle
  2
ColorChange
 70
    16
177
     3
291
     1
 70
    58
 90
        2
176
     1
 90
        2
176
     1
 90
        3
176
     1
 90
        0
176
     1
 40
0.6
176
     1
 40
30.0
176
     1
 62
     8
420
  8421504
176
     1
 90
        1
176
     1
 90
        4
176
     1
 62
     7
176
     1
 62
   257
176
     1
 90
        1
176
     1
 90
        1
176
     1
 40
1.0
176
     1
 90
        8
176
     1
 62
     8
420
  8421504
176
     1
 40
1.0
176
     1
 90
        1
176
     1
 90
        6
176
     1
 90
        2
176
     1
 62
     7
176
     1
 90
        5
176
     1
 90
        0
176
     1
 90
        0
176
     1
290
     0
176
     1
 90
        1
176
     1
 40
0.0
176
     1
 90
        0
176
     1
290
     0
176
     1
290
     1
176
     1
290
     1
176
     1
290
     0
176
     1
290
     0
176
     1
290
     0
176
     1
290
     0
176
     1
290
     0
176
     1
290
     0
176
     1
 90
       50
176
     1
 40
0.0
176
     1
 40
1.0
176
     1
 90
        0
176
     1
 62
   178
420
        0
176
     1
 90
       50
176
     1
 90
        3
176
     1
 62
     5
420
      255
176
     1
290
     0
176
     1
 90
       50
176
     1
 90
       50
176
     1
 90
       50
176
     1
290
     0
176
     1
 90
       50
176
     1
 62
   256
176
     0
 40
1.0
176
     0
 90
        2
176
     1
  1
strokes_ogs.tif
176
     1
290
     0
176
     1
 40
1.0
176
     1
 40
1.0
176
     1
  0
VISUALSTYLE
  5
10039
102
{ACAD_REACTORS
330
1002F
102
}
330
1002F
100
AcDbVisualStyle
  2
Conceptual
 70
     9
177
     3
291
     0
 70
    58
 90
        3
176
     1
 90
        2
176
     1
 90
        0
176
     1
 90
        0
176
     1
 40
0.6
176
     1
 40
30.0
176
     1
 62
     7
420
 16777215
176
     1
 90
        2
176
     1
 90
        2
176
     1
 62
     7
176
     1
 62
   257
176
     1
 90
        1
176
     1
 90
        1
176
     1
 40
179.0
176
     1
 90
        8
176
     1
 62
     7
176
     1
 40
1.0
176
     1
 90
        1
176
     1
 90
        6
176
     1
 90
        2
176
     1
 62
     7
176
     1
 90
        3
176
     1
 90
        0
176
     1
 90
        0
176
     1
290
     0
176
     1
 90
        1
176
     1
 40
0.0
176
     1
 90
        0
176
     1
290
     0
176
     1
290
     1
176
     1
290
     1
176
     1
290
     0
176
     1
290
     0
176
     1
290
     0
176
     1
290
     0
176
     1
290
     0
176
     1
290
     0
176
     1
 90
       50
176
     1
 40
0.0
176
     1
 40
1.0
176
     1
 90
        0
176
     1
 62
   178
420
        0
176
     1
 90
       50
176
     1
 90
        3
176
     1
 62
     5
420
      255
176
     1
290
     0
176
     1
 90
       50
176
     1
 90
       50
176
     1
 90
       50
176
     1
290
     0
176
     1
 90
       50
176
     1
 62
   256
176
     0
 40
1.0
176
     0
 90
        2
176
     1
  1
strokes_ogs.tif
176
     1
290
     0
176
     1
 40
1.0
176
     1
 40
1.0
176
     1
  0
VISUALSTYLE
  5
1003A
102
{ACAD_REACTORS
330
1002F
102
}
330
1002F
100
AcDbVisualStyle
  2
Dim
 70
    11
177
     3
291
     1
 70
    58
 90
        2
176
     1
 90
        2
176
     1
 90
        0
176
     1
 90
        0
176
     1
 40
0.6
176
     1
 40
30.0
176
     1
 62
     7
420
 16777215
176
     1
 90
        1
176
     1
 90
        4
176
     1
 62
     7
176
     1
 62
   257
176
     1
 90
        1
176
     1
 90
        1
176
     1
 40
1.0
176
     1
 90
        8
176
     1
 62
     7
176
     1
 40
1.0
176
     1
 90
        1
176
     1
 90
        6
176
     1
 90
        2
176
     1
 62
     7
176
     1
 90
        5
176
     1
 90
        0
176
     1
 90
        0
176
     1
290
     0
176
     1
 90
        1
176
     1
 40
-50.0
176
     1
 90
        0
176
     1
290
     0
176
     1
290
     1
176
     1
290
     1
176
     1
290
     0
176
     1
290
     0
176
     1
290
     0
176
     1
290
     0
176
     1
290
     0
176
     1
290
     0
176
     1
 90
       50
176
     1
 40
0.0
176
     1
 40
1.0
176
     1
 90
        0
176
     1
 62
   178
420
        0
176
     1
 90
       50
176
     1
 90
        3
176
     1
 62
     5
420
      255
176
     1
290
     0
176
     1
 90
       50
176
     1
 90
       50
176
     1
 90
       50
176
     1
290
     0
176
     1
 90
       50
176
     1
 62
   256
176
     0
 40
1.0
176
     0
 90
        2
176
     1
  1
strokes_ogs.tif
176
     1
290
     0
176
     1
 40
1.0
176
     1
 40
1.0
176
     1
  0
VISUALSTYLE
  5
10042
102
{ACAD_REACTORS
330
1002F
102
}
330
1002F
100
AcDbVisualStyle
  2
EdgeColorOff
 70
    22
177
     3
291
     1
 70
    58
 90
        2
176
     0
 90
        2
176
     0
 90
        0
176
     0
 90
        0
176
     0
 40
0.6
176
     0
 40
30.0
176
     0
 62
     7
420
 16777215
176
     0
 90
        1
176
     0
 90
        4
176
     0
 62
     7
176
     0
 62
   257
176
     0
 90
        1
176
     0
 90
        1
176
     0
 40
1.0
176
     0
 90
        8
176
     2
 62
     7
176
     0
 40
1.0
176
     0
 90
        1
176
     0
 90
        6
176
     0
 90
        2
176
     0
 62
     7
176
     0
 90
        5
176
     0
 90
        0
176
     0
 90
        0
176
     0
290
     0
176
     0
 90
        1
176
     0
 40
0.0
176
     0
 90
        0
176
     0
290
     0
176
     0
290
     1
176
     0
290
     1
176
     0
290
     0
176
     0
290
     0
176
     0
290
     0
176
     0
290
     0
176
     0
290
     0
176
     0
290
     0
176
     0
 90
       50
176
     0
 40
0.0
176
     0
 40
1.0
176
     0
 90
        0
176
     0
 62
   178
420
        0
176
     0
 90
       50
176
     0
 90
        3
176
     0
 62
     5
420
      255
176
     0
290
     0
176
     0
 90
       50
176
     0
 90
       50
176
     0
 90
       50
176
     0
290
     0
176
     0
 90
       50
176
     0
 62
   256
176
     0
 40
1.0
176
     0
 90
        2
176
     0
  1
strokes_ogs.tif
176
     0
290
     0
176
     0
 40
1.0
176
     0
 40
1.0
176
     0
  0
VISUALSTYLE
  5
1003E
102
{ACAD_REACTORS
330
1002F
102
}
330
1002F
100
AcDbVisualStyle
  2
Facepattern
 70
    15
177
     3
291
     1
 70
    58
 90
        2
176
     1
 90
        2
176
     1
 90
        0
176
     1
 90
        0
176
     1
 40
0.6
176
     1
 40
30.0
176
     1
 62
     7
420
 16777215
176
     1
 90
        1
176
     1
 90
        4
176
     1
 62
     7
176
     1
 62
   257
176
     1
 90
        1
176
     1
 90
        1
176
     1
 40
1.0
176
     1
 90
        8
176
     1
 62
     7
176
     1
 40
1.0
176
     1
 90
        1
176
     1
 90
        6
176
     1
 90
        2
176
     1
 62
     7
176
     1
 90
        5
176
     1
 90
        0
176
     1
 90
        0
176
     1
290
     0
176
     1
 90
        1
176
     1
 40
0.0
176
     1
 90
        0
176
     1
290
     0
176
     1
290
     1
176
     1
290
     1
176
     1
290
     0
176
     1
290
     0
176
     1
290
     0
176
     1
290
     0
176
     1
290
     0
176
     1
290
     0
176
     1
 90
       50
176
     1
 40
0.0
176
     1
 40
1.0
176
     1
 90
        0
176
     1
 62
   178
420
        0
176
     1
 90
       50
176
     1
 90
        3
176
     1
 62
     5
420
      255
176
     1
290
     0
176
     1
 90
       50
176
     1
 90
       50
176
     1
 90
       50
176
     1
290
     0
176
     1
 90
       50
176
     1
 62
   256
176
     0
 40
1.0
176
     0
 90
        2
176
     1
  1
strokes_ogs.tif
176
     1
290
     0
176
     1
 40
1.0
176
     1
 40
1.0
176
     1
  0
VISUALSTYLE
  5
10030
102
{ACAD_REACTORS
330
1002F
102
}
330
1002F
100
AcDbVisualStyle
  2
Flat
 70
     0
177
     3
291
     1
 70
    58
 90
        2
176
     1
 90
        1
176
     1
 90
        1
176
     1
 90
        2
176
     1
 40
0.6
176
     1
 40
30.0
176
     1
 62
     7
420
 16777215
176
     1
 90
        0
176
     1
 90
        0
176
     1
 62
     7
176
     1
 62
   257
176
     1
 90
        1
176
     1
 90
        1
176
     1
 40
1.0
176
     1
 90
        8
176
     1
 62
     7
176
     1
 40
1.0
176
     1
 90
        1
176
     1
 90
        6
176
     1
 90
        2
176
     1
 62
     7
176
     1
 90
        5
176
     1
 90
        0
176
     1
 90
        0
176
     1
290
     0
176
     1
 90
       13
176
     1
 40
0.0
176
     1
 90
        0
176
     1
290
     0
176
     1
290
     1
176
     1
290
     1
176
     1
290
     0
176
     1
290
     0
176
     1
290
     0
176
     1
290
     0
176
     1
290
     0
176
     1
290
     0
176
     1
 90
       50
176
     1
 40
0.0
176
     1
 40
1.0
176
     1
 90
        0
176
     1
 62
   178
420
        0
176
     1
 90
       50
176
     1
 90
        3
176
     1
 62
     5
420
      255
176
     1
290
     0
176
     1
 90
       50
176
     1
 90
       50
176
     1
 90
       50
176
     1
290
     0
176
     1
 90
       50
176
     1
 62
   256
176
     0
 40
1.0
176
     0
 90
        2
176
     1
  1
strokes_ogs.tif
176
     1
290
     0
176
     1
 40
1.0
176
     1
 40
1.0
176
     1
  0
VISUALSTYLE
  5
10031
102
{ACAD_REACTORS
330
1002F
102
}
330
1002F
100
AcDbVisualStyle
  2
FlatWithEdges
 70
     1
177
     3
291
     1
 70
    58
 90
        2
176
     1
 90
        1
176
     1
 90
        1
176
     1
 90
        2
176
     1
 40
0.6
176
     1
 40
30.0
176
     1
 62
     7
420
 16777215
176
     1
 90
        1
176
     1
 90
        0
176
     1
 62
     7
176
     1
 62
   257
176
     1
 90
        1
176
     1
 90
        1
176
     1
 40
1.0
176
     1
 90
        0
176
     1
 62
   257
176
     1
 40
1.0
176
     1
 90
        1
176
     1
 90
        6
176
     1
 90
        2
176
     1
 62
     7
176
     1
 90
        5
176
     1
 90
        0
176
     1
 90
        0
176
     1
290
     0
176
     1
 90
       13
176
     1
 40
0.0
176
     1
 90
        0
176
     1
290
     0
176
     1
290
     1
176
     1
290
     1
176
     1
290
     0
176
     1
290
     0
176
     1
290
     0
176
     1
290
     0
176
     1
290
     0
176
     1
290
     0
176
     1
 90
       50
176
     1
 40
0.0
176
     1
 40
1.0
176
     1
 90
        0
176
     1
 62
   178
420
        0
176
     1
 90
       50
176
     1
 90
        3
176
     1
 62
     5
420
      255
176
     1
290
     0
176
     1
 90
       50
176
     1
 90
       50
176
     1
 90
       50
176
     1
290
     0
176
     1
 90
       50
176
     1
 62
   256
176
     0
 40
1.0
176
     0
 90
        2
176
     1
  1
strokes_ogs.tif
176
     1
290
     0
176
     1
 40
1.0
176
     1
 40
1.0
176
     1
  0
VISUALSTYLE
  5
10032
102
{ACAD_REACTORS
330
1002F
102
}
330
1002F
100
AcDbVisualStyle
  2
Gouraud
 70
     2
177
     3
291
     1
 70
    58
 90
        2
176
     1
 90
        2
176
     1
 90
        1
176
     1
 90
        2
176
     1
 40
0.6
176
     1
 40
30.0
176
     1
 62
     7
420
 16777215
176
     1
 90
        0
176
     1
 90
        0
176
     1
 62
     7
176
     1
 62
   257
176
     1
 90
        1
176
     1
 90
        1
176
     1
 40
1.0
176
     1
 90
        0
176
     1
 62
     7
176
     1
 40
1.0
176
     1
 90
        1
176
     1
 90
        6
176
     1
 90
        2
176
     1
 62
     7
176
     1
 90
        5
176
     1
 90
        0
176
     1
 90
        0
176
     1
290
     0
176
     1
 90
       13
176
     1
 40
0.0
176
     1
 90
        0
176
     1
290
     0
176
     1
290
     1
176
     1
290
     1
176
     1
290
     0
176
     1
290
     0
176
     1
290
     0
176
     1
290
     0
176
     1
290
     0
176
     1
290
     0
176
     1
 90
       50
176
     1
 40
0.0
176
     1
 40
1.0
176
     1
 90
        0
176
     1
 62
   178
420
        0
176
     1
 90
       50
176
     1
 90
        3
176
     1
 62
     5
420
      255
176
     1
290
     0
176
     1
 90
       50
176
     1
 90
       50
176
     1
 90
       50
176
     1
290
     0
176
     1
 90
       50
176
     1
 62
   256
176
     0
 40
1.0
176
     0
 90
        2
176
     1
  1
strokes_ogs.tif
176
     1
290
     0
176
     1
 40
1.0
176
     1
 40
1.0
176
     1
  0
VISUALSTYLE
  5
10033
102
{ACAD_REACTORS
330
1002F
102
}
330
1002F
100
AcDbVisualStyle
  2
GouraudWithEdges
 70
     3
177
     3
291
     1
 70
    58
 90
        2
176
     1
 90
        2
176
     1
 90
        1
176
     1
 90
        2
176
     1
 40
0.6
176
     1
 40
30.0
176
     1
 62
     7
420
 16777215
176
     1
 90
        1
176
     1
 90
        0
176
     1
 62
     7
176
     1
 62
   257
176
     1
 90
        1
176
     1
 90
        1
176
     1
 40
1.0
176
     1
 90
        0
176
     1
 62
   257
176
     1
 40
1.0
176
     1
 90
        1
176
     1
 90
        6
176
     1
 90
        2
176
     1
 62
     7
176
     1
 90
        5
176
     1
 90
        0
176
     1
 90
        0
176
     1
290
     0
176
     1
 90
       13
176
     1
 40
0.0
176
     1
 90
        0
176
     1
290
     0
176
     1
290
     1
176
     1
290
     1
176
     1
290
     0
176
     1
290
     0
176
     1
290
     0
176
     1
290
     0
176
     1
290
     0
176
     1
290
     0
176
     1
 90
       50
176
     1
 40
0.0
176
     1
 40
1.0
176
     1
 90
        0
176
     1
 62
   178
420
        0
176
     1
 90
       50
176
     1
 90
        3
176
     1
 62
     5
420
      255
176
     1
290
     0
176
     1
 90
       50
176
     1
 90
       50
176
     1
 90
       50
176
     1
290
     0
176
     1
 90
       50
176
     1
 62
   256
176
     0
 40
1.0
176
     0
 90
        2
176
     1
  1
strokes_ogs.tif
176
     1
290
     0
176
     1
 40
1.0
176
     1
 40
1.0
176
     1
  0
VISUALSTYLE
  5
10036
102
{ACAD_REACTORS
330
1002F
102
}
330
1002F
100
AcDbVisualStyle
  2
Hidden
 70
     6
177
     3
291
     0
 70
    58
 90
        1
176
     1
 90
        2
176
     1
 90
        2
176
     1
 90
        0
176
     1
 40
0.6
176
     1
 40
30.0
176
     1
 62
     7
420
 16777215
176
     1
 90
        2
176
     1
 90
        2
176
     1
 62
     7
176
     1
 62
   257
176
     1
 90
        2
176
     1
 90
        1
176
     1
 40
40.0
176
     1
 90
        0
176
     1
 62
   257
176
     1
 40
1.0
176
     1
 90
        1
176
     1
 90
        6
176
     1
 90
        2
176
     1
 62
     7
176
     1
 90
        3
176
     1
 90
        0
176
     1
 90
        0
176
     1
290
     0
176
     1
 90
        1
176
     1
 40
0.0
176
     1
 90
        0
176
     1
290
     0
176
     1
290
     1
176
     1
290
     1
176
     1
290
     0
176
     1
290
     0
176
     1
290
     0
176
     1
290
     0
176
     1
290
     0
176
     1
290
     0
176
     1
 90
       50
176
     1
 40
0.0
176
     1
 40
1.0
176
     1
 90
        0
176
     1
 62
   178
420
        0
176
     1
 90
       50
176
     1
 90
        3
176
     1
 62
     5
420
      255
176
     1
290
     0
176
     1
 90
       50
176
     1
 90
       50
176
     1
 90
       50
176
     1
290
     0
176
     1
 90
       50
176
     1
 62
   256
176
     0
 40
1.0
176
     0
 90
        2
176
     1
  1
strokes_ogs.tif
176
     1
290
     0
176
     1
 40
1.0
176
     1
 40
1.0
176
     1
  0
VISUALSTYLE
  5
10040
102
{ACAD_REACTORS
330
1002F
102
}
330
1002F
100
AcDbVisualStyle
  2
JitterOff
 70
    20
177
     3
291
     1
 70
    58
 90
        2
176
     0
 90
        2
176
     0
 90
        0
176
     0
 90
        0
176
     0
 40
0.6
176
     0
 40
30.0
176
     0
 62
     7
420
 16777215
176
     0
 90
        1
176
     0
 90
        4
176
     0
 62
     7
176
     0
 62
   257
176
     0
 90
        1
176
     0
 90
        1
176
     0
 40
1.0
176
     0
 90
       10
176
     2
 62
     7
176
     0
 40
1.0
176
     0
 90
        1
176
     0
 90
        6
176
     0
 90
        2
176
     0
 62
     7
176
     0
 90
        5
176
     0
 90
        0
176
     0
 90
        0
176
     0
290
     0
176
     0
 90
        1
176
     0
 40
0.0
176
     0
 90
        0
176
     0
290
     0
176
     0
290
     1
176
     0
290
     1
176
     0
290
     0
176
     0
290
     0
176
     0
290
     0
176
     0
290
     0
176
     0
290
     0
176
     0
290
     0
176
     0
 90
       50
176
     0
 40
0.0
176
     0
 40
1.0
176
     0
 90
        0
176
     0
 62
   178
420
        0
176
     0
 90
       50
176
     0
 90
        3
176
     0
 62
     5
420
      255
176
     0
290
     0
176
     0
 90
       50
176
     0
 90
       50
176
     0
 90
       50
176
     0
290
     0
176
     0
 90
       50
176
     0
 62
   256
176
     0
 40
1.0
176
     0
 90
        2
176
     0
  1
strokes_ogs.tif
176
     0
290
     0
176
     0
 40
1.0
176
     0
 40
1.0
176
     0
  0
VISUALSTYLE
  5
1003D
102
{ACAD_REACTORS
330
1002F
102
}
330
1002F
100
AcDbVisualStyle
  2
Linepattern
 70
    14
177
     3
291
     1
 70
    58
 90
        2
176
     1
 90
        2
176
     1
 90
        0
176
     1
 90
        0
176
     1
 40
0.6
176
     1
 40
30.0
176
     1
 62
     7
420
 16777215
176
     1
 90
        1
176
     1
 90
        4
176
     1
 62
     7
176
     1
 62
   257
176
     1
 90
        7
176
     1
 90
        7
176
     1
 40
1.0
176
     1
 90
        8
176
     1
 62
     7
176
     1
 40
1.0
176
     1
 90
        1
176
     1
 90
        6
176
     1
 90
        2
176
     1
 62
     7
176
     1
 90
        5
176
     1
 90
        0
176
     1
 90
        0
176
     1
290
     0
176
     1
 90
        1
176
     1
 40
0.0
176
     1
 90
        0
176
     1
290
     0
176
     1
290
     1
176
     1
290
     1
176
     1
290
     0
176
     1
290
     0
176
     1
290
     0
176
     1
290
     0
176
     1
290
     0
176
     1
290
     0
176
     1
 90
       50
176
     1
 40
0.0
176
     1
 40
1.0
176
     1
 90
        0
176
     1
 62
   178
420
        0
176
     1
 90
       50
176
     1
 90
        3
176
     1
 62
     5
420
      255
176
     1
290
     0
176
     1
 90
       50
176
     1
 90
       50
176
     1
 90
       50
176
     1
290
     0
176
     1
 90
       50
176
     1
 62
   256
176
     0
 40
1.0
176
     0
 90
        2
176
     1
  1
strokes_ogs.tif
176
     1
290
     0
176
     1
 40
1.0
176
     1
 40
1.0
176
     1
  0
VISUALSTYLE
  5
10041
102
{ACAD_REACTORS
330
1002F
102
}
330
1002F
100
AcDbVisualStyle
  2
OverhangOff
 70
    21
177
     3
291
     1
 70
    58
 90
        2
176
     0
 90
        2
176
     0
 90
        0
176
     0
 90
        0
176
     0
 40
0.6
176
     0
 40
30.0
176
     0
 62
     7
420
 16777215
176
     0
 90
        1
176
     0
 90
        4
176
     0
 62
     7
176
     0
 62
   257
176
     0
 90
        1
176
     0
 90
        1
176
     0
 40
1.0
176
     0
 90
        9
176
     2
 62
     7
176
     0
 40
1.0
176
     0
 90
        1
176
     0
 90
        6
176
     0
 90
        2
176
     0
 62
     7
176
     0
 90
        5
176
     0
 90
        0
176
     0
 90
        0
176
     0
290
     0
176
     0
 90
        1
176
     0
 40
0.0
176
     0
 90
        0
176
     0
290
     0
176
     0
290
     1
176
     0
290
     1
176
     0
290
     0
176
     0
290
     0
176
     0
290
     0
176
     0
290
     0
176
     0
290
     0
176
     0
290
     0
176
     0
 90
       50
176
     0
 40
0.0
176
     0
 40
1.0
176
     0
 90
        0
176
     0
 62
   178
420
        0
176
     0
 90
       50
176
     0
 90
        3
176
     0
 62
     5
420
      255
176
     0
290
     0
176
     0
 90
       50
176
     0
 90
       50
176
     0
 90
       50
176
     0
290
     0
176
     0
 90
       50
176
     0
 62
   256
176
     0
 40
1.0
176
     0
 90
        2
176
     0
  1
strokes_ogs.tif
176
     0
290
     0
176
     0
 40
1.0
176
     0
 40
1.0
176
     0
  0
VISUALSTYLE
  5
10038
102
{ACAD_REACTORS
330
1002F
102
}
330
1002F
100
AcDbVisualStyle
  2
Realistic
 70
     8
177
     3
291
     0
 70
    58
 90
        2
176
     1
 90
        3
176
     1
 90
        0
176
     1
 90
        2
176
     1
 40
0.6
176
     1
 40
30.0
176
     1
 62
     7
420
 16777215
176
     1
 90
        0
176
     1
 90
        0
176
     1
 62
     7
176
     1
 62
   257
176
     1
 90
        1
176
     1
 90
        1
176
     1
 40
1.0
176
     1
 90
        8
176
     1
 62
   257
176
     1
 40
1.0
176
     1
 90
        1
176
     1
 90
        6
176
     1
 90
        2
176
     1
 62
     7
176
     1
 90
        3
176
     1
 90
        0
176
     1
 90
        0
176
     1
290
     0
176
     1
 90
       13
176
     1
 40
0.0
176
     1
 90
        0
176
     1
290
     0
176
     1
290
     1
176
     1
290
     1
176
     1
290
     0
176
     1
290
     0
176
     1
290
     0
176
     1
290
     0
176
     1
290
     0
176
     1
290
     0
176
     1
 90
       50
176
     1
 40
0.0
176
     1
 40
1.0
176
     1
 90
        0
176
     1
 62
   178
420
        0
176
     1
 90
       50
176
     1
 90
        3
176
     1
 62
     5
420
      255
176
     1
290
     0
176
     1
 90
       50
176
     1
 90
       50
176
     1
 90
       50
176
     1
290
     0
176
     1
 90
       50
176
     1
 62
   256
176
     0
 40
1.0
176
     0
 90
        2
176
     1
  1
strokes_ogs.tif
176
     1
290
     0
176
     1
 40
1.0
176
     1
 40
1.0
176
     1
  0
VISUALSTYLE
  5
10047
102
{ACAD_REACTORS
330
1002F
102
}
330
1002F
100
AcDbVisualStyle
  2
Shaded
 70
    27
177
     3
291
     0
 70
    58
 90
        2
176
     1
 90
        2
176
     1
 90
        1
176
     1
 90
        2
176
     1
 40
0.6
176
     1
 40
30.0
176
     1
 62
     7
420
 16777215
176
     1
 90
        0
176
     1
 90
        4
176
     1
 62
     7
176
     1
 62
   257
176
     1
 90
        1
176
     1
 90
        1
176
     1
 40
1.0
176
     1
 90
        8
176
     1
 62
   257
176
     1
 40
1.0
176
     1
 90
        1
176
     1
 90
        6
176
     1
 90
        2
176
     1
 62
     8
420
  7895160
176
     1
 90
        3
176
     1
 90
        0
176
     1
 90
        0
176
     1
290
     0
176
     1
 90
        5
176
     1
 40
0.0
176
     1
 90
        0
176
     1
290
     0
176
     1
290
     1
176
     1
290
     1
176
     1
290
     0
176
     1
290
     0
176
     1
290
     0
176
     1
290
     0
176
     1
290
     0
176
     1
290
     0
176
     1
 90
       50
176
     1
 40
0.0
176
     1
 40
1.0
176
     1
 90
        0
176
     1
 62
   178
420
        0
176
     1
 90
       50
176
     1
 90
        3
176
     1
 62
     5
420
      255
176
     1
290
     0
176
     1
 90
       50
176
     1
 90
       50
176
     1
 90
       50
176
     1
290
     0
176
     1
 90
       50
176
     1
 62
   256
176
     0
 40
1.0
176
     0
 90
        2
176
     1
  1
strokes_ogs.tif
176
     1
290
     0
176
     1
 40
1.0
176
     1
 40
1.0
176
     1
  0
VISUALSTYLE
  5
10046
102
{ACAD_REACTORS
330
1002F
102
}
330
1002F
100
AcDbVisualStyle
  2
Shaded with edges
 70
    26
177
     3
291
     0
 70
    58
 90
        2
176
     1
 90
        2
176
     1
 90
        1
176
     1
 90
        2
176
     1
 40
0.6
176
     1
 40
30.0
176
     1
 62
     7
420
 16777215
176
     1
 90
        1
176
     1
 90
       10
176
     1
 62
     7
176
     1
 62
   257
176
     1
 90
        2
176
     1
 90
        1
176
     1
 40
1.0
176
     1
 90
        8
176
     1
 62
   257
176
     1
 40
1.0
176
     1
 90
        1
176
     1
 90
        6
176
     1
 90
        2
176
     1
 62
     7
176
     1
 90
        3
176
     1
 90
        0
176
     1
 90
        0
176
     1
290
     0
176
     1
 90
        5
176
     1
 40
0.0
176
     1
 90
        0
176
     1
290
     0
176
     1
290
     1
176
     1
290
     1
176
     1
290
     0
176
     1
290
     0
176
     1
290
     0
176
     1
290
     0
176
     1
290
     0
176
     1
290
     0
176
     1
 90
       50
176
     1
 40
0.0
176
     1
 40
1.0
176
     1
 90
        0
176
     1
 62
   178
420
        0
176
     1
 90
       50
176
     1
 90
        3
176
     1
 62
     5
420
      255
176
     1
290
     0
176
     1
 90
       50
176
     1
 90
       50
176
     1
 90
       50
176
     1
290
     0
176
     1
 90
       50
176
     1
 62
   256
176
     0
 40
1.0
176
     0
 90
        2
176
     1
  1
strokes_ogs.tif
176
     1
290
     0
176
     1
 40
1.0
176
     1
 40
1.0
176
     1
  0
VISUALSTYLE
  5
10043
102
{ACAD_REACTORS
330
1002F
102
}
330
1002F
100
AcDbVisualStyle
  2
Shades of Gray
 70
    23
177
     3
291
     0
 70
    58
 90
        2
176
     1
 90
        2
176
     1
 90
        3
176
     1
 90
        0
176
     1
 40
0.6
176
     1
 40
30.0
176
     1
 62
     7
420
 16777215
176
     1
 90
        2
176
     1
 90
        2
176
     1
 62
     7
176
     1
 62
     7
176
     1
 90
        1
176
     1
 90
        1
176
     1
 40
40.0
176
     1
 90
        8
176
     1
 62
     7
176
     1
 40
1.0
176
     1
 90
        1
176
     1
 90
        6
176
     1
 90
        2
176
     1
 62
     7
176
     1
 90
        3
176
     1
 90
        0
176
     1
 90
        0
176
     1
290
     0
176
     1
 90
        1
176
     1
 40
0.0
176
     1
 90
        0
176
     1
290
     0
176
     1
290
     1
176
     1
290
     1
176
     1
290
     0
176
     1
290
     0
176
     1
290
     0
176
     1
290
     0
176
     1
290
     0
176
     1
290
     0
176
     1
 90
       50
176
     1
 40
0.0
176
     1
 40
1.0
176
     1
 90
        0
176
     1
 62
   178
420
        0
176
     1
 90
       50
176
     1
 90
        3
176
     1
 62
     5
420
      255
176
     1
290
     0
176
     1
 90
       50
176
     1
 90
       50
176
     1
 90
       50
176
     1
290
     0
176
     1
 90
       50
176
     1
 62
   256
176
     0
 40
1.0
176
     0
 90
        2
176
     1
  1
strokes_ogs.tif
176
     1
290
     0
176
     1
 40
1.0
176
     1
 40
1.0
176
     1
  0
VISUALSTYLE
  5
10044
102
{ACAD_REACTORS
330
1002F
102
}
330
1002F
100
AcDbVisualStyle
  2
Sketchy
 70
    24
177
     3
291
     0
 70
    58
 90
        1
176
     1
 90
        2
176
     1
 90
        2
176
     1
 90
        0
176
     1
 40
0.6
176
     1
 40
30.0
176
     1
 62
     7
420
 16777215
176
     1
 90
        2
176
     1
 90
        2
176
     1
 62
     7
176
     1
 62
     7
176
     1
 90
        1
176
     1
 90
        1
176
     1
 40
40.0
176
     1
 90
       11
176
     1
 62
     7
176
     1
 40
1.0
176
     1
 90
        1
176
     1
 90
        6
176
     1
 90
        2
176
     1
 62
     7
176
     1
 90
        6
176
     1
 90
        0
176
     1
 90
        0
176
     1
290
     0
176
     1
 90
        1
176
     1
 40
0.0
176
     1
 90
        0
176
     1
290
     0
176
     1
290
     1
176
     1
290
     1
176
     1
290
     0
176
     1
290
     0
176
     1
290
     0
176
     1
290
     0
176
     1
290
     0
176
     1
290
     0
176
     1
 90
       50
176
     1
 40
0.0
176
     1
 40
1.0
176
     1
 90
        0
176
     1
 62
   178
420
        0
176
     1
 90
       50
176
     1
 90
        3
176
     1
 62
     5
420
      255
176
     1
290
     0
176
     1
 90
       50
176
     1
 90
       50
176
     1
 90
       50
176
     1
290
     0
176
     1
 90
       50
176
     1
 62
   256
176
     0
 40
1.0
176
     0
 90
        2
176
     1
  1
strokes_ogs.tif
176
     1
290
     0
176
     1
 40
1.0
176
     1
 40
1.0
176
     1
  0
VISUALSTYLE
  5
1003C
102
{ACAD_REACTORS
330
1002F
102
}
330
1002F
100
AcDbVisualStyle
  2
Thicken
 70
    13
177
     3
291
     1
 70
    58
 90
        2
176
     1
 90
        2
176
     1
 90
        0
176
     1
 90
        0
176
     1
 40
0.6
176
     1
 40
30.0
176
     1
 62
     7
420
 16777215
176
     1
 90
        1
176
     1
 90
        4
176
     1
 62
     7
176
     1
 62
   257
176
     1
 90
        1
176
     1
 90
        1
176
     1
 40
1.0
176
     1
 90
       12
176
     1
 62
     7
176
     1
 40
1.0
176
     1
 90
        1
176
     1
 90
        6
176
     1
 90
        2
176
     1
 62
     7
176
     1
 90
        5
176
     1
 90
        0
176
     1
 90
        0
176
     1
290
     0
176
     1
 90
        1
176
     1
 40
0.0
176
     1
 90
        0
176
     1
290
     0
176
     1
290
     1
176
     1
290
     1
176
     1
290
     0
176
     1
290
     0
176
     1
290
     0
176
     1
290
     0
176
     1
290
     0
176
     1
290
     0
176
     1
 90
       50
176
     1
 40
0.0
176
     1
 40
1.0
176
     1
 90
        0
176
     1
 62
   178
420
        0
176
     1
 90
       50
176
     1
 90
        3
176
     1
 62
     5
420
      255
176
     1
290
     0
176
     1
 90
       50
176
     1
 90
       50
176
     1
 90
       50
176
     1
290
     0
176
     1
 90
       50
176
     1
 62
   256
176
     0
 40
1.0
176
     0
 90
        2
176
     1
  1
strokes_ogs.tif
176
     1
290
     0
176
     1
 40
1.0
176
     1
 40
1.0
176
     1
  0
VISUALSTYLE
  5
10035
102
{ACAD_REACTORS
330
1002F
102
}
330
1002F
100
AcDbVisualStyle
  2
Wireframe
 70
     5
177
     3
291
     0
 70
    58
 90
        0
176
     1
 90
        2
176
     1
 90
        0
176
     1
 90
        0
176
     1
 40
0.6
176
     1
 40
30.0
176
     1
 62
     7
420
 16777215
176
     1
 90
        1
176
     1
 90
        4
176
     1
 62
     7
176
     1
 62
   257
176
     1
 90
        1
176
     1
 90
        1
176
     1
 40
1.0
176
     1
 90
        0
176
     1
 62
   257
176
     1
 40
1.0
176
     1
 90
        1
176
     1
 90
        6
176
     1
 90
        2
176
     1
 62
     7
176
     1
 90
        3
176
     1
 90
        0
176
     1
 90
        0
176
     1
290
     0
176
     1
 90
        1
176
     1
 40
0.0
176
     1
 90
        0
176
     1
290
     0
176
     1
290
     1
176
     1
290
     1
176
     1
290
     0
176
     1
290
     0
176
     1
290
     0
176
     1
290
     0
176
     1
290
     0
176
     1
290
     0
176
     1
 90
       50
176
     1
 40
0.0
176
     1
 40
1.0
176
     1
 90
        0
176
     1
 62
   178
420
        0
176
     1
 90
       50
176
     1
 90
        3
176
     1
 62
     5
420
      255
176
     1
290
     0
176
     1
 90
       50
176
     1
 90
       50
176
     1
 90
       50
176
     1
290
     0
176
     1
 90
       50
176
     1
 62
   256
176
     0
 40
1.0
176
     0
 90
        2
176
     1
  1
strokes_ogs.tif
176
     1
290
     0
176
     1
 40
1.0
176
     1
 40
1.0
176
     1
  0
VISUALSTYLE
  5
10045
102
{ACAD_REACTORS
330
1002F
102
}
330
1002F
100
AcDbVisualStyle
  2
X-Ray
 70
    25
177
     3
291
     0
 70
    58
 90
        2
176
     1
 90
        2
176
     1
 90
        1
176
     1
 90
        1
176
     1
 40
0.5
176
     1
 40
30.0
176
     1
 62
     7
420
 16777215
176
     1
 90
        1
176
     1
 90
        0
176
     1
 62
     7
176
     1
 62
   257
176
     1
 90
        1
176
     1
 90
        1
176
     1
 40
1.0
176
     1
 90
        8
176
     1
 62
     7
176
     1
 40
1.0
176
     1
 90
        1
176
     1
 90
        6
176
     1
 90
        2
176
     1
 62
     7
176
     1
 90
        3
176
     1
 90
        0
176
     1
 90
        0
176
     1
290
     0
176
     1
 90
       13
176
     1
 40
0.0
176
     1
 90
        0
176
     1
290
     0
176
     1
290
     1
176
     1
290
     1
176
     1
290
     0
176
     1
290
     0
176
     1
290
     0
176
     1
290
     0
176
     1
290
     0
176
     1
290
     0
176
     1
 90
       50
176
     1
 40
0.0
176
     1
 40
1.0
176
     1
 90
        0
176
     1
 62
   178
420
        0
176
     1
 90
       50
176
     1
 90
        3
176
     1
 62
     5
420
      255
176
     1
290
     0
176
     1
 90
       50
176
     1
 90
       50
176
     1
 90
       50
176
     1
290
     0
176
     1
 90
       50
176
     1
 62
   256
176
     0
 40
1.0
176
     0
 90
        2
176
     1
  1
strokes_ogs.tif
176
     1
290
     0
176
     1
 40
1.0
176
     1
 40
1.0
176
     1
  0
DICTIONARYVAR
  5
1004E
102
{ACAD_REACTORS
330
1004D
102
}
330
1004D
100
DictionaryVariables
280
     0
  1
1:1
  0
DICTIONARYVAR
  5
10053
102
{ACAD_REACTORS
330
1004D
102
}
330
1004D
100
DictionaryVariables
280
     0
  1
Standard
  0
DICTIONARYVAR
  5
10052
102
{ACAD_REACTORS
330
1004D
102
}
330
1004D
100
DictionaryVariables
280
     0
  1
Standard
  0
DICTIONARYVAR
  5
10054
102
{ACAD_REACTORS
330
1004D
102
}
330
1004D
100
DictionaryVariables
280
     0
  1
0
  0
DICTIONARY
  5
10057
330
10049
100
AcDbDictionary
280
     1
281
     1
  3
ACAD_ROUNDTRIP_2008_TABLESTYLE_CELLSTYLEMAP
360
10058
  0
CELLSTYLEMAP
  5
10058
102
{ACAD_REACTORS
330
10057
102
}
330
10057
100
AcDbCellStyleMap
 90
        3
300
CELLSTYLE
  1
TABLEFORMAT_BEGIN
 90
        5
170
     1
 91
        0
 92
    32768
 62
   257
 93
        1
300
CONTENTFORMAT
  1
CONTENTFORMAT_BEGIN
 90
        0
 91
        0
 92
        4
 93
        0
300

 40
0.0
140
1.0
 94
        5
 62
     0
340
11
144
0.25
309
CONTENTFORMAT_END
171
     1
301
MARGIN
  1
CELLMARGIN_BEGIN
 40
0.06
 40
0.06
 40
0.06
 40
0.06
 40
0.06
 40
0.06
309
CELLMARGIN_END
 94
        6
 95
        1
302
GRIDFORMAT
  1
GRIDFORMAT_BEGIN
 90
        0
 91
        1
 62
     0
 92
       -2
340
14
 93
        0
 40
0.045
309
GRIDFORMAT_END
 95
        2
302
GRIDFORMAT
  1
GRIDFORMAT_BEGIN
 90
        0
 91
        1
 62
     0
 92
       -2
340
14
 93
        0
 40
0.045
309
GRIDFORMAT_END
 95
        4
302
GRIDFORMAT
  1
GRIDFORMAT_BEGIN
 90
        0
 91
        1
 62
     0
 92
       -2
340
14
 93
        0
 40
0.045
309
GRIDFORMAT_END
 95
        8
302
GRIDFORMAT
  1
GRIDFORMAT_BEGIN
 90
        0
 91
        1
 62
     0
 92
       -2
340
14
 93
        0
 40
0.045
309
GRIDFORMAT_END
 95
       16
302
GRIDFORMAT
  1
GRIDFORMAT_BEGIN
 90
        0
 91
        1
 62
     0
 92
       -2
340
14
 93
        0
 40
0.045
309
GRIDFORMAT_END
 95
       32
302
GRIDFORMAT
  1
GRIDFORMAT_BEGIN
 90
        0
 91
        1
 62
     0
 92
       -2
340
14
 93
        0
 40
0.045
309
GRIDFORMAT_END
309
TABLEFORMAT_END
  1
CELLSTYLE_BEGIN
 90
        1
 91
        1
300
_TITLE
309
CELLSTYLE_END
300
CELLSTYLE
  1
TABLEFORMAT_BEGIN
 90
        5
170
     1
 91
        0
 92
        0
 62
   257
 93
        1
300
CONTENTFORMAT
  1
CONTENTFORMAT_BEGIN
 90
        0
 91
        0
 92
        4
 93
        0
300

 40
0.0
140
1.0
 94
        5
 62
     0
340
11
144
0.18
309
CONTENTFORMAT_END
171
     1
301
MARGIN
  1
CELLMARGIN_BEGIN
 40
0.06
 40
0.06
 40
0.06
 40
0.06
 40
0.06
 40
0.06
309
CELLMARGIN_END
 94
        6
 95
        1
302
GRIDFORMAT
  1
GRIDFORMAT_BEGIN
 90
        0
 91
        1
 62
     0
 92
       -2
340
14
 93
        0
 40
0.045
309
GRIDFORMAT_END
 95
        2
302
GRIDFORMAT
  1
GRIDFORMAT_BEGIN
 90
        0
 91
        1
 62
     0
 92
       -2
340
14
 93
        0
 40
0.045
309
GRIDFORMAT_END
 95
        4
302
GRIDFORMAT
  1
GRIDFORMAT_BEGIN
 90
        0
 91
        1
 62
     0
 92
       -2
340
14
 93
        0
 40
0.045
309
GRIDFORMAT_END
 95
        8
302
GRIDFORMAT
  1
GRIDFORMAT_BEGIN
 90
        0
 91
        1
 62
     0
 92
       -2
340
14
 93
        0
 40
0.045
309
GRIDFORMAT_END
 95
       16
302
GRIDFORMAT
  1
GRIDFORMAT_BEGIN
 90
        0
 91
        1
 62
     0
 92
       -2
340
14
 93
        0
 40
0.045
309
GRIDFORMAT_END
 95
       32
302
GRIDFORMAT
  1
GRIDFORMAT_BEGIN
 90
        0
 91
        1
 62
     0
 92
       -2
340
14
 93
        0
 40
0.045
309
GRIDFORMAT_END
309
TABLEFORMAT_END
  1
CELLSTYLE_BEGIN
 90
        2
 91
        1
300
_HEADER
309
CELLSTYLE_END
300
CELLSTYLE
  1
TABLEFORMAT_BEGIN
 90
        5
170
     1
 91
        0
 92
        0
 62
   257
 93
        1
300
CONTENTFORMAT
  1
CONTENTFORMAT_BEGIN
 90
        0
 91
        0
 92
        4
 93
        0
300

 40
0.0
140
1.0
 94
        2
 62
     0
340
11
144
0.18
309
CONTENTFORMAT_END
171
     1
301
MARGIN
  1
CELLMARGIN_BEGIN
 40
0.06
 40
0.06
 40
0.06
 40
0.06
 40
0.06
 40
0.06
309
CELLMARGIN_END
 94
        6
 95
        1
302
GRIDFORMAT
  1
GRIDFORMAT_BEGIN
 90
        0
 91
        1
 62
     0
 92
       -2
340
14
 93
        0
 40
0.045
309
GRIDFORMAT_END
 95
        2
302
GRIDFORMAT
  1
GRIDFORMAT_BEGIN
 90
        0
 91
        1
 62
     0
 92
       -2
340
14
 93
        0
 40
0.045
309
GRIDFORMAT_END
 95
        4
302
GRIDFORMAT
  1
GRIDFORMAT_BEGIN
 90
        0
 91
        1
 62
     0
 92
       -2
340
14
 93
        0
 40
0.045
309
GRIDFORMAT_END
 95
        8
302
GRIDFORMAT
  1
GRIDFORMAT_BEGIN
 90
        0
 91
        1
 62
     0
 92
       -2
340
14
 93
        0
 40
0.045
309
GRIDFORMAT_END
 95
       16
302
GRIDFORMAT
  1
GRIDFORMAT_BEGIN
 90
        0
 91
        1
 62
     0
 92
       -2
340
14
 93
        0
 40
0.045
309
GRIDFORMAT_END
 95
       32
302
GRIDFORMAT
  1
GRIDFORMAT_BEGIN
 90
        0
 91
        1
 62
     0
 92
       -2
340
14
 93
        0
 40
0.045
309
GRIDFORMAT_END
309
TABLEFORMAT_END
  1
CELLSTYLE_BEGIN
 90
        3
 91
        2
300
_DATA
309
CELLSTYLE_END
  0
ENDSEC
  0
EOF
