0
SECTION
2
HEADER
9
$INSUNITS
70
4
9
$ACADVER
1
AC1014
9
$HANDSEED
5
FFFF
0
ENDSEC
0
SECTION
2
TABLES
0
TABLE
2
VPORT
5
8
100
AcDbSymbolTable
0
ENDTAB
0
TABLE
2
LTYPE
5
5
100
AcDbSymbolTable
0
LTYPE
5
14
100
AcDbSymbolTableRecord
100
AcDbLinetypeTableRecord
2
BYBLOCK
70
0
0
LTYPE
5
15
100
AcDbSymbolTableRecord
100
AcDbLinetypeTableRecord
2
BYLAYER
70
0
0
ENDTAB
0
TABLE
2
LAYER
5
2
100
AcDbSymbolTable
70
2
0
LAYER
5
50
100
AcDbSymbolTableRecord
100
AcDbLayerTableRecord
2
0
70
0
6
CONTINUOUS
0
ENDTAB
0
TABLE
2
STYLE
5
3
100
AcDbSymbolTable
70
1
0
STYLE
5
11
100
AcDbSymbolTableRecord
100
AcDbTextStyleTableRecord
2
STANDARD
70
0
0
ENDTAB
0
TABLE
2
VIEW
5
6
100
AcDbSymbolTable
70
0
0
ENDTAB
0
TABLE
2
UCS
5
7
100
AcDbSymbolTable
70
0
0
ENDTAB
0
TABLE
2
APPID
5
9
100
AcDbSymbolTable
70
2
0
APPID
5
12
100
AcDbSymbolTableRecord
100
AcDbRegAppTableRecord
2
ACAD
70
0
0
ENDTAB
0
TABLE
2
DIMSTYLE
5
A
100
AcDbSymbolTable
70
1
0
ENDTAB
0
TABLE
2
BLOCK_RECORD
5
1
100
AcDbSymbolTable
70
1
0
BLOCK_RECORD
5
1F
100
AcDbSymbolTableRecord
100
AcDbBlockTableRecord
2
*MODEL_SPACE
0
BLOCK_RECORD
5
1B
100
AcDbSymbolTableRecord
100
AcDbBlockTableRecord
2
*PAPER_SPACE
0
ENDTAB
0
ENDSEC
0
SECTION
2
BLOCKS
0
BLOCK
5
20
100
AcDbEntity
100
AcDbBlockBegin
2
*MODEL_SPACE
0
ENDBLK
5
21
100
AcDbEntity
100
AcDbBlockEnd
0
BLOCK
5
1C
100
AcDbEntity
100
AcDbBlockBegin
2
*PAPER_SPACE
0
ENDBLK
5
1D
100
AcDbEntity
100
AcDbBlockEnd
0
ENDSEC
0
SECTION
2
ENTITIES
0
CIRCLE
5
100
100
AcDbEntity
8
0
100
AcDbCircle
10
50.951859691518273
20
54.70000000000045
30
0
40
0.99999999999999645
210
0
220
0
230
1
0
CIRCLE
5
101
100
AcDbEntity
8
0
100
AcDbCircle
10
10.984768163747871
20
109.77334593356065
30
0
40
0.99999999999999645
210
0
220
0
230
1
0
LWPOLYLINE
5
102
100
AcDbEntity
8
0
100
AcDbPolyline
90
38
70
1
43
0.0
10
6.9514514744501525
20
113.22345778169048
42
-0.26812855542470082
10
8.2446794001924584
20
118.05631939215988
10
18.965137342463827
20
128.7767773344311
42
-0.41421356237310969
10
20.379350904836919
20
128.7767773344311
10
33.142628305201455
20
116.01349993406674
10
47.956791001341152
20
104.80487868800881
10
65.167177992148865
20
97.812369392394601
10
82.779296489781359
20
95.615010298619524
42
-0.082240328402287108
10
84.345656436961917
20
95.150599409601057
10
108.10185969151453
20
83.606250000002248
10
126.15185969151769
20
83.606250000003314
42
-0.41421356237309509
10
127.15185969151777
20
82.606250000003371
10
127.15185969151831
20
74.081250000000466
10
145.20185969151828
20
74.081250000000466
42
-0.41421356237311585
10
146.20185969151828
20
73.081250000000381
10
146.20185969151669
20
36.981249999999122
42
-0.41421356237306384
10
145.20185969151672
20
35.981249999999179
10
127.15185969151742
20
35.981249999998184
10
127.15185969152054
20
27.456250000002598
42
-0.41421356237318868
10
126.15185969152057
20
26.456250000002228
10
108.10185969151667
20
26.456250000001162
10
108.10185969151766
20
10.78750000000106
42
-0.41421356237311585
10
107.10185969151765
20
9.7875000000009749
10
89.05185969151799
20
9.7875000000009749
10
89.051859691518146
20
6.0250000000002757
42
-0.4142135623731002
10
88.051859691518246
20
5.0250000000002615
10
71.001859691519073
20
5.0249999999993022
42
-0.41421356237309509
10
70.00185969151903
20
6.0249999999992099
10
70.00185969151849
20
14.550000000000765
10
51.951859691518607
20
14.550000000000765
42
-0.41421356237309509
10
50.951859691518592
20
15.550000000000779
10
50.951859691518592
20
19.312500000000554
10
32.901859691519661
20
19.312500000000519
42
-0.41421356237309509
10
31.901859691519682
20
20.312500000000497
10
31.901859691518794
20
37.075542508634172
10
13.901859691518785
20
37.075542508634172
42
-0.41421356237309509
10
12.901859691518771
20
38.075542508634186
10
12.901859691518771
20
91.075542508634186
0
LWPOLYLINE
5
103
100
AcDbEntity
8
0
100
AcDbPolyline
90
38
70
1
43
0.0
10
51.951859691518607
20
14.550000000000765
42
-0.41421356237309509
10
50.951859691518592
20
15.550000000000779
10
50.951859691518592
20
19.312500000000554
10
32.901859691519661
20
19.312500000000519
42
-0.41421356237309509
10
31.901859691519682
20
20.312500000000497
10
31.901859691518794
20
37.075542508634172
10
13.901859691518785
20
37.075542508634172
42
-0.41421356237309509
10
12.901859691518771
20
38.075542508634186
10
12.901859691518771
20
91.075542508634186
10
6.9514514744501525
20
113.22345778169048
42
-0.26812855542470082
10
8.2446794001924584
20
118.05631939215988
10
18.965137342463827
20
128.7767773344311
42
-0.41421356237310969
10
20.379350904836919
20
128.7767773344311
10
33.142628305201455
20
116.01349993406674
10
47.956791001341152
20
104.80487868800881
10
65.167177992148865
20
97.812369392394601
10
82.779296489781359
20
95.615010298619524
42
-0.082240328402287108
10
84.345656436961917
20
95.150599409601057
10
108.10185969151453
20
83.606250000002248
10
126.15185969151769
20
83.606250000003314
42
-0.41421356237309509
10
127.15185969151777
20
82.606250000003371
10
127.15185969151831
20
74.081250000000466
10
145.20185969151828
20
74.081250000000466
42
-0.41421356237311585
10
146.20185969151828
20
73.081250000000381
10
146.20185969151669
20
36.981249999999122
42
-0.41421356237306384
10
145.20185969151672
20
35.981249999999179
10
127.15185969151742
20
35.981249999998184
10
127.15185969152054
20
27.456250000002598
42
-0.41421356237318868
10
126.15185969152057
20
26.456250000002228
10
108.10185969151667
20
26.456250000001162
10
108.10185969151766
20
10.78750000000106
42
-0.41421356237311585
10
107.10185969151765
20
9.7875000000009749
10
89.05185969151799
20
9.7875000000009749
10
89.051859691518146
20
6.0250000000002757
42
-0.4142135623731002
10
88.051859691518246
20
5.0250000000002615
10
71.001859691519073
20
5.0249999999993022
42
-0.41421356237309509
10
70.00185969151903
20
6.0249999999992099
10
70.00185969151849
20
14.550000000000765
0
CIRCLE
5
104
100
AcDbEntity
8
0
100
AcDbCircle
10
50.951859691518273
20
30.312500000000426
30
0
40
1.0000000000000142
210
0
220
0
230
1
0
CIRCLE
5
105
100
AcDbEntity
8
0
100
AcDbCircle
10
10.984768163747871
20
109.77334593356065
30
0
40
0.99999999999999645
210
0
220
0
230
1
0
CIRCLE
5
106
100
AcDbEntity
8
0
100
AcDbCircle
10
46.588246122173082
20
102.07839966651289
30
0
40
0.99999999999999356
210
0
220
0
230
1
0
CIRCLE
5
107
100
AcDbEntity
8
0
100
AcDbCircle
10
46.588246122173082
20
102.07839966651289
30
0
40
0.99999999999999356
210
0
220
0
230
1
0
CIRCLE
5
108
100
AcDbEntity
8
0
100
AcDbCircle
10
108.10185969151833
20
47.8875000000005
30
0
40
1.0000000000000142
210
0
220
0
230
1
0
CIRCLE
5
109
100
AcDbEntity
8
0
100
AcDbCircle
10
127.15185969151831
20
38.981250000000429
30
0
40
1.0000000000000142
210
0
220
0
230
1
0
CIRCLE
5
110
100
AcDbEntity
8
0
100
AcDbCircle
10
108.1018596915183
20
80.606250000000429
30
0
40
0.99999999999999623
210
0
220
0
230
1
0
CIRCLE
5
111
100
AcDbEntity
8
0
100
AcDbCircle
10
108.1018596915183
20
80.606250000000429
30
0
40
0.99999999999999623
210
0
220
0
230
1
0
CIRCLE
5
112
100
AcDbEntity
8
0
100
AcDbCircle
10
108.10185969151833
20
47.8875000000005
30
0
40
1.0000000000000142
210
0
220
0
230
1
0
CIRCLE
5
113
100
AcDbEntity
8
0
100
AcDbCircle
10
89.051859691518317
20
20.787500000000989
30
0
40
1.0000000000000089
210
0
220
0
230
1
0
CIRCLE
5
114
100
AcDbEntity
8
0
100
AcDbCircle
10
89.051859691518317
20
20.787500000000989
30
0
40
1.0000000000000089
210
0
220
0
230
1
0
CIRCLE
5
115
100
AcDbEntity
8
0
100
AcDbCircle
10
127.15185969151831
20
38.981250000000429
30
0
40
1.0000000000000142
210
0
220
0
230
1
0
CIRCLE
5
116
100
AcDbEntity
8
0
100
AcDbCircle
10
50.951859691518273
20
54.70000000000045
30
0
40
0.99999999999999645
210
0
220
0
230
1
0
CIRCLE
5
117
100
AcDbEntity
8
0
100
AcDbCircle
10
50.951859691518273
20
30.312500000000426
30
0
40
1.0000000000000142
210
0
220
0
230
1
0
ENDSEC
0
SECTION
2
OBJECTS
0
DICTIONARY
5
C
100
AcDbDictionary
3
ACAD_GROUP
350
D
3
ACAD_MLINESTYLE
350
17
0
DICTIONARY
5
D
100
AcDbDictionary
0
DICTIONARY
5
1A
330
C
100
AcDbDictionary
0
DICTIONARY
5
17
100
AcDbDictionary
0
ENDSEC
0
EOF
