0
SECTION
2
HEADER
9
$INSUNITS
70
4
9
$ACADVER
1
AC1014
9
$HANDSEED
5
FFFF
0
ENDSEC
0
SECTION
2
TABLES
0
TABLE
2
VPORT
5
8
100
AcDbSymbolTable
0
ENDTAB
0
TABLE
2
LTYPE
5
5
100
AcDbSymbolTable
0
LTYPE
5
14
100
AcDbSymbolTableRecord
100
AcDbLinetypeTableRecord
2
BYBLOCK
70
0
0
LTYPE
5
15
100
AcDbSymbolTableRecord
100
AcDbLinetypeTableRecord
2
BYLAYER
70
0
0
ENDTAB
0
TABLE
2
LAYER
5
2
100
AcDbSymbolTable
70
2
0
LAYER
5
50
100
AcDbSymbolTableRecord
100
AcDbLayerTableRecord
2
0
70
0
6
CONTINUOUS
0
ENDTAB
0
TABLE
2
STYLE
5
3
100
AcDbSymbolTable
70
1
0
STYLE
5
11
100
AcDbSymbolTableRecord
100
AcDbTextStyleTableRecord
2
STANDARD
70
0
0
ENDTAB
0
TABLE
2
VIEW
5
6
100
AcDbSymbolTable
70
0
0
ENDTAB
0
TABLE
2
UCS
5
7
100
AcDbSymbolTable
70
0
0
ENDTAB
0
TABLE
2
APPID
5
9
100
AcDbSymbolTable
70
2
0
APPID
5
12
100
AcDbSymbolTableRecord
100
AcDbRegAppTableRecord
2
ACAD
70
0
0
ENDTAB
0
TABLE
2
DIMSTYLE
5
A
100
AcDbSymbolTable
70
1
0
ENDTAB
0
TABLE
2
BLOCK_RECORD
5
1
100
AcDbSymbolTable
70
1
0
BLOCK_RECORD
5
1F
100
AcDbSymbolTableRecord
100
AcDbBlockTableRecord
2
*MODEL_SPACE
0
BLOCK_RECORD
5
1B
100
AcDbSymbolTableRecord
100
AcDbBlockTableRecord
2
*PAPER_SPACE
0
ENDTAB
0
ENDSEC
0
SECTION
2
BLOCKS
0
BLOCK
5
20
100
AcDbEntity
100
AcDbBlockBegin
2
*MODEL_SPACE
0
ENDBLK
5
21
100
AcDbEntity
100
AcDbBlockEnd
0
BLOCK
5
1C
100
AcDbEntity
100
AcDbBlockBegin
2
*PAPER_SPACE
0
ENDBLK
5
1D
100
AcDbEntity
100
AcDbBlockEnd
0
ENDSEC
0
SECTION
2
ENTITIES
0
LWPOLYLINE
5
100
100
AcDbEntity
8
0
100
AcDbPolyline
90
16
70
1
43
0.0
10
106.64999999999814
20
29.887500000000152
10
90.600000000000051
20
29.887499999999974
10
90.599999999999326
20
46.937499999999126
10
105.85871215252033
20
46.93750000000005
42
-0.20871215252207906
10
105.8587121525202
20
48.937500000000043
10
90.599999999999199
20
48.937499999999105
10
90.599999999998161
20
60.724999999999639
10
90.599999999998161
20
65.487500000000153
10
106.64999999999773
20
65.487500000000338
10
106.64999999999792
20
49.937499999999972
42
-0.33333333333336879
10
109.64999999999816
20
49.937500000000199
10
109.64999999999819
20
63.606250000000166
10
125.69999999999817
20
63.606250000000166
10
125.69999999999817
20
46.556250000000148
10
110.2337822433
20
46.556250000000155
42
-0.43134687736634164
10
106.64999999999796
20
45.937500000000355
0
LINE
5
101
100
AcDbEntity
8
0
100
AcDbLine
10
108.14999999999816
20
26.506250000000136
30
0
11
126.1999999999982
21
26.506250000000136
31
0
0
LINE
5
102
100
AcDbEntity
8
0
100
AcDbLine
10
33.449999999997218
20
39.412499999999888
30
0
11
33.449999999997019
21
56.462499999999935
31
0
0
LINE
5
103
100
AcDbEntity
8
0
100
AcDbLine
10
146.24999999999818
20
37.031250000000135
30
0
11
146.24999999999818
21
73.131250000000136
31
0
0
LINE
5
104
100
AcDbEntity
8
0
100
AcDbLine
10
127.19999999999821
20
27.506250000000133
30
0
11
127.19999999999817
21
36.031250000000142
31
0
0
LINE
5
105
100
AcDbEntity
8
0
100
AcDbLine
10
146.24999999999818
20
37.031250000000135
30
0
11
146.24999999999818
21
73.131250000000136
31
0
0
LWPOLYLINE
5
106
100
AcDbEntity
8
0
100
AcDbPolyline
90
13
70
1
43
0.0
10
68.549999999998306
20
32.650000000000141
10
52.499999999998117
20
32.650000000000141
10
52.499999999998117
20
32.362500000000153
42
0.33333333333334353
10
49.499999999998039
20
32.362500000000047
10
49.499999999998039
20
37.412500000000072
10
33.449999999997587
20
37.412499999999575
10
33.449999999998106
20
20.862500000000136
10
49.499999999998039
20
20.862500000000136
10
49.499999999998039
20
28.362500000000207
42
0.33333333333334636
10
52.499999999998138
20
28.362500000000118
10
52.499999999998167
20
20.862500000000136
10
52.499999999998096
20
16.100000000000133
10
68.549999999998306
20
16.100000000000133
0
LWPOLYLINE
5
107
100
AcDbEntity
8
0
100
AcDbPolyline
90
11
70
1
43
0.0
10
144.74999999999818
20
37.531250000000142
10
129.1999999999982
20
37.531250000000135
42
-0.41421356237309381
10
125.69999999999817
20
37.031250000000135
10
125.69999999999821
20
28.00625000000014
10
109.64999999999817
20
28.00625000000014
10
109.64999999999816
20
44.556250000000155
10
125.69999999999817
20
44.556250000000155
10
125.69999999999817
20
41.031250000000156
42
-0.33333333333333309
10
128.69999999999817
20
41.031250000000142
10
128.69999999999817
20
54.081250000000161
10
144.74999999999818
20
54.081250000000161
0
LINE
5
108
100
AcDbEntity
8
0
100
AcDbLine
10
71.549999999998164
20
6.5750000000001263
30
0
11
87.599999999998175
21
6.5750000000001441
31
0
0
LINE
5
109
100
AcDbEntity
8
0
100
AcDbLine
10
127.19999999999817
20
36.031250000000142
30
0
11
145.24999999999818
21
36.031250000000142
31
0
0
LINE
5
110
100
AcDbEntity
8
0
100
AcDbLine
10
29.949999999999726
20
92.481211073677116
30
0
11
8.7194488402638726
21
106.87200648658482
31
0
0
LINE
5
111
100
AcDbEntity
8
0
100
AcDbLine
10
126.1999999999982
20
26.506250000000136
30
0
11
108.14999999999816
21
26.506250000000136
31
0
0
LINE
5
112
100
AcDbEntity
8
0
100
AcDbLine
10
89.099999999998147
20
62.224999999999966
30
0
11
89.099999999998147
21
65.987500000000168
31
0
0
LINE
5
113
100
AcDbEntity
8
0
100
AcDbLine
10
32.306185473404753
20
112.76385328422343
30
0
11
43.953553789752036
21
106.03924205142985
31
0
0
LINE
5
114
100
AcDbEntity
8
0
100
AcDbLine
10
48.951536992261246
20
101.18496027943746
30
0
11
60.995452327167655
21
97.957802891740613
31
0
0
LINE
5
115
100
AcDbEntity
8
0
100
AcDbLine
10
8.7194488402638726
20
106.87200648658482
30
0
11
6.9995917829318266
21
113.27345778169271
31
0
0
ARC
5
116
100
AcDbEntity
8
0
100
AcDbCircle
10
126.19999999999823
20
27.506250000000115
30
0
40
0.99999999999997868
210
0
220
0
230
1
100
AcDbArc
50
-90.000000000001634
51
0
0
LINE
5
117
100
AcDbEntity
8
0
100
AcDbLine
10
127.19999999999817
20
74.131250000000151
30
0
11
127.19999999999817
21
82.656250000000142
31
0
0
LINE
5
118
100
AcDbEntity
8
0
100
AcDbLine
10
106.64999999999816
20
11.337500000000077
30
0
11
106.64999999999816
21
28.00625000000014
31
0
0
LWPOLYLINE
5
119
100
AcDbEntity
8
0
100
AcDbPolyline
90
4
70
1
43
0.0
10
128.69999999999817
20
72.631250000000165
10
144.74999999999818
20
72.631250000000165
10
144.74999999999818
20
56.081250000000153
10
128.69999999999817
20
56.081250000000153
0
LWPOLYLINE
5
120
100
AcDbEntity
8
0
100
AcDbPolyline
90
5
70
1
43
0.0
10
82.149070154239013
20
94.238016461983989
10
82.149070154239013
20
78.012499999999932
10
66.099070154239001
20
78.01249999999996
10
66.099070154239016
20
94.562499999999972
10
79.548292619824934
20
94.562499999999972
0
LINE
5
121
100
AcDbEntity
8
0
100
AcDbLine
10
90.600000000000747
20
18.837500000002617
30
0
11
90.600000000001216
21
11.337499999999082
31
0
0
LINE
5
122
100
AcDbEntity
8
0
100
AcDbLine
10
50.999999999998153
20
71.750000000000142
30
0
11
69.04999999999751
21
71.750000000000227
31
0
0
LINE
5
123
100
AcDbEntity
8
0
100
AcDbLine
10
70.049999999998164
20
6.0750000000001192
30
0
11
70.049999999998164
21
14.600000000000129
31
0
0
ARC
5
124
100
AcDbEntity
8
0
100
AcDbCircle
10
82.649070154239013
20
77.51249999999996
30
0
40
1.0000000000000142
210
-0
220
0
230
1
100
AcDbArc
50
-90
51
0
0
LINE
5
125
100
AcDbEntity
8
0
100
AcDbLine
10
82.649070154239013
20
76.512499999999932
30
0
11
65.441649820129783
21
76.512499999999932
31
0
0
ARC
5
126
100
AcDbEntity
8
0
100
AcDbCircle
10
109.14999999999814
20
82.656250000000142
30
0
40
0.99999999999997868
210
0
220
-0
230
1
100
AcDbArc
50
90
51
116.83067238016859
0
LINE
5
127
100
AcDbEntity
8
0
100
AcDbLine
10
146.24999999999818
20
37.031250000000135
30
0
11
146.24999999999818
21
73.131250000000136
31
0
0
LINE
5
128
100
AcDbEntity
8
0
100
AcDbLine
10
28.524687807159381
20
95.259457800403908
30
0
11
23.978973390225935
21
98.340698870756256
31
0
0
LWPOLYLINE
5
129
100
AcDbEntity
8
0
100
AcDbPolyline
90
4
70
1
43
0.0
10
87.600000000004144
20
42.175000000000473
10
71.550000000003692
20
42.175000000003863
10
71.550000000000082
20
25.125000000003862
10
87.600000000001074
20
25.125000000000469
0
LINE
5
130
100
AcDbEntity
8
0
100
AcDbLine
10
71.049999999998164
20
5.0750000000001227
30
0
11
88.099999999998175
21
5.0750000000001405
31
0
0
LINE
5
131
100
AcDbEntity
8
0
100
AcDbLine
10
89.099999999998147
20
9.8374999999989896
30
0
11
89.099999999998147
21
6.075000000000137
31
0
0
ARC
5
132
100
AcDbEntity
8
0
100
AcDbCircle
10
145.24999999999818
20
73.131250000000136
30
0
40
0.99999999999999645
210
0
220
-0
230
1
100
AcDbArc
50
0
51
90
0
LINE
5
133
100
AcDbEntity
8
0
100
AcDbLine
10
113.08461872303774
20
82.156250000000142
30
0
11
110.14999999999816
21
82.156250000000142
31
0
0
LINE
5
134
100
AcDbEntity
8
0
100
AcDbLine
10
23.946674768052034
20
98.284756016136583
30
0
11
32.306185473404753
21
112.76385328422343
31
0
0
LWPOLYLINE
5
135
100
AcDbEntity
8
0
100
AcDbPolyline
90
7
70
1
43
0.0
10
9.353479880454092
20
117.04565922038174
10
19.720384432129521
20
127.41256377205718
10
31.069448270173545
20
116.06349993401298
10
19.366831041536354
20
104.36088270537581
10
13.499986926212607
20
110.22772682069959
42
-3.1061234327505365
10
11.437289359366929
20
112.29042438754526
10
8.409165081148771
20
115.31854866576344
42
-0.14349589634218257
0
LINE
5
136
100
AcDbEntity
8
0
100
AcDbLine
10
125.69999999999817
20
72.631250000000165
30
0
11
125.69999999999817
21
82.156250000000142
31
0
0
LINE
5
137
100
AcDbEntity
8
0
100
AcDbLine
10
125.69999999999817
20
82.156250000000142
30
0
11
111.85809924354599
21
82.156250000000142
31
0
0
LINE
5
138
100
AcDbEntity
8
0
100
AcDbLine
10
45.94652126140231
20
104.53133246795647
30
0
11
43.953553789752036
21
106.03924205142985
31
0
0
LINE
5
139
100
AcDbEntity
8
0
100
AcDbLine
10
71.049999999998164
20
5.0750000000001227
30
0
11
88.099999999998175
21
5.0750000000001405
31
0
0
LINE
5
140
100
AcDbEntity
8
0
100
AcDbLine
10
108.14999999999816
20
26.506250000000136
30
0
11
108.14999999999816
21
10.837500000000087
31
0
0
LINE
5
141
100
AcDbEntity
8
0
100
AcDbLine
10
37.68089320414505
20
89.973120149698815
30
0
11
28.524687807159381
21
95.259457800403908
31
0
0
ARC
5
142
100
AcDbEntity
8
0
100
AcDbCircle
10
11.82835361460695
20
114.57078548622886
30
0
40
4.999999999999952
210
0
220
0
230
1
100
AcDbArc
50
134.99999999999966
51
195.038351605191
0
LWPOLYLINE
5
143
100
AcDbEntity
8
0
100
AcDbPolyline
90
5
70
1
43
0.0
10
33.44999999999709
20
75.012500000000131
10
33.449999999997303
20
58.462500000000134
10
49.499999999998039
20
58.462500000000134
10
49.499999999998039
20
70.250000000000128
10
49.499999999997932
20
75.012500000000344
0
LWPOLYLINE
5
144
100
AcDbEntity
8
0
100
AcDbPolyline
90
4
70
1
43
0.0
10
87.600000000008606
20
60.725000000000279
10
87.600000000005096
20
44.175000000000452
10
71.550000000004104
20
44.17500000000382
10
71.550000000007614
20
60.725000000003661
0
ARC
5
145
100
AcDbEntity
8
0
100
AcDbCircle
10
44.144463421439738
20
88.900121341695666
30
0
40
4.9999999999999831
210
0
220
0
230
1
100
AcDbArc
50
235.8692345917766
51
250.86923459177706
0
LINE
5
146
100
AcDbEntity
8
0
100
AcDbLine
10
87.599999999998175
20
11.337499999998904
30
0
11
87.599999999998175
21
6.5750000000001441
31
0
0
LINE
5
147
100
AcDbEntity
8
0
100
AcDbLine
10
48.004930801025566
20
104.85487889472964
30
0
11
33.190768613731976
21
116.0634999340142
31
0
0
LINE
5
148
100
AcDbEntity
8
0
100
AcDbLine
10
109.14999999999814
20
83.656250000000114
30
0
11
126.19999999999818
21
83.656250000000156
31
0
0
ARC
5
149
100
AcDbEntity
8
0
100
AcDbCircle
10
49.999999999997925
20
75.512500000000387
30
0
40
0.99999999999999645
210
0
220
-0
230
1
100
AcDbArc
50
0
51
90
0
LINE
5
150
100
AcDbEntity
8
0
100
AcDbLine
10
87.600000000000591
20
22.837500000002496
30
0
11
87.600000000000648
21
23.125000000000458
31
0
0
ARC
5
151
100
AcDbEntity
8
0
100
AcDbCircle
10
90.099999999998175
20
65.987500000000153
30
0
40
1.0000000000000142
210
0
220
0
230
1
100
AcDbArc
50
90.000000000002444
51
180
0
LINE
5
152
100
AcDbEntity
8
0
100
AcDbLine
10
65.215317755663136
20
97.862369460386304
30
0
11
48.004930801025566
21
104.85487889472964
31
0
0
ARC
5
153
100
AcDbEntity
8
0
100
AcDbCircle
10
126.19999999999818
20
82.656250000000142
30
0
40
0.99999999999999645
210
-0
220
0
230
1
100
AcDbArc
50
0
51
90
0
LINE
5
154
100
AcDbEntity
8
0
100
AcDbLine
10
82.649070154239013
20
76.512499999999932
30
0
11
65.441649820129783
21
76.512499999999932
31
0
0
LINE
5
155
100
AcDbEntity
8
0
100
AcDbLine
10
63.423627996631225
20
96.971245104183623
30
0
11
60.995452327167655
21
97.957802891740613
31
0
0
ARC
5
156
100
AcDbEntity
8
0
100
AcDbCircle
10
82.649070154239013
20
94.679510926908392
30
0
40
0.99999999999999645
210
-0
220
0
230
1
100
AcDbArc
50
0
51
82.888295000000241
0
LINE
5
157
100
AcDbEntity
8
0
100
AcDbLine
10
125.69999999999817
20
72.631250000000165
30
0
11
125.69999999999817
21
65.606250000000173
31
0
0
LINE
5
158
100
AcDbEntity
8
0
100
AcDbLine
10
82.772874352673341
20
95.671817593443507
30
0
11
65.215318300628113
21
97.862369392394271
31
0
0
LINE
5
159
100
AcDbEntity
8
0
100
AcDbLine
10
52.499999999998096
20
34.650000000000119
30
0
11
52.967500442740544
21
34.650000000000134
31
0
0
LINE
5
160
100
AcDbEntity
8
0
100
AcDbLine
10
65.215318300628113
20
97.862369392394271
30
0
11
48.004931309821508
21
104.85487868800791
31
0
0
ARC
5
161
100
AcDbEntity
8
0
100
AcDbCircle
10
28.949999999998628
20
88.125542508633828
30
0
40
2.4999999999999996
210
-0
220
0
230
1
100
AcDbArc
50
-66.42182152177655
51
66.421821521772415
0
LINE
5
162
100
AcDbEntity
8
0
100
AcDbLine
10
68.549999999998306
20
53.700000000000152
30
0
11
53.268810260905838
21
53.700000000000152
31
0
0
LINE
5
163
100
AcDbEntity
8
0
100
AcDbLine
10
29.949999999999495
20
85.83425466115628
30
0
11
29.94999999999914
21
75.01250000000006
31
0
0
LINE
5
164
100
AcDbEntity
8
0
100
AcDbLine
10
41.339045686107653
20
84.761325462423045
30
0
11
31.949999999999488
21
91.125542508633188
31
0
0
LINE
5
165
100
AcDbEntity
8
0
100
AcDbLine
10
70.04999999999751
20
70.750000000000313
30
0
11
70.049999999998178
21
62.22500000000398
31
0
0
LINE
5
166
100
AcDbEntity
8
0
100
AcDbLine
10
50.99999999999801
20
71.750000000000142
30
0
11
69.04999999999751
21
71.750000000000227
31
0
0
ARC
5
167
100
AcDbEntity
8
0
100
AcDbCircle
10
69.049999999997482
20
70.750000000000199
30
0
40
1.0000000000000142
210
0
220
-0
230
1
100
AcDbArc
50
0
51
89.99999999999838
0
LINE
5
168
100
AcDbEntity
8
0
100
AcDbLine
10
42.117546783923473
20
84.329387380441787
30
0
11
41.883928500618509
21
84.391985210790494
31
0
0
LINE
5
169
100
AcDbEntity
8
0
100
AcDbLine
10
43.694018844683512
20
85.351779383396547
30
0
11
47.567637079881479
21
99.80831944628072
31
0
0
LINE
5
170
100
AcDbEntity
8
0
100
AcDbLine
10
59.094745797094177
20
80.81563679553021
30
0
11
63.423627996631225
21
96.971245104183623
31
0
0
LINE
5
171
100
AcDbEntity
8
0
100
AcDbLine
10
8.7194488402638726
20
106.87200648658482
30
0
11
6.9995917829318266
21
113.27345778169271
31
0
0
LINE
5
172
100
AcDbEntity
8
0
100
AcDbLine
10
32.949999999998099
20
19.362500000000132
30
0
11
50.999999999998153
21
19.362500000000132
31
0
0
LINE
5
173
100
AcDbEntity
8
0
100
AcDbLine
10
31.949999999997605
20
37.125542508633856
30
0
11
31.94999999999812
21
20.362500000000093
31
0
0
ARC
5
174
100
AcDbEntity
8
0
100
AcDbCircle
10
51.999999999998096
20
15.600000000000126
30
0
40
0.99999999999999645
210
0
220
0
230
1
100
AcDbArc
50
180
51
270
0
LINE
5
175
100
AcDbEntity
8
0
100
AcDbLine
10
41.883928500618509
20
84.391985210790494
30
0
11
41.895331372787339
21
84.434541309076792
31
0
0
LINE
5
176
100
AcDbEntity
8
0
100
AcDbLine
10
50.999999999998153
20
19.362500000000132
30
0
11
50.999999999998096
21
15.600000000000144
31
0
0
LINE
5
177
100
AcDbEntity
8
0
100
AcDbLine
10
31.949999999998653
20
37.125542508633856
30
0
11
31.94999999999812
21
20.362500000000093
31
0
0
LINE
5
178
100
AcDbEntity
8
0
100
AcDbLine
10
31.949999999998138
20
76.512500000000117
30
0
11
49.999999999997925
21
76.512500000000358
31
0
0
LINE
5
179
100
AcDbEntity
8
0
100
AcDbLine
10
31.949999999998653
20
38.625542508633856
30
0
11
31.949999999998653
21
37.125542508633856
31
0
0
LINE
5
180
100
AcDbEntity
8
0
100
AcDbLine
10
52.499999999998096
20
34.650000000000119
30
0
11
52.499999999998025
21
51.700000000000074
31
0
0
LINE
5
181
100
AcDbEntity
8
0
100
AcDbLine
10
70.049999999997965
20
62.22499999999993
30
0
11
89.099999999998261
21
62.224999999999966
31
0
0
LINE
5
182
100
AcDbEntity
8
0
100
AcDbLine
10
68.549999999998306
20
60.7250000000043
30
0
11
68.549999999998164
21
34.650000000000134
31
0
0
LINE
5
183
100
AcDbEntity
8
0
100
AcDbLine
10
90.099999999998133
20
66.987500000000168
30
0
11
108.1499999999982
21
66.987500000000153
31
0
0
LINE
5
184
100
AcDbEntity
8
0
100
AcDbLine
10
71.549999999998164
20
16.100000000000133
30
0
11
71.54999999999967
21
23.125000000003833
31
0
0
LINE
5
185
100
AcDbEntity
8
0
100
AcDbLine
10
70.049999999998164
20
14.600000000000129
30
0
11
70.049999999998164
21
6.0750000000001192
31
0
0
ARC
5
186
100
AcDbEntity
8
0
100
AcDbCircle
10
71.049999999998164
20
6.0750000000001192
30
0
40
0.99999999999999645
210
0
220
0
230
1
100
AcDbArc
50
180
51
270
0
LINE
5
187
100
AcDbEntity
8
0
100
AcDbLine
10
71.549999999998164
20
16.100000000000133
30
0
11
71.549999999998164
21
6.5750000000001263
31
0
0
LINE
5
188
100
AcDbEntity
8
0
100
AcDbLine
10
68.549999999998306
20
51.700000000000145
30
0
11
52.499999999998025
21
51.700000000000074
31
0
0
LINE
5
189
100
AcDbEntity
8
0
100
AcDbLine
10
50.999999999997918
20
75.512500000000387
30
0
11
50.99999999999801
21
71.750000000000142
31
0
0
LINE
5
190
100
AcDbEntity
8
0
100
AcDbLine
10
63.803023573390725
20
76.788634631099413
30
0
11
42.505837174700702
21
84.176255972795104
31
0
0
ARC
5
191
100
AcDbEntity
8
0
100
AcDbCircle
10
65.441649820129882
20
81.512500000000543
30
0
40
5.0000000000005871
210
0
220
0
230
1
100
AcDbArc
50
250.86923459177785
51
269.99999999999886
0
LINE
5
192
100
AcDbEntity
8
0
100
AcDbLine
10
48.004931309821508
20
104.85487868800791
30
0
11
33.19076861373334
21
116.06349993401317
31
0
0
LINE
5
193
100
AcDbEntity
8
0
100
AcDbLine
10
29.949999999999726
20
92.481211073677116
30
0
11
29.949999999999655
21
90.416830356111291
31
0
0
LINE
5
194
100
AcDbEntity
8
0
100
AcDbLine
10
68.549999999997539
20
70.250000000000213
30
0
11
68.549999999998306
21
60.7250000000043
31
0
0
LINE
5
195
100
AcDbEntity
8
0
100
AcDbLine
10
48.882325670489664
20
83.552046521221428
30
0
11
43.694018844683512
21
85.351779383396547
31
0
0
LINE
5
196
100
AcDbEntity
8
0
100
AcDbLine
10
59.094745797094177
20
80.81563679553021
30
0
11
48.882325670489664
21
83.552046521221428
31
0
0
LINE
5
197
100
AcDbEntity
8
0
100
AcDbLine
10
49.499999999998039
20
52.750000000000213
30
0
11
49.499999999998039
21
39.412500000000101
31
0
0
LINE
5
198
100
AcDbEntity
8
0
100
AcDbLine
10
33.449999999997019
20
56.462499999999935
30
0
11
49.178642333311018
21
56.462500000000148
31
0
0
LINE
5
199
100
AcDbEntity
8
0
100
AcDbLine
10
49.499999999998039
20
39.412500000000101
30
0
11
33.449999999997218
21
39.412499999999888
31
0
0
LINE
5
200
100
AcDbEntity
8
0
100
AcDbLine
10
52.49999999999801
20
56.750000000000256
30
0
11
52.499999999997939
21
70.250000000000142
31
0
0
LINE
5
201
100
AcDbEntity
8
0
100
AcDbLine
10
29.94999999999914
20
75.01250000000006
30
0
11
31.949999999998653
21
75.012500000000131
31
0
0
LINE
5
202
100
AcDbEntity
8
0
100
AcDbLine
10
31.949999999998653
20
38.625542508633856
30
0
11
31.949999999998653
21
75.012500000000131
31
0
0
LINE
5
203
100
AcDbEntity
8
0
100
AcDbLine
10
52.499999999997939
20
70.250000000000142
30
0
11
68.549999999997539
21
70.250000000000213
31
0
0
LINE
5
204
100
AcDbEntity
8
0
100
AcDbLine
10
31.949999999999488
20
91.125542508633188
30
0
11
31.949999999999008
21
76.512500000000117
31
0
0
LINE
5
205
100
AcDbEntity
8
0
100
AcDbLine
10
31.949999999999008
20
76.512500000000117
30
0
11
49.999999999997925
21
76.512500000000358
31
0
0
LINE
5
206
100
AcDbEntity
8
0
100
AcDbLine
10
52.967500442740544
20
34.650000000000134
30
0
11
68.549999999998164
21
34.650000000000134
31
0
0
ARC
5
207
100
AcDbEntity
8
0
100
AcDbCircle
10
19.720384432129521
20
128.11967055324376
30
0
40
0.99999999999997291
210
0
220
-0
230
1
100
AcDbArc
50
44.999999999999133
51
135.00000000000017
0
LINE
5
208
100
AcDbEntity
8
0
100
AcDbLine
10
145.24999999999818
20
74.131250000000151
30
0
11
127.19999999999817
21
74.131250000000151
31
0
0
LINE
5
209
100
AcDbEntity
8
0
100
AcDbLine
10
89.099999999998147
20
9.8375000000006949
30
0
11
107.14999999999822
21
9.8375000000001087
31
0
0
LINE
5
210
100
AcDbEntity
8
0
100
AcDbLine
10
89.099999999998147
20
9.8375000000006949
30
0
11
89.099999999998147
21
6.075000000000137
31
0
0
LINE
5
211
100
AcDbEntity
8
0
100
AcDbLine
10
50.999999999998096
20
15.600000000000144
30
0
11
50.999999999998153
21
19.362500000000132
31
0
0
LINE
5
212
100
AcDbEntity
8
0
100
AcDbLine
10
70.049999999998164
20
14.600000000000129
30
0
11
51.999999999998096
21
14.600000000000129
31
0
0
LINE
5
213
100
AcDbEntity
8
0
100
AcDbLine
10
146.24999999999818
20
37.031250000000135
30
0
11
146.24999999999818
21
73.131250000000136
31
0
0
LINE
5
214
100
AcDbEntity
8
0
100
AcDbLine
10
88.099999999998175
20
5.0750000000001405
30
0
11
71.049999999998164
21
5.0750000000001227
31
0
0
LINE
5
215
100
AcDbEntity
8
0
100
AcDbLine
10
32.949999999998099
20
19.362500000000132
30
0
11
50.999999999998153
21
19.362500000000132
31
0
0
LINE
5
216
100
AcDbEntity
8
0
100
AcDbLine
10
33.19076861373334
20
116.06349993401317
30
0
11
20.427491213316067
21
128.82677733443029
31
0
0
LINE
5
217
100
AcDbEntity
8
0
100
AcDbLine
10
8.2928197086742728
20
118.10631939216158
30
0
11
19.013277650942992
21
128.82677733443029
31
0
0
LINE
5
218
100
AcDbEntity
8
0
100
AcDbLine
10
37.68089320414505
20
89.973120149698815
30
0
11
44.256581874411758
21
101.36254702135581
31
0
0
LINE
5
219
100
AcDbEntity
8
0
100
AcDbLine
10
71.54999999999967
20
23.125000000003833
30
0
11
87.600000000000648
21
23.125000000000458
31
0
0
ARC
5
220
100
AcDbEntity
8
0
100
AcDbCircle
10
108.81148351928579
20
83.325508240356996
30
0
40
0.25000000000037464
210
0
220
0
230
1
100
AcDbArc
50
116.83067238026213
51
256.08161800267823
0
LINE
5
221
100
AcDbEntity
8
0
100
AcDbLine
10
29.949999999999726
20
92.481211073677116
30
0
11
10.618476939973895
21
105.58478013712865
31
0
0
LINE
5
222
100
AcDbEntity
8
0
100
AcDbLine
10
51.999999999998096
20
14.600000000000129
30
0
11
70.049999999998164
21
14.600000000000129
31
0
0
LINE
5
223
100
AcDbEntity
8
0
100
AcDbLine
10
63.803023573390725
20
76.788634631099413
30
0
11
41.883928500618509
21
84.391985210790494
31
0
0
ARC
5
224
100
AcDbEntity
8
0
100
AcDbCircle
10
32.949999999998099
20
20.362500000000111
30
0
40
0.99999999999997868
210
0
220
0
230
1
100
AcDbArc
50
180
51
270
0
LINE
5
225
100
AcDbEntity
8
0
100
AcDbLine
10
127.19999999999817
20
36.031250000000142
30
0
11
145.24999999999818
21
36.031250000000142
31
0
0
LINE
5
226
100
AcDbEntity
8
0
100
AcDbLine
10
90.600000000000193
20
27.887500000000177
30
0
11
106.64999999999816
21
27.887500000000177
31
0
0
LINE
5
227
100
AcDbEntity
8
0
100
AcDbLine
10
127.19999999999817
20
36.031250000000142
30
0
11
127.19999999999821
21
27.506250000000133
31
0
0
LINE
5
228
100
AcDbEntity
8
0
100
AcDbLine
10
87.599999999998175
20
11.337499999998904
30
0
11
87.599999999999753
21
18.837499999999526
31
0
0
ARC
5
229
100
AcDbEntity
8
0
100
AcDbCircle
10
145.24999999999818
20
37.031250000000135
30
0
40
0.99999999999999645
210
0
220
0
230
1
100
AcDbArc
50
-90
51
0
0
LINE
5
230
100
AcDbEntity
8
0
100
AcDbLine
10
109.64999999999816
20
65.487500000000381
30
0
11
109.64999999999817
21
76.948150756452307
31
0
0
LINE
5
231
100
AcDbEntity
8
0
100
AcDbLine
10
90.099999999998133
20
66.987500000000168
30
0
11
108.14999999999816
21
66.987500000000352
31
0
0
LINE
5
232
100
AcDbEntity
8
0
100
AcDbLine
10
109.64999999999816
20
73.851576379972883
30
0
11
109.64999999999816
21
78.656250000000156
31
0
0
LINE
5
233
100
AcDbEntity
8
0
100
AcDbLine
10
89.099999999998147
20
9.8374999999989896
30
0
11
107.14999999999822
21
9.8375000000001087
31
0
0
LINE
5
234
100
AcDbEntity
8
0
100
AcDbLine
10
90.600000000000193
20
27.887500000000177
30
0
11
90.600000000000506
21
22.837499999998961
31
0
0
LINE
5
235
100
AcDbEntity
8
0
100
AcDbLine
10
145.24999999999818
20
74.131250000000151
30
0
11
127.19999999999817
21
74.131250000000151
31
0
0
LINE
5
236
100
AcDbEntity
8
0
100
AcDbLine
10
33.190768613731976
20
116.0634999340142
30
0
11
20.427491213316067
21
128.82677733443029
31
0
0
LINE
5
237
100
AcDbEntity
8
0
100
AcDbLine
10
10.618476939973895
20
105.58478013712865
30
0
11
8.7194488402638726
21
106.87200648658482
31
0
0
LINE
5
238
100
AcDbEntity
8
0
100
AcDbLine
10
82.772874352673341
20
95.671817593443507
30
0
11
65.215317755663136
21
97.862369460386304
31
0
0
LINE
5
239
100
AcDbEntity
8
0
100
AcDbLine
10
108.14999999999816
20
26.506250000000136
30
0
11
126.1999999999982
21
26.506250000000136
31
0
0
LINE
5
240
100
AcDbEntity
8
0
100
AcDbLine
10
70.049999999998178
20
62.22500000000398
30
0
11
89.099999999998147
21
62.224999999999966
31
0
0
ARC
5
241
100
AcDbEntity
8
0
100
AcDbCircle
10
107.14999999999816
20
10.837500000000105
30
0
40
0.99999999999999645
210
-0
220
0
230
1
100
AcDbArc
50
270.00000000000324
51
360
0
ARC
5
242
100
AcDbEntity
8
0
100
AcDbCircle
10
88.099999999998175
20
6.075000000000137
30
0
40
0.99999999999999645
210
-0
220
0
230
1
100
AcDbArc
50
-90
51
0
0
LINE
5
243
100
AcDbEntity
8
0
100
AcDbLine
10
90.600000000001216
20
11.337499999999082
30
0
11
106.64999999999816
21
11.337500000000077
31
0
0
LINE
5
244
100
AcDbEntity
8
0
100
AcDbLine
10
126.19999999999818
20
83.656250000000156
30
0
11
109.14999999999814
21
83.656250000000114
31
0
0
LINE
5
245
100
AcDbEntity
8
0
100
AcDbLine
10
125.69999999999817
20
65.606250000000173
30
0
11
109.64999999999816
21
65.606250000000188
31
0
0
LINE
5
246
100
AcDbEntity
8
0
100
AcDbLine
10
83.649070154239027
20
77.51249999999996
30
0
11
83.649070154239013
21
94.679510926908392
31
0
0
LINE
5
247
100
AcDbEntity
8
0
100
AcDbLine
10
108.14999999999816
20
10.837500000000087
30
0
11
108.14999999999816
21
26.506250000000136
31
0
0
LINE
5
248
100
AcDbEntity
8
0
100
AcDbLine
10
19.013277650942992
20
128.82677733443029
30
0
11
8.2928197086742728
21
118.10631939216158
31
0
0
LINE
5
249
100
AcDbEntity
8
0
100
AcDbLine
10
108.14999999999816
20
66.987500000000352
30
0
11
108.14999999999816
21
78.156250000000114
31
0
0
LINE
5
250
100
AcDbEntity
8
0
100
AcDbLine
10
83.649070154239027
20
77.51249999999996
30
0
11
83.649070154239013
21
94.679510926908392
31
0
0
LINE
5
251
100
AcDbEntity
8
0
100
AcDbLine
10
127.19999999999817
20
74.131250000000151
30
0
11
127.19999999999817
21
82.656250000000142
31
0
0
ARC
5
252
100
AcDbEntity
8
0
100
AcDbCircle
10
108.14999999999816
20
80.656250000000114
30
0
40
2.5
210
-0
220
0
230
1
100
AcDbArc
50
270
51
306.86989764584462
0
ARC
5
253
100
AcDbEntity
8
0
100
AcDbCircle
10
108.14999999999816
20
80.656250000000114
30
0
40
2.5000000000000071
210
-0
220
0
230
1
100
AcDbArc
50
36.869897645844539
51
76.081618002729599
0
ARC
5
254
100
AcDbEntity
8
0
100
AcDbCircle
10
89.09999999999819
20
20.837500000000691
30
0
40
2.5000000000000036
210
0
220
-0
230
1
100
AcDbArc
50
53.130102354089715
51
126.8698976457752
0
ARC
5
255
100
AcDbEntity
8
0
100
AcDbCircle
10
89.09999999999819
20
20.837500000000691
30
0
40
2.4999999999999964
210
0
220
0
230
1
100
AcDbArc
50
233.13010235420069
51
306.86989764591738
0
ARC
5
256
100
AcDbEntity
8
0
100
AcDbCircle
10
50.999999999998153
20
54.750000000000142
30
0
40
2.5000000000000107
210
0
220
-0
230
1
100
AcDbArc
50
53.130102354160151
51
136.76439285101773
0
ARC
5
257
100
AcDbEntity
8
0
100
AcDbCircle
10
50.999999999998153
20
54.750000000000142
30
0
40
2.5000000000000036
210
0
220
0
230
1
100
AcDbArc
50
233.13010235415294
51
335.16541251029861
0
ARC
5
258
100
AcDbEntity
8
0
100
AcDbCircle
10
46.636386430652941
20
102.12839966651262
30
0
40
2.5000000000000062
210
0
220
0
230
1
100
AcDbArc
50
-22.171225307578343
51
106.01840154754994
0
ARC
5
259
100
AcDbEntity
8
0
100
AcDbCircle
10
46.636386430652941
20
102.12839966651262
30
0
40
2.4999999999999982
210
0
220
0
230
1
100
AcDbArc
50
197.83886337247762
51
291.86989764584371
0
LINE
5
260
100
AcDbEntity
8
0
100
AcDbLine
10
41.883928500618509
20
84.391985210790494
30
0
11
31.949999999998635
21
91.125542508633828
31
0
0
LINE
5
261
100
AcDbEntity
8
0
100
AcDbLine
10
29.949999999999726
20
92.481211073677116
30
0
11
21.982147367728224
21
97.882094745914472
31
0
0
ENDSEC
0
SECTION
2
OBJECTS
0
DICTIONARY
5
C
100
AcDbDictionary
3
ACAD_GROUP
350
D
3
ACAD_MLINESTYLE
350
17
0
DICTIONARY
5
D
100
AcDbDictionary
0
DICTIONARY
5
1A
330
C
100
AcDbDictionary
0
DICTIONARY
5
17
100
AcDbDictionary
0
ENDSEC
0
EOF
